<?xml version="1.0" encoding="utf-8"?>
<!-- Generator: Adobe Illustrator 18.0.0, SVG Export Plug-In . SVG Version: 6.00 Build 0)  -->
<!DOCTYPE svg PUBLIC "-//W3C//DTD SVG 1.1//EN" "http://www.w3.org/Graphics/SVG/1.1/DTD/svg11.dtd">
<svg version="1.1" id="Layer_1" xmlns="http://www.w3.org/2000/svg" xmlns:xlink="http://www.w3.org/1999/xlink" x="0px" y="0px"
	 viewBox="0 0 85.9 100" enable-background="new 0 0 85.9 100" xml:space="preserve">
<g>
	<g>
		<path fill="#FFFFFF" d="M0.6,98.3c0-0.8,0-1.6,0-2.4c0-0.8,0-1.6,0-2.4c0-0.8-0.1-1.6-0.1-2.4c-0.1-0.8-0.2-1.6-0.3-2.4
			c0,0,0-0.1,0-0.1c0-0.1,0-0.1-0.1-0.2c0-0.1,0-0.1-0.1-0.2c0-0.1,0-0.1,0-0.1c0,0,0-0.1,0.1-0.2c0-0.1,0.1-0.1,0.1-0.2
			c0.1-0.1,0.1-0.1,0.2-0.2c0.1,0,0.1-0.1,0.2,0c0.1,0,0.2,0.1,0.3,0.2C1,87.8,1,87.9,1.1,88.1c0,0.1,0.1,0.3,0.1,0.4
			c0,0.1,0,0.2,0,0.3c0.3-0.2,0.7-0.3,1-0.5s0.8-0.4,1.2-0.5c0.4-0.2,0.8-0.3,1.2-0.4c0.4-0.1,0.8-0.2,1.1-0.2c0,0.1,0,0.2-0.1,0.2
			c0,0.1-0.1,0.1-0.2,0.2l-4.3,2.2v0.6c0,0.1,0,0.3,0,0.6c0,0.3,0,0.6,0.1,0.9c0,0.3,0,0.6,0.1,0.9s0,0.5,0,0.6l3.2-1.8l0.1-0.1
			c0.1-0.1,0.1-0.1,0.2-0.2c0.1-0.1,0.2-0.1,0.3-0.1c0.1,0,0.2,0,0.3,0.2c0,0.2-0.1,0.4-0.3,0.5c-0.2,0.2-0.4,0.3-0.7,0.5
			c-0.3,0.2-0.6,0.3-0.9,0.5c-0.3,0.2-0.6,0.3-0.9,0.5c-0.3,0.2-0.5,0.3-0.7,0.5c-0.2,0.2-0.3,0.3-0.3,0.4v3c0.1,0.1,0.3,0,0.6-0.1
			S2.7,97,3,96.8c0.3-0.2,0.6-0.4,0.9-0.6c0.3-0.2,0.6-0.4,0.9-0.7c0.3-0.2,0.6-0.4,0.8-0.6c0.3-0.2,0.5-0.3,0.7-0.3
			c0.1,0,0.2,0,0.3,0.1c0.1,0,0.1,0.1,0.1,0.2c0,0.1-0.1,0.2-0.2,0.3c-0.4,0.2-0.8,0.5-1.2,0.8c-0.5,0.3-0.9,0.6-1.4,1
			c-0.5,0.3-1,0.6-1.4,0.9c-0.5,0.3-0.9,0.4-1.2,0.5c-0.1,0-0.2,0-0.3,0C0.8,98.4,0.7,98.4,0.6,98.3z"/>
		<path fill="#FFFFFF" d="M7.2,92.4C7.2,92.4,7.2,92.4,7.2,92.4c0-0.1,0-0.1,0-0.1c0-0.2,0.1-0.2,0.2-0.3c0.1,0,0.2,0,0.3,0
			c0.1,0,0.2,0.1,0.4,0.3c0.1,0.2,0.3,0.4,0.5,0.8c0.2,0.3,0.4,0.7,0.6,1c0.2,0.4,0.4,0.7,0.6,1.1c0.2,0.4,0.4,0.7,0.6,1
			c0.2,0.3,0.4,0.5,0.6,0.6C11,95.8,11,95,11,94.3s0.1-1.2,0.1-1.7c0-0.5,0-0.8,0-1.1c0-0.3,0-0.5,0-0.6c0-0.1,0-0.2,0-0.3
			c0,0,0-0.1,0-0.1c0-0.2,0-0.3,0.1-0.3c0.1,0,0.2-0.1,0.3-0.1c0.1,0,0.3,0,0.4,0.1c0.1,0,0.2,0.1,0.2,0.3c0,0.7,0,1.3,0,2
			c0,0.7-0.1,1.4-0.1,2c-0.1,0.7-0.1,1.3-0.1,2s0,1.3,0,1.9c0,0-0.1,0-0.1,0.1c-0.1,0-0.1,0-0.2,0.1c-0.1,0-0.2,0-0.2,0
			c-0.1,0-0.1,0-0.2,0c-0.1,0-0.3-0.2-0.5-0.4c-0.2-0.3-0.5-0.6-0.7-1c-0.3-0.4-0.5-0.8-0.8-1.3c-0.3-0.5-0.6-1-0.8-1.4
			C8,94,7.8,93.6,7.6,93.2C7.4,92.8,7.2,92.6,7.2,92.4z"/>
		<path fill="#FFFFFF" d="M13.4,95.4c-0.1,0-0.1,0-0.2,0c-0.1,0-0.2,0-0.3,0c-0.1,0-0.2,0-0.3-0.1c-0.1-0.1-0.1-0.1-0.1-0.3
			c0-0.1,0-0.1,0-0.2c0,0,0.1-0.1,0.2-0.1c0.2-0.2,0.4-0.4,0.6-0.7s0.3-0.6,0.4-0.9c0.1-0.3,0.3-0.7,0.4-1s0.3-0.6,0.5-0.9
			c0.2-0.3,0.4-0.5,0.7-0.6c0.3-0.2,0.6-0.2,1.1-0.2c0.2,0,0.4,0,0.6,0.1c0.2,0.1,0.4,0.2,0.6,0.3c0.2,0.1,0.3,0.3,0.5,0.5
			c0.1,0.2,0.2,0.4,0.2,0.6c0.1,0.1,0,0.2-0.1,0.4c-0.1,0.2-0.4,0.3-0.6,0.5s-0.5,0.4-0.9,0.6c-0.3,0.2-0.6,0.4-0.9,0.5
			s-0.6,0.3-0.8,0.4c-0.2,0.1-0.4,0.2-0.4,0.3c-0.1,0.1-0.1,0.2-0.1,0.4c0,0.1-0.1,0.3-0.1,0.4c0,0.1,0,0.2,0,0.3c0,0.1,0,0.2,0,0.2
			c0,0.2,0,0.4,0,0.6c0,0.2,0,0.5,0,0.7c0,0.2,0.1,0.4,0.3,0.5c0.1,0.1,0.4,0.2,0.7,0.2c0.3,0,0.7-0.1,1-0.3
			c0.3-0.2,0.6-0.4,0.8-0.6c0.3-0.2,0.5-0.5,0.7-0.8c0.2-0.3,0.4-0.6,0.6-0.8c0.2-0.3,0.3-0.5,0.5-0.6c0.1-0.2,0.2-0.2,0.3-0.2
			c0.1,0,0.2,0,0.3,0.1c0.1,0,0.2,0.1,0.2,0.3c0,0.2-0.1,0.4-0.2,0.7s-0.3,0.5-0.6,0.8c-0.2,0.3-0.5,0.6-0.8,0.9
			c-0.3,0.3-0.6,0.5-0.9,0.8c-0.3,0.2-0.6,0.4-0.9,0.5c-0.3,0.1-0.6,0.2-0.8,0.2c-0.5,0-0.8-0.1-1-0.3c-0.2-0.2-0.4-0.5-0.5-0.8
			c-0.1-0.3-0.1-0.7-0.2-1.1C13.4,96,13.4,95.7,13.4,95.4z M16.2,91.2c-0.2,0-0.4,0.1-0.6,0.3c-0.2,0.2-0.4,0.4-0.5,0.6
			c-0.2,0.2-0.3,0.5-0.4,0.7c-0.1,0.3-0.2,0.5-0.2,0.6c0.2,0,0.4-0.1,0.7-0.2c0.3-0.1,0.6-0.3,0.9-0.4c0.3-0.2,0.5-0.4,0.8-0.6
			c0.2-0.2,0.3-0.4,0.3-0.6c0-0.1,0-0.2-0.1-0.2c-0.1-0.1-0.2-0.1-0.3-0.2c-0.1,0-0.2-0.1-0.3-0.1C16.4,91.2,16.3,91.2,16.2,91.2z"
			/>
		<path fill="#FFFFFF" d="M20.9,98.5c-0.1-1.4-0.2-2.8-0.3-4.2c-0.1-1.4-0.2-2.8-0.3-4.3c0-0.2,0.1-0.4,0.4-0.4h0.1
			c0,0,0.1,0,0.1,0.1c0,0.1,0.1,0.2,0.1,0.5c0,0.2,0.1,0.6,0.2,1c0.1,0.4,0.1,1,0.2,1.7c0.1,0.7,0.2,1.6,0.3,2.7
			c0.2-0.7,0.4-1.4,0.5-2c0.1-0.7,0.3-1.3,0.5-1.8c0.2-0.5,0.5-1,0.8-1.4c0.4-0.4,0.9-0.7,1.5-0.9c0.4,0.1,0.7,0.3,0.9,0.7
			c0.2,0.4,0.4,0.9,0.5,1.4c0.1,0.6,0.2,1.2,0.3,1.8c0.1,0.7,0.1,1.3,0.1,1.9s0,1.1,0,1.6s0,0.8,0,1c0,0.1-0.1,0.2-0.1,0.2
			c-0.1,0.1-0.1,0.1-0.2,0.1c-0.1,0-0.1,0-0.2,0c-0.1,0-0.1-0.1-0.2-0.2c0-0.1,0-0.3,0-0.7c0-0.3,0-0.8-0.1-1.2c0-0.5-0.1-1-0.1-1.5
			c0-0.5-0.1-1-0.1-1.5c0-0.5,0-0.9-0.1-1.2c0-0.3,0-0.6,0-0.7c-0.2-0.4-0.4-0.6-0.6-0.6c-0.2-0.1-0.4,0-0.6,0.2
			c-0.2,0.2-0.4,0.5-0.6,0.8c-0.2,0.4-0.4,0.8-0.6,1.3c-0.2,0.5-0.3,1-0.5,1.5c-0.2,0.5-0.3,1-0.4,1.5c-0.1,0.5-0.2,0.9-0.3,1.3
			c-0.1,0.4-0.1,0.7-0.1,0.9c0,0.1-0.1,0.1-0.2,0.2c-0.1,0.1-0.2,0.1-0.3,0.1c-0.1,0-0.2,0-0.3,0C21,98.6,20.9,98.6,20.9,98.5z"/>
		<path fill="#FFFFFF" d="M28.3,92.1c-0.1,0.1-0.2,0.1-0.3,0.2c-0.1,0.1-0.2,0.1-0.3,0.2c-0.1,0-0.2,0.1-0.2,0.1c-0.1,0-0.2,0-0.3,0
			c-0.1,0-0.1,0-0.2-0.1c0-0.1-0.1-0.2-0.1-0.3c0-0.1,0-0.2-0.1-0.3c0-0.1,0-0.2,0-0.2l1.5-0.8l0.1-3.9c0-0.1,0.1-0.2,0.2-0.2
			c0.1,0,0.3,0.1,0.4,0.1c0,0,0.1,0,0.1,0c0,0,0.1,0,0.1,0c0,0.3,0,0.6-0.1,0.9c0,0.3,0,0.6-0.1,1c0,0.3,0,0.6,0,0.9
			c0,0.3,0,0.6,0,0.8l2.3-0.6c0,0,0.1,0,0.1,0.1c0,0.1,0,0.1,0.1,0.2c0,0.1,0,0.2,0.1,0.4l-2.6,1.1c0,0.1,0,0.3,0,0.7s0,0.8,0.1,1.2
			c0,0.5,0,1,0.1,1.5c0,0.6,0,1.1,0.1,1.5c0,0.5,0,0.9,0,1.2c0,0.4,0,0.6,0,0.7c0,0.3-0.1,0.5-0.3,0.5s-0.3-0.1-0.5-0.2L28.3,92.1z"
			/>
		<path fill="#FFFFFF" d="M39.2,95.9c0-0.3,0-0.8,0.1-1.3c0.1-0.6,0.2-1.2,0.3-1.8c0.1-0.6,0.3-1.3,0.5-2c0.2-0.7,0.4-1.3,0.7-1.8
			c0.3-0.5,0.6-1,1-1.3c0.4-0.3,0.8-0.5,1.2-0.5c0.3,0,0.5,0,0.7,0.1c0.2,0.1,0.3,0.2,0.4,0.4c0.1,0.2,0.2,0.3,0.3,0.5
			c0.1,0.2,0.1,0.4,0.1,0.7c-0.2,0-0.3,0-0.4-0.1c-0.1-0.1-0.2-0.2-0.3-0.3c-0.1-0.1-0.2-0.2-0.3-0.3S43.2,88,43,88
			c-0.3,0-0.6,0.2-0.9,0.5c-0.3,0.3-0.5,0.7-0.8,1.2c-0.2,0.5-0.4,1-0.6,1.6s-0.3,1.2-0.4,1.7c-0.1,0.6-0.2,1.1-0.3,1.5
			C40,95,40,95.3,40,95.5c0,0.3,0,0.6,0,0.9c0,0.3,0.1,0.5,0.2,0.8c0.1,0.2,0.3,0.4,0.4,0.5c0.2,0.1,0.5,0.2,0.8,0.2
			c0.4,0,0.8-0.1,1.2-0.4c0.4-0.3,0.8-0.6,1.1-1c0.3-0.4,0.7-0.8,0.9-1.2c0.3-0.4,0.4-0.8,0.6-1.1c0,0,0.1,0,0.1,0
			c0.1,0,0.1,0,0.1,0c0.1,0,0.2,0,0.3,0c0.1,0,0.2,0.1,0.2,0.3c-0.1,0.3-0.2,0.7-0.4,1c-0.2,0.4-0.5,0.7-0.8,1.1
			c-0.3,0.3-0.6,0.7-1,1c-0.4,0.3-0.7,0.6-1.1,0.8c-0.3,0.2-0.7,0.3-1,0.4c-0.3,0.1-0.5,0.1-0.7,0c-0.3,0-0.6-0.1-0.9-0.3
			c-0.2-0.2-0.4-0.4-0.6-0.7c-0.1-0.3-0.3-0.6-0.3-0.9C39.2,96.5,39.2,96.2,39.2,95.9z"/>
		<path fill="#FFFFFF" d="M51.2,98.3c-0.1-0.3-0.1-0.6-0.1-1c0-0.4-0.1-0.8-0.1-1.1c0-0.4-0.1-0.7-0.1-1.1c-0.1-0.3-0.1-0.6-0.3-0.8
			c-0.5,1.1-1,1.9-1.4,2.5c-0.4,0.6-0.8,1-1.1,1.3c-0.3,0.3-0.6,0.4-0.8,0.4c-0.2,0-0.4-0.1-0.5-0.3c-0.1-0.2-0.2-0.4-0.3-0.7
			c-0.1-0.3-0.1-0.5-0.1-0.8c0-0.2,0.1-0.5,0.2-1c0.1-0.4,0.2-0.9,0.4-1.3c0.2-0.5,0.4-1,0.6-1.5c0.2-0.5,0.5-1,0.8-1.4
			c0.3-0.4,0.6-0.7,0.9-1c0.3-0.3,0.6-0.4,0.9-0.4c0.4-0.1,0.8,0,1,0.3c0.2,0.3,0.2,0.7,0.1,1.3c0,0.7,0,1.3,0.1,1.7
			c0.1,0.5,0.1,0.9,0.2,1.4c0.1,0.4,0.1,0.9,0.2,1.4c0.1,0.5,0.1,1.1,0.1,1.7c0,0.1,0,0.2,0,0.3c0,0.1-0.1,0.1-0.4,0.1
			c0,0-0.1,0-0.1-0.1C51.3,98.4,51.2,98.3,51.2,98.3z M50.4,91.4c-0.1-0.2-0.3-0.2-0.5,0c-0.2,0.1-0.4,0.4-0.6,0.7
			c-0.2,0.3-0.4,0.7-0.7,1.1S48.2,94,48,94.4c-0.2,0.4-0.4,0.9-0.5,1.3c-0.1,0.4-0.2,0.7-0.3,1c0,0.4,0.1,0.6,0.2,0.6
			c0.1,0,0.3,0,0.4-0.2s0.4-0.4,0.6-0.7c0.2-0.3,0.4-0.6,0.6-1c0.2-0.3,0.4-0.7,0.6-1c0.2-0.3,0.3-0.6,0.4-0.8
			c0.1-0.2,0.2-0.4,0.2-0.6c0.1-0.2,0.1-0.4,0.1-0.5c0-0.2,0.1-0.3,0.1-0.5C50.4,91.8,50.4,91.6,50.4,91.4z"/>
		<path fill="#FFFFFF" d="M53,97.9c0.1-0.5,0.1-1.1,0.1-1.8c0-0.7,0-1.5,0-2.3c0-0.8,0-1.6-0.1-2.5c0-0.9-0.1-1.7-0.1-2.4
			c0-0.8-0.1-1.4-0.2-2.1c-0.1-0.6-0.1-1.1-0.2-1.4c0.1-0.1,0.2-0.1,0.2-0.1c0.1,0,0.1-0.1,0.2-0.1c0.1,0,0.1,0,0.2,0
			s0.1,0.1,0.1,0.2c0.2,2,0.3,4,0.4,6.1c0.1,2,0.1,4.1,0.2,6.1c0,0.1,0,0.2,0,0.4c0,0.2,0,0.2,0,0.3c-0.1,0.1-0.3,0.1-0.4,0.1
			c-0.1,0-0.2,0-0.3-0.1c-0.1-0.1-0.2-0.1-0.2-0.2C53,98,53,98,53,97.9z"/>
		<path fill="#FFFFFF" d="M55.3,95.4c0,0-0.1,0-0.2,0c-0.1,0-0.2,0-0.3,0c-0.1,0-0.2,0-0.3-0.1c-0.1-0.1-0.1-0.1-0.1-0.3
			c0-0.1,0-0.1,0-0.2c0,0,0.1-0.1,0.2-0.1c0.2-0.2,0.4-0.4,0.6-0.7c0.2-0.3,0.3-0.6,0.4-0.9c0.1-0.3,0.3-0.7,0.4-1
			c0.1-0.3,0.3-0.6,0.5-0.9s0.4-0.5,0.7-0.6c0.3-0.2,0.6-0.2,1.1-0.2c0.2,0,0.4,0,0.6,0.1c0.2,0.1,0.4,0.2,0.6,0.3
			c0.2,0.1,0.3,0.3,0.5,0.5c0.1,0.2,0.2,0.4,0.2,0.6c0.1,0.1,0,0.2-0.1,0.4c-0.1,0.2-0.4,0.3-0.6,0.5c-0.3,0.2-0.5,0.4-0.9,0.6
			c-0.3,0.2-0.6,0.4-0.9,0.5c-0.3,0.2-0.6,0.3-0.8,0.4c-0.2,0.1-0.4,0.2-0.4,0.3c-0.1,0.1-0.1,0.2-0.1,0.4c0,0.1-0.1,0.3-0.1,0.4
			c0,0.1,0,0.2,0,0.3c0,0.1,0,0.2,0,0.2c0,0.2,0,0.4,0,0.6c0,0.2,0,0.5,0,0.7c0,0.2,0.1,0.4,0.3,0.5c0.1,0.1,0.4,0.2,0.7,0.2
			c0.3,0,0.7-0.1,1-0.3c0.3-0.2,0.6-0.4,0.8-0.6c0.3-0.2,0.5-0.5,0.7-0.8c0.2-0.3,0.4-0.6,0.6-0.8c0.2-0.3,0.3-0.5,0.5-0.6
			c0.1-0.2,0.2-0.2,0.3-0.2c0.1,0,0.2,0,0.3,0.1c0.1,0,0.2,0.1,0.2,0.3c0,0.2-0.1,0.4-0.2,0.7c-0.1,0.3-0.3,0.5-0.6,0.8
			c-0.2,0.3-0.5,0.6-0.8,0.9c-0.3,0.3-0.6,0.5-0.9,0.8c-0.3,0.2-0.6,0.4-0.9,0.5c-0.3,0.1-0.6,0.2-0.8,0.2c-0.5,0-0.8-0.1-1-0.3
			c-0.2-0.2-0.4-0.5-0.5-0.8c-0.1-0.3-0.1-0.7-0.2-1.1S55.3,95.7,55.3,95.4z M58.1,91.2c-0.2,0-0.4,0.1-0.6,0.3
			c-0.2,0.2-0.4,0.4-0.5,0.6c-0.2,0.2-0.3,0.5-0.4,0.7c-0.1,0.3-0.2,0.5-0.2,0.6c0.2,0,0.4-0.1,0.7-0.2c0.3-0.1,0.6-0.3,0.9-0.4
			c0.3-0.2,0.5-0.4,0.8-0.6c0.2-0.2,0.3-0.4,0.3-0.6c0-0.1,0-0.2-0.1-0.2c-0.1-0.1-0.2-0.1-0.3-0.2c-0.1,0-0.2-0.1-0.3-0.1
			C58.3,91.2,58.2,91.2,58.1,91.2z"/>
		<path fill="#FFFFFF" d="M62.7,98.5c-0.1-1.4-0.2-2.8-0.3-4.2c-0.1-1.4-0.2-2.8-0.3-4.3c0-0.2,0.1-0.4,0.4-0.4h0.1
			c0,0,0.1,0,0.1,0.1c0,0.1,0.1,0.2,0.1,0.5c0,0.2,0.1,0.6,0.2,1c0.1,0.4,0.1,1,0.2,1.7c0.1,0.7,0.2,1.6,0.3,2.7
			c0.2-0.7,0.4-1.4,0.5-2c0.1-0.7,0.3-1.3,0.5-1.8c0.2-0.5,0.5-1,0.8-1.4c0.4-0.4,0.9-0.7,1.5-0.9c0.4,0.1,0.7,0.3,0.9,0.7
			c0.2,0.4,0.4,0.9,0.5,1.4s0.2,1.2,0.3,1.8c0.1,0.7,0.1,1.3,0.1,1.9c0,0.6,0,1.1,0,1.6s0,0.8,0,1c0,0.1-0.1,0.2-0.1,0.2
			c-0.1,0.1-0.1,0.1-0.2,0.1c-0.1,0-0.2,0-0.2,0c-0.1,0-0.1-0.1-0.2-0.2c0-0.1,0-0.3,0-0.7c0-0.3,0-0.8-0.1-1.2c0-0.5-0.1-1-0.1-1.5
			c0-0.5-0.1-1-0.1-1.5c0-0.5,0-0.9-0.1-1.2c0-0.3,0-0.6,0-0.7c-0.2-0.4-0.4-0.6-0.6-0.6c-0.2-0.1-0.4,0-0.6,0.2
			c-0.2,0.2-0.4,0.5-0.6,0.8c-0.2,0.4-0.4,0.8-0.6,1.3c-0.2,0.5-0.3,1-0.5,1.5c-0.2,0.5-0.3,1-0.4,1.5c-0.1,0.5-0.2,0.9-0.3,1.3
			c-0.1,0.4-0.1,0.7-0.1,0.9c0,0.1-0.1,0.1-0.2,0.2c-0.1,0.1-0.2,0.1-0.3,0.1c-0.1,0-0.2,0-0.3,0C62.9,98.6,62.8,98.6,62.7,98.5z"/>
		<path fill="#FFFFFF" d="M73.1,95.9c-0.1,0.2-0.2,0.5-0.4,0.8s-0.3,0.6-0.6,0.9c-0.2,0.3-0.5,0.5-0.7,0.7c-0.3,0.2-0.6,0.3-0.9,0.3
			c-0.2,0-0.3,0-0.4-0.1c-0.1,0-0.2-0.1-0.2-0.2c-0.1-0.1-0.1-0.2-0.2-0.3c-0.1-0.1-0.1-0.2-0.2-0.3c0-0.5,0-1-0.1-1.6
			c0-0.6,0-1.2,0.1-1.7c0.1-0.6,0.2-1.1,0.3-1.6c0.1-0.5,0.4-1,0.6-1.3c0.3-0.4,0.6-0.6,1-0.8c0.4-0.2,0.9-0.2,1.5,0
			c0-0.3,0-0.7,0-1.2c0-0.5-0.1-1-0.1-1.5c0-0.5-0.1-1-0.1-1.5c0-0.5-0.1-0.9-0.1-1.2c0-0.1,0-0.2,0.1-0.2c0.1,0,0.2-0.1,0.3-0.1
			c0.1,0,0.2,0,0.3,0c0.1,0,0.2,0,0.2,0c0,1.3,0,2.5,0,3.7c0,1.2,0,2.4,0,3.6c0,1.2,0,2.4,0.1,3.6c0,1.2,0,2.4,0,3.6
			c0,0.1,0,0.2,0,0.4c0,0.1-0.1,0.2-0.3,0.2c-0.1,0-0.1,0-0.2-0.1c-0.1,0-0.1-0.1-0.1-0.2L73.1,95.9z M72.4,91.4
			c-0.3,0-0.6,0.1-0.9,0.4s-0.5,0.6-0.7,1.1c-0.2,0.4-0.4,0.9-0.5,1.4c-0.1,0.5-0.2,1-0.2,1.5c0,0.5,0,0.9,0.1,1.3
			c0.1,0.4,0.2,0.6,0.5,0.8c0.2,0,0.4-0.1,0.6-0.3c0.2-0.2,0.4-0.4,0.5-0.7c0.2-0.3,0.3-0.6,0.4-0.9c0.1-0.3,0.2-0.7,0.3-1
			c0.1-0.3,0.2-0.6,0.2-0.9c0-0.3,0.1-0.5,0.1-0.6c0-0.1,0-0.3,0-0.5c0-0.2,0-0.5,0-0.7c0-0.2-0.1-0.4-0.1-0.6
			C72.7,91.5,72.6,91.4,72.4,91.4z"/>
		<path fill="#FFFFFF" d="M79.1,98.3c-0.1-0.3-0.1-0.6-0.1-1c0-0.4-0.1-0.8-0.1-1.1c0-0.4-0.1-0.7-0.1-1.1c-0.1-0.3-0.1-0.6-0.3-0.8
			c-0.5,1.1-1,1.9-1.4,2.5c-0.4,0.6-0.8,1-1.1,1.3c-0.3,0.3-0.6,0.4-0.8,0.4c-0.2,0-0.4-0.1-0.5-0.3c-0.1-0.2-0.2-0.4-0.3-0.7
			c-0.1-0.3-0.1-0.5-0.1-0.8c0-0.2,0.1-0.5,0.2-1c0.1-0.4,0.2-0.9,0.4-1.3c0.2-0.5,0.4-1,0.6-1.5s0.5-1,0.8-1.4
			c0.3-0.4,0.6-0.7,0.9-1s0.6-0.4,0.9-0.4c0.4-0.1,0.8,0,1,0.3c0.2,0.3,0.2,0.7,0.1,1.3c0,0.7,0,1.3,0.1,1.7
			c0.1,0.5,0.1,0.9,0.2,1.4c0.1,0.4,0.1,0.9,0.2,1.4c0.1,0.5,0.1,1.1,0.1,1.7c0,0.1,0,0.2,0,0.3c0,0.1-0.2,0.1-0.4,0.1
			c0,0-0.1,0-0.1-0.1C79.1,98.4,79.1,98.3,79.1,98.3z M78.2,91.4c-0.1-0.2-0.3-0.2-0.5,0c-0.2,0.1-0.4,0.4-0.6,0.7
			c-0.2,0.3-0.4,0.7-0.7,1.1s-0.4,0.9-0.6,1.3c-0.2,0.4-0.4,0.9-0.5,1.3c-0.1,0.4-0.2,0.7-0.3,1c0,0.4,0.1,0.6,0.2,0.6
			c0.1,0,0.3,0,0.4-0.2c0.2-0.2,0.4-0.4,0.6-0.7c0.2-0.3,0.4-0.6,0.6-1c0.2-0.3,0.4-0.7,0.6-1c0.2-0.3,0.3-0.6,0.4-0.8
			c0.1-0.2,0.2-0.4,0.2-0.6c0.1-0.2,0.1-0.4,0.1-0.5c0-0.2,0.1-0.3,0.1-0.5C78.2,91.8,78.2,91.6,78.2,91.4z"/>
		<path fill="#FFFFFF" d="M80.5,91.3v-0.1c0-0.1,0-0.2,0.1-0.2c0.1,0,0.2-0.1,0.3-0.1c0.1,0,0.2,0,0.2,0c0.1,0,0.1,0.1,0.2,0.2
			c0,0.2,0.1,0.4,0.1,0.6s0.1,0.6,0.1,0.9c0,0.3,0.1,0.7,0.1,1s0.1,0.7,0.1,1c0,0.3,0.1,0.6,0.1,0.9c0.1,0.3,0.1,0.5,0.2,0.6
			c0-1,0-1.8,0.1-2.6c0.1-0.7,0.3-1.3,0.5-1.8c0.3-0.5,0.6-0.8,1.1-1c0.5-0.2,1-0.2,1.7-0.1c0.3,0,0.5,0.2,0.5,0.5
			c0,0.1-0.1,0.2-0.3,0.3c-0.2,0-0.4,0.1-0.6,0.1c-0.2,0-0.4,0-0.6,0.1c-0.2,0-0.4,0.1-0.4,0.2c-0.4,0.2-0.6,0.5-0.8,1
			c-0.2,0.4-0.3,0.9-0.3,1.5c-0.1,0.6-0.1,1.2-0.1,1.9c0,0.7-0.1,1.4-0.2,2.1c0,0.1,0,0.2-0.1,0.2c-0.1,0.1-0.2,0.1-0.3,0.1
			c-0.1,0-0.2,0-0.3-0.1c-0.1-0.1-0.2-0.1-0.3-0.2L80.5,91.3z"/>
	</g>
	<g>
		<g>
			<path fill="#4CA647" d="M42.8,75.2c-11.8,0-23.6-0.1-35.4,0.1c-2.8,0-3.6-0.7-3.6-3.6c0.1-18.9,0.1-37.9,0-56.8
				c0-2.9,0.8-3.9,3.6-3.6c1.6,0.2,3.2,0,4.8,0c2.9,0,6-0.8,6.1,3.9c0.1,2.1,2.4,3,4.7,3.1c2.8,0,5.1-1.2,5.6-3.9
				c0.5-3,2.1-3.1,4.4-3.1c7,0.1,14,0.1,21,0c1.8,0,3.2-0.2,3.5,2.5c0.3,3.1,2.8,4.6,6,4.5c3.2-0.1,5.4-1.6,5.8-4.8
				c0.3-2,1-2.2,2.7-2.3c10.6-0.5,10.6-0.5,10.6,10.1c0,16.8-0.1,33.5,0.1,50.3c0,2.8-0.7,3.7-3.6,3.6C67,75.1,54.9,75.2,42.8,75.2z
				"/>
		</g>
		<g>
			<path fill="#4DA748" d="M24.9,7.1c0,1.3,0.1,2.6,0,3.9c-0.1,1.1,0.8,2.9-1.4,2.9c-1.9,0-1.1-1.7-1.2-2.7c-0.1-2.9-0.1-5.8,0-8.7
				c0-1-0.6-2.6,1.4-2.5c1.9,0.1,1.1,1.7,1.2,2.7C25,4.1,24.9,5.6,24.9,7.1z"/>
		</g>
		<g>
			<path fill="#4DA748" d="M62.5,6.8c0-1.3-0.1-2.6,0-3.9C62.7,1.8,61.7,0,63.9,0c1.9,0,1.1,1.7,1.2,2.7c0.1,2.9,0.1,5.8,0,8.7
				c0,1,0.6,2.6-1.4,2.5c-1.9-0.1-1.1-1.7-1.2-2.7C62.4,9.8,62.5,8.3,62.5,6.8z"/>
		</g>
		<g>
			<path fill="#101310" d="M43.7,21.2c10.2,0,20.4,0.1,30.6,0c2.9,0,3.7,1.1,3.7,3.9c-0.3,14-0.5,28-0.5,42c0,3.1-0.9,3.9-4,3.9
				c-20.1-0.1-40.3-0.1-60.4,0c-3.1,0-3.9-0.9-3.9-3.9c0.2-14,0.1-28,0-42c0-3,0.7-4,3.8-4C23.3,21.2,33.5,21,43.7,21
				C43.7,21.1,43.7,21.1,43.7,21.2z"/>
		</g>
		<g>
			<path fill="#F7F7F7" d="M44,55.5c-0.2,0.4-0.4,0.8-0.5,1.2c-0.3,1.7-2.1,4.2,0.2,5c2.6,1,1.8-2.2,2.4-3.5
				c0.9-1.9,2.4-2.9,4.4-3.1c1.1-0.1,2.2-0.4,2.1-1.7c-0.1-1.4-1.4-1.2-2.4-1.2c-2-0.1-4.1,0.1-6.1-0.1c-2.4-0.2-4.6-0.9-5.1-4.1
				c4.2,0,8.2-0.1,12.2,0c4.1,0.1,6.3,2.9,5.7,7c-0.9,6.6-6.8,11.6-13.3,11.4c-6.5-0.2-12.1-5.6-12.3-12.4c-0.2-8,0-16-0.1-24
				c0-1.8,0.5-3.5,2.4-3.5c1.9,0,1.9,1.8,1.9,3.3c0,4.5,0,9,0,13.5C35.5,51.3,36.8,53.1,44,55.5z"/>
		</g>
		<g>
			<path fill="#EBEAEA" d="M57.1,46c-3.4,0.1-4.6-1.3-4.4-4.5c0.3-3.9,0.1-7.8,0.1-11.8c0-1.5,0.1-3.2,2-3.2c1.7,0,2.3,1.4,2.3,3.1
				C57.1,35.1,57.1,40.6,57.1,46z"/>
		</g>
		<g>
			<path fill="#23411F" d="M46.8,29.5c0.4,2.5-1.2,2.9-3.4,2.9c-2.5,0-2.8-1.3-2.8-3.3c0-2.4,0.7-3.9,3.4-3.7
				C46.7,25.5,46.8,27.3,46.8,29.5z"/>
		</g>
		<g>
			<path fill="#244320" d="M74.8,47.3c0.2,2.3-0.8,3.4-3.2,3.5c-2.8,0.1-2.9-1.5-2.9-3.6c0-2.1,0.3-3.6,3-3.5
				C74,43.8,74.9,45,74.8,47.3z"/>
		</g>
		<g>
			<path fill="#234421" d="M16,59.5c-2.8,0.2-3.5-1.4-3.4-3.8c0.1-1.8,0.6-3.1,2.7-3.1c3.1,0,3.6,2.4,3.9,4.6
				C19.5,59.6,17.5,59.4,16,59.5z"/>
		</g>
		<g>
			<path fill="#234320" d="M15.9,43.7c2.2-0.3,2.9,0.9,2.9,3c-0.1,2-0.2,3.8-2.8,3.9c-2.4,0.1-3.3-1.1-3.3-3.4
				C12.6,45.1,13.3,43.6,15.9,43.7z"/>
		</g>
		<g>
			<path fill="#234420" d="M68.7,56.4c-0.1-2.2,0.3-3.9,2.9-3.9c2.5-0.1,3.2,1.3,3.2,3.5c0,2.3-0.9,3.4-3.3,3.5
				C69.1,59.6,68.4,58.4,68.7,56.4z"/>
		</g>
		<g>
			<path fill="#224621" d="M18.7,29.1c0.3,2.2-0.4,3.3-2.8,3.3c-2.4-0.1-3.4-1.1-3.3-3.5c0.1-1.6-0.1-3.5,2.3-3.1
				C16.8,26.1,19.4,26,18.7,29.1z"/>
		</g>
		<g>
			<path fill="#244721" d="M18.7,38.1c0.3,2.3-0.8,2.9-3,3c-2.6,0.1-3.1-1.2-3.1-3.4c0-2.5,1.3-2.7,3.3-2.8
				C18.3,34.9,19,36,18.7,38.1z"/>
		</g>
		<g>
			<path fill="#244621" d="M65.1,64.9c0.2,2-0.2,3.3-2.7,3.3c-2.3,0-3.5-0.5-3.4-3.1c0.1-2.2,0.7-3.2,3-3.1
				C64.1,62.1,65.5,62.5,65.1,64.9z"/>
		</g>
		<g>
			<path fill="#244521" d="M68.7,37.9c-0.4-2.4,0.9-3,3-3c2.2,0,3.2,0.8,3.1,3.1c-0.1,2.2-1.1,3.1-3.3,3.2
				C69.1,41.2,68.4,40.1,68.7,37.9z"/>
		</g>
		<g>
			<path fill="#254623" d="M18.7,65.2c0.3,2.3-0.8,3.1-3,3c-2.2-0.1-3-1.2-3.1-3.3c-0.1-2.4,1.1-2.9,3.2-2.9
				C18.2,62,19,63,18.7,65.2z"/>
		</g>
		<g>
			<path fill="#244521" d="M25.3,68.2c-2.5,0.4-3.1-0.9-3.1-3c0-2.1,0.6-3.2,2.9-3.1c2.4,0.1,3.2,1.2,3.3,3.5
				C28.4,68,27.2,68.5,25.3,68.2z"/>
		</g>
		<g>
			<path fill="#244722" d="M68.7,65.2c-0.3-2.2,0.5-3.2,2.9-3.1c2.1,0,3.3,0.4,3.2,2.9c-0.1,2.5-1.2,3.3-3.6,3.3
				C69,68.3,68.5,67.1,68.7,65.2z"/>
		</g>
		<g>
			<path fill="#244722" d="M68.7,28.8c-0.3-2.2,0.9-2.7,2.9-2.7c2.2,0,3.2,1,3.2,3.1c0,2.2-1.1,3.1-3.3,3
				C69.2,32.2,68.5,30.9,68.7,28.8z"/>
		</g>
		<g>
			<path fill="#22441F" d="M22.2,56.8c0-2.1-0.1-4.2,2.1-4.1c3.2,0,2.2,3.2,2.9,5c0.6,1.5-0.9,1.7-2.1,1.8
				C22.7,59.7,21.9,58.5,22.2,56.8z"/>
		</g>
		<g>
			<path fill="#214320" d="M26.6,47.2c-0.2,1.4,0.5,3.5-2.1,3.4c-2.2-0.1-2.4-1.8-2.3-3.5c0-1.6-0.3-3.4,2.2-3.4
				C27,43.8,26.6,45.6,26.6,47.2z"/>
		</g>
		<g>
			<path fill="#223F1F" d="M26.6,28.9c0.1,2.2-0.1,3.6-2.5,3.4c-2.5-0.3-1.8-2.2-1.8-3.7c-0.1-1.5,0-3,2.2-3
				C27.2,25.7,26.6,27.6,26.6,28.9z"/>
		</g>
		<g>
			<path fill="#234520" d="M26.6,38.1c0.1,1.7-0.2,3-2.3,3c-2.2,0-2.1-1.5-2.1-3c0-1.5-0.2-3,2.1-3.1C26.8,34.9,26.7,36.6,26.6,38.1
				z"/>
		</g>
		<g>
			<path fill="#214420" d="M65.2,55.7c-0.2,1.6,0.6,3.7-2.2,3.8c-1.4,0-2.5-0.5-2.1-2c0.5-1.8,0.2-4.5,2.8-4.7
				C65.7,52.6,64.9,54.5,65.2,55.7z"/>
		</g>
		<g>
			<path fill="#214521" d="M65.1,29.1c-0.1,1.3,0.4,3.3-1.9,3.1c-2.7-0.2-1.3-2.8-2-4.2c-0.7-1.4,0.4-1.7,1.6-1.8
				C65,26.1,65.3,27.4,65.1,29.1z"/>
		</g>
		<g>
			<path fill="#22421F" d="M65.2,47c-0.1,1.5,0.2,3.4-1.9,3.3c-2-0.1-1.7-2.1-1.6-3.5c0-1.2-0.4-2.9,1.6-3
				C65.6,43.8,65,45.7,65.2,47z"/>
		</g>
		<g>
			<path fill="#22441F" d="M61.6,38.2c0.2-1.3-0.4-3.2,1.9-3.1c2,0.1,1.6,1.7,1.6,3c0,1.2,0.4,2.8-1.6,2.9
				C61.5,41.1,61.7,39.5,61.6,38.2z"/>
		</g>
		<g>
			<path fill="#EEEEEE" d="M41.3,44.8c-2.1,0.1-2.9-0.3-2.7-1.7c0.1-1.3,0.6-2.3,2.1-2.1c1.5,0.2,1.9,1.2,1.8,2.5
				C42.5,45,41.4,44.8,41.3,44.8z"/>
		</g>
		<g>
			<path fill="#EDEDEC" d="M49.7,43.3c0,1.6-1,1.6-2.1,1.6c-1.6,0.1-2.1-0.7-1.9-2.1c0.2-1.2,0.8-1.8,2-1.8
				C49.4,41,49.5,42.2,49.7,43.3z"/>
		</g>
	</g>
</g>
</svg>
