<?xml version="1.0" encoding="utf-8"?>
<!-- Generator: Adobe Illustrator 18.0.0, SVG Export Plug-In . SVG Version: 6.00 Build 0)  -->
<!DOCTYPE svg PUBLIC "-//W3C//DTD SVG 1.1//EN" "http://www.w3.org/Graphics/SVG/1.1/DTD/svg11.dtd">
<svg version="1.1" id="Layer_1" xmlns="http://www.w3.org/2000/svg" xmlns:xlink="http://www.w3.org/1999/xlink" x="0px" y="0px"
	 viewBox="0 0 181.8 100" enable-background="new 0 0 181.8 100" xml:space="preserve">
<g>
	<g>
		<path fill="#FADAB7" d="M2.2,74C3.8,68.3,17.1,63.8,25,60.9c2.5-0.9,3.3-5.2,3.3-8.4c-1.1-0.8-2.1-2-3.1-3.5
			c-1.4-2.2-2.9-3.9-4-6.7c-0.7-0.1-1.5-0.7-2-1.4c-1.7-2.9-2.6-7.5-2.1-9c0.3-0.8,1.2-1,1.9-1c-0.4-10.4,4.7-16.7,11.1-19
			c1.4-0.6,1.3-0.7,4.6-1.5c1.9-0.5,4.5-0.5,5.4-0.4c0.8,0.2,3.9,1.8,3.4,2.9c0,0,4.1-1.1,5,2.1c0.2,0.2,0.3,0,0.1,0.2
			c2.6,2,6,7.9,5.7,15.7c0.8,0,1.8,0.1,2.1,1c0.6,1.5-0.3,6-2.1,9c-0.5,0.8-1.4,1.4-2.1,1.4c-1.1,2.8-2.5,4.5-3.9,6.7
			c-1.1,1.7-2.2,2.9-3.5,3.7c0.1,2.9,0.8,6.1,3.4,6.9c4.9,1.3,21.1,7,23.3,13.7c1.3,4,1.5,5.5,1.5,5.5c0,2.9-1.2,5.4-4.3,5.4h-64
			c-3.1,0-3.5-2.1-3.5-5C1.2,77.8,1,78.3,2.2,74z"/>
		<path fill="#BFD1D6" d="M25.1,60.3c1.1-0.4,1.8-1.3,2.3-2.5l9.1,3.7l9.1-4.6c0.5,1.2,1.3,2.2,2.6,2.6c4.9,1.3,21.6,7.1,23.7,13.8
			c1.3,4,1.4,5.3,1.4,5.3c0,2.9,1,5.5-2.2,5.5H2.7c-3.1,0-2.8-3.6-2.6-5.3c0.1-1.3,0.4-3.1,1.2-5.4C2.9,68.6,17.2,63.3,25.1,60.3z"
			/>
		<path fill="#A9BFC4" d="M36.4,62.5l0-0.4l8.9-5c0.5,1.2,1.7,2,3,2.3c4.9,1.3,22.7,7.7,24.8,13.4c1.5,4,1.3,5.9,1.3,5.9
			c0,2.9-0.2,5.3-3.4,5.3H36.4V62.5z"/>
		<linearGradient id="SVGID_1_" gradientUnits="userSpaceOnUse" x1="29.0907" y1="71.4987" x2="42.8204" y2="72.9396">
			<stop  offset="0" style="stop-color:#E6E6E6"/>
			<stop  offset="1" style="stop-color:#C9C9C9"/>
		</linearGradient>
		<polygon fill="url(#SVGID_1_)" points="36.4,61.4 25,63.6 31.9,84.1 41.4,84.1 47.5,66 46.2,61 		"/>
		<polygon fill="#2B3438" points="34.1,70.9 31,84.1 42.6,84.1 38.8,70.9 		"/>
		<polygon fill="#172023" points="36.5,84.1 42.6,84.1 38.8,70.9 36.5,70.9 		"/>
		<path fill="#2B3438" d="M40.5,70c-0.3,1.3-1.5,2.3-2.8,2.3h-2.6c-1.3,0-2.5-1-2.8-2.3l-0.9-4.5c-0.3-1.3,0.6-2.3,1.9-2.3h6.2
			c1.3,0,2.1,1,1.9,2.3L40.5,70z"/>
		<linearGradient id="SVGID_2_" gradientUnits="userSpaceOnUse" x1="36.5511" y1="63.4036" x2="48.5885" y2="63.4036">
			<stop  offset="0" style="stop-color:#E6E6E6"/>
			<stop  offset="1" style="stop-color:#DBDBDB"/>
		</linearGradient>
		<polygon fill="url(#SVGID_2_)" points="45.5,56.8 36.6,61.4 42.4,70.1 48.6,59.5 		"/>
		<polygon fill="#FFFFFF" points="36.4,61.4 30.7,70.2 24.3,60.6 27.7,56.9 		"/>
		<path opacity="0.4" fill="#7A7A7A" d="M44.6,52.8c0,0-3.5,2.7-7.8,2.7c-2.4,0-5.4-1.2-5.4-1.2l6.4,6.5l7.5-3.9
			C45.2,56.9,44.4,53.8,44.6,52.8z"/>
		<polygon fill="#8DA6AA" points="47.6,58.6 39.8,84.1 45.7,84.1 50.6,74.4 46.9,71.4 51.9,71.5 52.4,60.6 		"/>
		<polygon fill="#8DA6AA" points="25.5,59.3 33.4,84.1 26.6,84.1 21.4,74.3 25.9,70.8 20.1,71.4 21.1,61.7 		"/>
		<path fill="#3B2314" d="M28.8,19.7c0,0,5.4,3.2,16.5,0.3c1.9,0.2,6.2,2,5.3,6c-0.4,1.8,1.4,6.7,1.4,6.7s1.7-1.7,2.4-1.7
			c0.1-1.5,0.5-9.5-5.4-15.7c0.2-0.2-1.4-3.2-4.7-2.9c-0.6-0.8-1.5-2.3-4.9-2.6c-3.4-0.3-10.4,2-12.1,3.4c-1.2,0.4-9.1,5.1-8.3,17.8
			c0.1,0,2.2,1.3,2.2,1.3s2-3.6,2.3-5.7C22.7,24.1,24.4,19,28.8,19.7z"/>
	</g>
	<g>
		<path fill="#FADAB7" d="M109.6,74c1.6-5.8,14.9-10.2,22.7-13.2c2.5-0.9,3.3-5.2,3.3-8.4c-1.1-0.8-2.1-2-3.1-3.5
			c-1.4-2.2-2.9-3.9-4-6.7c-0.7-0.1-1.5-0.7-2-1.4c-1.7-2.9-2.6-7.5-2.1-9c0.3-0.8,1.2-1,1.9-1c-0.4-10.4,4.7-16.7,11.1-19
			c1.4-0.6,1.3-0.7,4.6-1.5c1.9-0.5,4.5-0.5,5.4-0.4c0.8,0.2,3.9,1.8,3.4,2.9c0,0,4.1-1.1,5,2.1c0.2,0.2,0.3,0,0.1,0.2
			c2.6,2,6,7.9,5.7,15.7c0.8,0,1.8,0.1,2.1,1c0.6,1.5-0.3,6-2.1,9c-0.5,0.8-1.4,1.4-2.1,1.4c-1.1,2.8-2.5,4.5-3.9,6.7
			c-1.1,1.7-2.2,2.9-3.5,3.7c0.1,2.9,0.8,6.1,3.4,6.9c4.9,1.3,21.1,7,23.3,13.7c1.3,4,1.5,5.5,1.5,5.5c0,2.9-1.2,5.4-4.3,5.4h-64
			c-3.1,0-3.5-2.1-3.5-5C108.6,77.8,108.4,78.3,109.6,74z"/>
		<path fill="#BFD1D6" d="M132.5,60.3c1.1-0.4,1.8-1.3,2.3-2.5l9.1,3.7l9.1-4.6c0.5,1.2,1.3,2.2,2.6,2.6c4.9,1.3,21.6,7.1,23.7,13.8
			c1.3,4,1.4,5.3,1.4,5.3c0,2.9,1,5.5-2.2,5.5h-68.5c-3.1,0-2.8-3.6-2.6-5.3c0.1-1.3,0.4-3.1,1.2-5.4
			C110.3,68.6,124.6,63.3,132.5,60.3z"/>
		<path fill="#A9BFC4" d="M143.8,62.5l0-0.4l8.9-5c0.5,1.2,1.7,2,3,2.3c4.9,1.3,22.7,7.7,24.8,13.4c1.5,4,1.3,5.9,1.3,5.9
			c0,2.9-0.2,5.3-3.4,5.3h-34.6V62.5z"/>
		<linearGradient id="SVGID_3_" gradientUnits="userSpaceOnUse" x1="136.4986" y1="71.4987" x2="150.2283" y2="72.9396">
			<stop  offset="0" style="stop-color:#E6E6E6"/>
			<stop  offset="1" style="stop-color:#C9C9C9"/>
		</linearGradient>
		<polygon fill="url(#SVGID_3_)" points="143.8,61.4 132.4,63.6 139.3,84.1 148.8,84.1 154.9,66 153.6,61 		"/>
		<polygon fill="#2B3438" points="141.5,70.9 138.4,84.1 150.1,84.1 146.2,70.9 		"/>
		<polygon fill="#172023" points="143.9,84.1 150.1,84.1 146.2,70.9 143.9,70.9 		"/>
		<path fill="#2B3438" d="M147.9,70c-0.3,1.3-1.5,2.3-2.8,2.3h-2.6c-1.3,0-2.5-1-2.8-2.3l-0.9-4.5c-0.3-1.3,0.6-2.3,1.9-2.3h6.2
			c1.3,0,2.1,1,1.9,2.3L147.9,70z"/>
		<linearGradient id="SVGID_4_" gradientUnits="userSpaceOnUse" x1="143.9589" y1="63.4036" x2="155.9963" y2="63.4036">
			<stop  offset="0" style="stop-color:#E6E6E6"/>
			<stop  offset="1" style="stop-color:#DBDBDB"/>
		</linearGradient>
		<polygon fill="url(#SVGID_4_)" points="153,56.8 144,61.4 149.8,70.1 156,59.5 		"/>
		<polygon fill="#FFFFFF" points="143.8,61.4 138.1,70.2 131.7,60.6 135.1,56.9 		"/>
		<path opacity="0.4" fill="#7A7A7A" d="M152,52.8c0,0-3.5,2.7-7.8,2.7c-2.4,0-5.4-1.2-5.4-1.2l6.4,6.5l7.5-3.9
			C152.6,56.9,151.8,53.8,152,52.8z"/>
		<polygon fill="#8DA6AA" points="155,58.6 147.2,84.1 153.1,84.1 158,74.4 154.3,71.4 159.3,71.5 159.8,60.6 		"/>
		<polygon fill="#8DA6AA" points="132.9,59.3 140.8,84.1 134,84.1 128.8,74.3 133.3,70.8 127.5,71.4 128.5,61.7 		"/>
		<path fill="#3B2314" d="M136.2,19.7c0,0,5.4,3.2,16.5,0.3c1.9,0.2,6.2,2,5.3,6c-0.4,1.8,1.4,6.7,1.4,6.7s1.7-1.7,2.4-1.7
			c0.1-1.5,0.5-9.5-5.4-15.7c0.2-0.2-1.4-3.2-4.7-2.9c-0.6-0.8-1.5-2.3-4.9-2.6c-3.4-0.3-10.4,2-12.1,3.4c-1.2,0.4-9.1,5.1-8.3,17.8
			c0.1,0,2.2,1.3,2.2,1.3s2-3.6,2.3-5.7C130.2,24.1,131.8,19,136.2,19.7z"/>
	</g>
	<g>
		<path fill="#FADAB7" d="M44.8,86.5c2.1-7.8,19.9-13.7,30.5-17.7c3.4-1.3,4.4-7,4.5-11.3c-1.5-1.1-2.9-2.7-4.2-4.7
			c-1.9-2.9-3.8-5.2-5.4-9c-1-0.1-2.1-0.9-2.7-1.9c-2.3-3.9-3.5-10.1-2.8-12c0.4-1.1,1.6-1.3,2.6-1.4C66.8,14.5,73.6,6.2,82.3,3
			c1.9-0.8,1.7-0.9,6.2-2c2.5-0.6,6-0.7,7.2-0.5c1.1,0.2,5.2,2.5,4.6,3.9c0,0,5.5-1.5,6.7,2.9c0.2,0.2,0.4,0,0.1,0.3
			c3.5,2.6,8.1,10.7,7.7,21c1,0,2.4,0.2,2.8,1.4c0.8,2-0.4,8.1-2.8,12c-0.6,1.1-1.9,1.8-2.9,1.9c-1.5,3.8-3.3,6-5.3,9
			c-1.5,2.2-3,3.8-4.7,4.9c0.1,3.9,1,8.2,4.6,9.2c6.5,1.8,28.4,9.4,31.3,18.5c1.8,5.4,2,7.4,2,7.4c0,3.9-1.6,7.2-5.8,7.2h-86
			c-4.2,0-4.6-2.8-4.6-6.7C43.4,91.5,43.2,92.2,44.8,86.5z"/>
		<path fill="#BFD1D6" d="M75.5,68.1c1.5-0.5,2.4-1.8,3.1-3.4l12.2,5l12.3-6.2c0.7,1.7,1.8,3,3.5,3.4c6.5,1.8,28.9,9.6,31.9,18.6
			c1.8,5.4,1.8,7.1,1.8,7.1c0,3.9,1.3,7.4-2.9,7.4h-92c-4.2,0-3.7-4.9-3.6-7.1c0.1-1.8,0.6-4.1,1.6-7.2C45.7,79.2,64.9,72,75.5,68.1
			z"/>
		<path fill="#A9BFC4" d="M90.7,71l0-0.5l12-6.8c0.7,1.7,2.3,2.7,4.1,3.1c6.5,1.8,30.5,10.3,33.3,18c2,5.3,1.7,8,1.7,8
			c0,3.9-0.3,7.2-4.5,7.2H90.7V71z"/>
		<linearGradient id="SVGID_5_" gradientUnits="userSpaceOnUse" x1="80.864" y1="83.0777" x2="99.305" y2="85.0131">
			<stop  offset="0" style="stop-color:#E6E6E6"/>
			<stop  offset="1" style="stop-color:#C9C9C9"/>
		</linearGradient>
		<polygon fill="url(#SVGID_5_)" points="90.7,69.6 75.4,72.5 84.6,100 97.4,100 105.6,75.7 103.9,69 		"/>
		<polygon fill="#2B3438" points="87.6,82.3 83.4,100 99.1,100 93.9,82.3 		"/>
		<polygon fill="#172023" points="90.8,100 99.1,100 93.9,82.3 90.8,82.3 		"/>
		<path fill="#2B3438" d="M96.2,81.1c-0.3,1.7-2,3.1-3.7,3.1H89c-1.7,0-3.4-1.4-3.7-3.1l-1.2-6c-0.3-1.7,0.8-3.1,2.5-3.1h8.3
			c1.7,0,2.9,1.4,2.5,3.1L96.2,81.1z"/>
		<linearGradient id="SVGID_6_" gradientUnits="userSpaceOnUse" x1="90.8843" y1="72.205" x2="107.0528" y2="72.205">
			<stop  offset="0" style="stop-color:#E6E6E6"/>
			<stop  offset="1" style="stop-color:#DBDBDB"/>
		</linearGradient>
		<polygon fill="url(#SVGID_6_)" points="103,63.3 90.9,69.5 98.7,81.1 107.1,67 		"/>
		<polygon fill="#FFFFFF" points="90.7,69.6 83,81.4 74.4,68.5 79,63.5 		"/>
		<path opacity="0.4" fill="#7A7A7A" d="M101.7,57.9c0,0-4.8,3.7-10.5,3.7c-3.3,0-7.2-1.6-7.2-1.6l8.5,8.7l10-5.2
			C102.5,63.5,101.4,59.3,101.7,57.9z"/>
		<polygon fill="#8DA6AA" points="105.7,65.7 95.2,100 103.1,100 109.7,86.9 104.8,82.9 111.5,83.1 112.2,68.5 		"/>
		<polygon fill="#8DA6AA" points="76,66.6 86.6,100 77.5,100 70.5,86.8 76.5,82.2 68.8,83 70.1,69.9 		"/>
		<path fill="#3B2314" d="M80.5,13.5c0,0,7.2,4.4,22.2,0.4c2.6,0.2,8.4,2.7,7.1,8c-0.6,2.4,1.9,9,1.9,9s2.3-2.2,3.2-2.2
			c0.1-2,0.7-12.7-7.2-21.1c0.2-0.2-1.8-4.3-6.3-3.9c-0.8-1.1-2-3.1-6.6-3.5c-4.6-0.4-13.9,2.7-16.3,4.6
			c-1.7,0.5-12.3,6.9-11.2,23.9c0.1,0,2.9,1.8,2.9,1.8s2.7-4.8,3.1-7.7C72.3,19.4,74.6,12.5,80.5,13.5z"/>
	</g>
</g>
</svg>
