<?xml version="1.0" encoding="utf-8"?>
<!-- Generator: Adobe Illustrator 18.0.0, SVG Export Plug-In . SVG Version: 6.00 Build 0)  -->
<!DOCTYPE svg PUBLIC "-//W3C//DTD SVG 1.1//EN" "http://www.w3.org/Graphics/SVG/1.1/DTD/svg11.dtd">
<svg version="1.1" id="Layer_1" xmlns="http://www.w3.org/2000/svg" xmlns:xlink="http://www.w3.org/1999/xlink" x="0px" y="0px"
	 viewBox="0 0 100 100" enable-background="new 0 0 100 100" xml:space="preserve">
<g>
	<linearGradient id="SVGID_1_" gradientUnits="userSpaceOnUse" x1="2.8292" y1="64.9976" x2="97.9103" y2="64.9976">
		<stop  offset="0" style="stop-color:#E6E6E6"/>
		<stop  offset="1" style="stop-color:#DBDBDB"/>
	</linearGradient>
	<path fill="url(#SVGID_1_)" d="M95.8,30h-8.4H12.2H4.9c-1.1,0-2.1,0.9-2.1,2.1v8.4v49.1c0,5.7,4.7,10.4,10.4,10.4h74.2
		c5.7,0,10.4-4.7,10.4-10.4V40.4v-8.4C97.9,30.9,97,30,95.8,30z"/>
	<rect x="2.8" y="43.5" fill="#AEB8B7" width="95.1" height="4.2"/>
	<g>
		<linearGradient id="SVGID_2_" gradientUnits="userSpaceOnUse" x1="48.9747" y1="26.8783" x2="51.5386" y2="46.0489">
			<stop  offset="0" style="stop-color:#E6E6E6"/>
			<stop  offset="1" style="stop-color:#DBDBDB"/>
		</linearGradient>
		<path fill="url(#SVGID_2_)" d="M100,40.4c0,2.3-1.9,4.2-4.2,4.2H4.9c-2.3,0-4.2-1.9-4.2-4.2v-6.3c0-2.3,1.9-4.2,4.2-4.2h90.9
			c2.3,0,4.2,1.9,4.2,4.2V40.4z"/>
		<polygon fill="#43627D" points="23.7,44.6 38.4,44.6 50.9,30 36.3,30 		"/>
		<path fill="#43627D" d="M4.9,30c-2.3,0-4.2,1.9-4.2,4.2v6.3c0,2.3,1.9,4.2,4.2,4.2h3.2L20.6,30H4.9z"/>
		<polygon fill="#43627D" points="54,44.6 68.7,44.6 81.2,30 66.6,30 		"/>
		<path fill="#43627D" d="M100,40.4v-6.3c0-2-1.4-3.6-3.2-4.1L84.3,44.6h11.5C98.1,44.6,100,42.7,100,40.4z"/>
	</g>
	<g>
		
			<linearGradient id="SVGID_3_" gradientUnits="userSpaceOnUse" x1="72.677" y1="299.4424" x2="75.241" y2="318.6133" gradientTransform="matrix(0.9866 -0.1629 -0.1629 -0.9866 26.9329 332.6783)">
			<stop  offset="0" style="stop-color:#E6E6E6"/>
			<stop  offset="1" style="stop-color:#DBDBDB"/>
		</linearGradient>
		<path fill="url(#SVGID_3_)" d="M98,3.7c-0.4-2.3-2.5-3.8-4.8-3.4L3.5,15.1c-2.3,0.4-3.8,2.5-3.4,4.8l1,6.2
			c0.4,2.3,2.5,3.8,4.8,3.4l89.7-14.8c2.3-0.4,3.8-2.5,3.4-4.8L98,3.7z"/>
		<polygon fill="#43627D" points="22.1,12 36.5,9.6 51.2,22 36.8,24.4 		"/>
		<path fill="#43627D" d="M5.9,29.5c-2.3,0.4-4.4-1.2-4.8-3.4l-1-6.2c-0.4-2.3,1.2-4.4,3.4-4.8l3.2-0.5L21.3,27L5.9,29.5z"/>
		<polygon fill="#43627D" points="52,7.1 66.4,4.7 81.1,17.1 66.7,19.5 		"/>
		<path fill="#43627D" d="M98,3.7l1,6.2c0.3,1.9-0.8,3.8-2.5,4.5L81.8,2.1l11.3-1.9C95.5-0.1,97.6,1.4,98,3.7z"/>
	</g>
	<g>
		<path fill="#3A556C" d="M2.8,21.6c0-2.9,1.7-3.6,3.8-1.7l20.5,19c2.1,2,1.5,3.5-1.4,3.5H8.1c-2.9,0-5.2-2.4-5.2-5.2V21.6z"/>
		<linearGradient id="SVGID_4_" gradientUnits="userSpaceOnUse" x1="4.9189" y1="25.8158" x2="9.0983" y2="25.8158">
			<stop  offset="0" style="stop-color:#E6E6E6"/>
			<stop  offset="1" style="stop-color:#DBDBDB"/>
		</linearGradient>
		<circle fill="url(#SVGID_4_)" cx="7" cy="25.8" r="2.1"/>
		<linearGradient id="SVGID_5_" gradientUnits="userSpaceOnUse" x1="4.9189" y1="38.354" x2="9.0983" y2="38.354">
			<stop  offset="0" style="stop-color:#E6E6E6"/>
			<stop  offset="1" style="stop-color:#DBDBDB"/>
		</linearGradient>
		<circle fill="url(#SVGID_5_)" cx="7" cy="38.4" r="2.1"/>
		<linearGradient id="SVGID_6_" gradientUnits="userSpaceOnUse" x1="18.5019" y1="38.354" x2="22.6813" y2="38.354">
			<stop  offset="0" style="stop-color:#E6E6E6"/>
			<stop  offset="1" style="stop-color:#DBDBDB"/>
		</linearGradient>
		<circle fill="url(#SVGID_6_)" cx="20.6" cy="38.4" r="2.1"/>
	</g>
	<path opacity="0.4" fill="#7A7A7A" d="M37,87.2L53,100h36.6c0,0,8.4-3.1,8.4-9.4c0-6.3,0-6.3,0-6.3L64.2,56.1L37,87.2z"/>
	<g>
		<circle fill="#3A556C" cx="50.9" cy="71.8" r="20.9"/>
		<linearGradient id="SVGID_7_" gradientUnits="userSpaceOnUse" x1="40.9142" y1="60.7928" x2="60.1916" y2="82.0373">
			<stop  offset="0" style="stop-color:#F7F7F7"/>
			<stop  offset="1" style="stop-color:#EBEBEB"/>
		</linearGradient>
		<circle fill="url(#SVGID_7_)" cx="50.9" cy="71.8" r="16.1"/>
		<path fill="#66AE4E" d="M48.3,63.1c-1.4-1-2.6-0.4-2.6,1.3v14.6c0,1.7,1.2,2.3,2.6,1.4l10-6.8c1.4-1,1.4-2.6,0-3.5L48.3,63.1z"/>
	</g>
</g>
</svg>
