<?xml version="1.0" encoding="utf-8"?>
<!-- Generator: Adobe Illustrator 18.0.0, SVG Export Plug-In . SVG Version: 6.00 Build 0)  -->
<!DOCTYPE svg PUBLIC "-//W3C//DTD SVG 1.1//EN" "http://www.w3.org/Graphics/SVG/1.1/DTD/svg11.dtd">
<svg version="1.1" id="Layer_1" xmlns="http://www.w3.org/2000/svg" xmlns:xlink="http://www.w3.org/1999/xlink" x="0px" y="0px"
	 viewBox="0 0 103.9 100" enable-background="new 0 0 103.9 100" xml:space="preserve">
<g>
	<g>
		<polygon fill="#FFFFFF" points="11.4,83.2 3.5,83.2 3.5,75.1 0,75.1 0,95 3.5,95 3.5,86.5 11.4,86.5 11.4,95.2 15,95.2 15,75.3 
			11.4,75.3 		"/>
		<path fill="#FFFFFF" d="M26.8,89.4c0,0-0.4,2.5-3.1,2.5c-2.7,0-3.2-2.8-3.2-2.8v-9.1h-3.4V90c0,0,1.6,5.2,6.4,5.2
			c4.8,0,6.7-4.2,6.7-5.7c0-1.6,0-9.5,0-9.5h-3.4V89.4z"/>
		<path fill="#FFFFFF" d="M39.6,80.1c-1.4,0-2.7,0.4-3.8,1v-5.7h-3.7v11C32,86.8,32,87.2,32,87.6c0,4.2,3.4,7.6,7.6,7.6
			c4.2,0,7.6-3.4,7.6-7.6C47.1,83.5,43.7,80.1,39.6,80.1z M39.6,91.5c-2.1,0-3.9-1.7-3.9-3.9c0-2.1,1.7-3.9,3.9-3.9
			c2.1,0,3.9,1.7,3.9,3.9C43.4,89.8,41.7,91.5,39.6,91.5z"/>
		<path fill="#FFFFFF" d="M77.2,87.7c0-4.2-3.4-7.6-7.6-7.6s-7.6,3.4-7.6,7.6c0,0.4,0,0.9,0.1,1.3v11h3.7v-5.7c1.1,0.6,2.4,1,3.8,1
			C73.8,95.3,77.2,91.9,77.2,87.7z M69.6,91.6c-2.1,0-3.9-1.7-3.9-3.9s1.7-3.9,3.9-3.9c2.1,0,3.9,1.7,3.9,3.9S71.8,91.6,69.6,91.6z"
			/>
		<path fill="#65AE4C" d="M88,79.9l0-3.1c1.2-0.4,2.1-1.5,2.1-2.8c0-1.6-1.3-2.9-2.9-2.9c-1.6,0-2.9,1.3-2.9,2.9
			c0,1.3,0.8,2.4,2,2.8l0,3.1c-1.3,0.1-2.6,0.6-3.6,1.4L73,73.7c0-0.1,0-0.3,0-0.4c0-1.7-1.4-3.1-3.1-3.1c-1.7,0-3.1,1.4-3.1,3.1
			c0,1.7,1.4,3.1,3.1,3.1c0.5,0,1-0.1,1.5-0.4l9.2,7.2c-0.8,1.2-1.3,2.6-1.3,4.2c0,1.6,0.5,3.1,1.3,4.3l-2.6,2.9
			c-0.3-0.1-0.6-0.2-0.9-0.2c-1.4,0-2.5,1.1-2.5,2.5c0,1.4,1.1,2.5,2.5,2.5c1.4,0,2.5-1.1,2.5-2.5c0-0.3,0-0.5-0.1-0.8l2.5-2.9
			c1.3,1.1,3,1.8,4.9,1.8c4.2,0,7.6-3.4,7.6-7.6C94.6,83.5,91.7,80.3,88,79.9z M87,91.4c-2.2,0-3.9-1.8-3.9-3.9
			c0-2.2,1.8-3.9,3.9-3.9c2.2,0,3.9,1.8,3.9,3.9C90.9,89.6,89.2,91.4,87,91.4z"/>
		<path fill="#FFFFFF" d="M56.1,83.6c-2.4-1-4.2-1.4-4.2-3.5c0-2.1,3.7-2.4,5.8,0.4l2.3-3.1c0,0-2.6-2.2-5.3-2.1
			c-2.7,0.1-6.7,1.7-6.5,5.5c0.2,3.8,1.6,4.3,4.2,5.4c2.6,1.1,4.2,1.3,3.9,3.5c-0.3,2.3-2.2,2.5-3.5,2c-1.3-0.5-2.3-2.3-2.3-2.3
			l-2.6,2.8c0,0,2.1,3.1,6.1,2.8c4-0.2,6.3-2.7,6.2-5.7C60.2,86.2,58.5,84.6,56.1,83.6z"/>
		<path fill="#FFFFFF" d="M100.4,90.9c-0.6-2.1-0.2-6.9-0.2-6.9h3.2v-3.2h-3.3v-3.9l-3.5,1.9v13.1c0,0,0.3,2.4,2.7,3.1
			c2.4,0.8,3.8,0,3.8,0l0.8-2.8C103.9,92.2,101,92.9,100.4,90.9z"/>
	</g>
	<circle fill="#65AE4C" cx="52.4" cy="29.2" r="29.2"/>
	<g>
		<path fill="#FFFFFF" d="M58.5,21.8H41.2c-2.2,0-4.1,1.8-4.1,4.1v9.8c0,2.2,1.8,4.1,4.1,4.1h5.5l3,5.2l3.6-5.2h5.3
			c2.2,0,4.1-1.8,4.1-4.1v-9.8C62.6,23.6,60.8,21.8,58.5,21.8z"/>
		<path fill="#FFFFFF" d="M62.9,16.9c0,0-9.4,0-15,0s-5.2,3.2-5.2,3.2s10.8,0,16,0c5.2,0,5.5,2.4,5.5,4s0,11.4,0,11.4h0.7
			c1.3-0.4,1.8-2.3,1.8-2.3s0-9,0-12.8S62.9,16.9,62.9,16.9z"/>
	</g>
</g>
</svg>
