<?xml version="1.0" encoding="utf-8"?>
<!-- Generator: Adobe Illustrator 22.0.1, SVG Export Plug-In . SVG Version: 6.00 Build 0)  -->
<svg version="1.1" id="Layer_1" xmlns="http://www.w3.org/2000/svg" xmlns:xlink="http://www.w3.org/1999/xlink" x="0px" y="0px"
	 viewBox="0 0 190.3 93.9" style="enable-background:new 0 0 190.3 93.9;" xml:space="preserve">
<style type="text/css">
	.st0{fill:#DDDDDD;}
	.st1{clip-path:url(#SVGID_2_);fill:#DDDDDD;}
	.st2{clip-path:url(#SVGID_4_);fill:#DDDDDD;}
	.st3{clip-path:url(#SVGID_6_);fill:#DDDDDD;}
	.st4{fill:#66AE4E;}
</style>
<g id="XMLID_18_">
	<g>
		<polygon id="XMLID_31_" class="st0" points="143.3,18.1 173.1,19 143.3,19.9 		"/>
	</g>
</g>
<g id="XMLID_16_">
	<g>
		<polygon id="XMLID_29_" class="st0" points="160.5,41.3 190.3,42.2 160.5,43.1 		"/>
	</g>
</g>
<g id="XMLID_14_">
	<g>
		<polygon id="XMLID_28_" class="st0" points="152.6,29.1 186,30 152.6,30.9 		"/>
	</g>
</g>
<g id="XMLID_10_">
	<g>
		<g id="XMLID_45_">
			<g>
				<path id="XMLID_46_" class="st0" d="M120.4,11.2c-6.7-3.9-14.2-6.9-22-8.8c-7.8-1.9-16-2.6-24-2.1S58.6,2.5,51.3,5.2
					c-7.3,2.7-14,6.4-19.8,10.7c-1.5,1.1-2.9,2.2-4.2,3.4c-1.4,1.1-2.7,2.4-3.9,3.5c-0.3,0.3-0.6,0.6-0.9,0.9L22,24.2l-0.4,0.5
					c-0.3,0.3-0.6,0.6-0.9,0.9s-0.6,0.6-0.8,0.9L19.4,27L19,27.4c-0.3,0.3-0.6,0.6-0.8,1c-0.3,0.3-0.5,0.6-0.8,1
					c-0.1,0.2-0.3,0.3-0.4,0.5c-0.1,0.2-0.3,0.3-0.4,0.5c-0.3,0.3-0.5,0.6-0.8,1c-0.2,0.3-0.5,0.7-0.7,1c-0.1,0.2-0.2,0.3-0.4,0.5
					c-0.1,0.2-0.2,0.3-0.3,0.5c-0.2,0.3-0.5,0.7-0.7,1c-0.9,1.3-1.8,2.6-2.5,3.9c-1.6,2.6-3,5.2-4.1,7.8C4.8,51,3.2,55.9,2.2,60.3
					c-0.5,2.2-0.9,4.3-1.2,6.2C1,67,0.9,67.5,0.8,68c0,0.2-0.1,0.5-0.1,0.7c0,0.2,0,0.4-0.1,0.7c0,0.4-0.1,0.9-0.1,1.3
					c0,0.4-0.1,0.8-0.1,1.2c-0.2,3.2-0.2,5.7-0.1,7.4c0,0.8,0.1,1.5,0.1,2c0,0.4,0,0.7,0,0.7s0-0.2,0-0.7c0-0.4,0.1-1.1,0.2-1.9
					c0.2-1.7,0.5-4.2,1.1-7.3c0.1-0.4,0.2-0.8,0.3-1.2c0.1-0.4,0.2-0.8,0.3-1.3c0-0.2,0.1-0.4,0.1-0.6c0.1-0.2,0.1-0.4,0.2-0.7
					c0.1-0.4,0.2-0.9,0.4-1.3c0.5-1.8,1.1-3.8,1.9-5.8c1.5-4.1,3.6-8.5,6.4-13c1.4-2.2,3-4.5,4.7-6.7c0.9-1.1,1.8-2.2,2.8-3.3
					c0.3-0.3,0.5-0.5,0.7-0.8l0.4-0.4l0.4-0.4c0.3-0.3,0.5-0.5,0.8-0.8c0.3-0.3,0.5-0.5,0.8-0.8l0.4-0.4l0.4-0.4
					c0.3-0.3,0.6-0.5,0.8-0.8c0.3-0.3,0.6-0.5,0.8-0.8l0.4-0.4l0.4-0.4c0.3-0.3,0.6-0.5,0.9-0.7c0.3-0.2,0.6-0.5,0.9-0.7l0.4-0.4
					l0.5-0.4c0.3-0.2,0.6-0.5,0.9-0.7c1.3-0.9,2.5-1.8,3.8-2.7c1.3-0.8,2.7-1.7,4.1-2.5c5.6-3.1,11.7-5.5,18.2-7
					c6.4-1.4,13.1-2,19.6-1.5c6.6,0.5,12.9,1.9,18.8,4.2c4.7,1.8,9.1,4.1,13,6.8l17.2-13.3C122.5,12.5,121.5,11.8,120.4,11.2z"/>
			</g>
			<g>
				<defs>
					<path id="SVGID_1_" d="M120.4,11.2c-6.7-3.9-14.2-6.9-22-8.8c-7.8-1.9-16-2.6-24-2.1S58.6,2.5,51.3,5.2
						c-7.3,2.7-14,6.4-19.8,10.7c-1.5,1.1-2.9,2.2-4.2,3.4c-1.4,1.1-2.7,2.4-3.9,3.5c-0.3,0.3-0.6,0.6-0.9,0.9L22,24.2l-0.4,0.5
						c-0.3,0.3-0.6,0.6-0.9,0.9s-0.6,0.6-0.8,0.9L19.4,27L19,27.4c-0.3,0.3-0.6,0.6-0.8,1c-0.3,0.3-0.5,0.6-0.8,1
						c-0.1,0.2-0.3,0.3-0.4,0.5c-0.1,0.2-0.3,0.3-0.4,0.5c-0.3,0.3-0.5,0.6-0.8,1c-0.2,0.3-0.5,0.7-0.7,1c-0.1,0.2-0.2,0.3-0.4,0.5
						c-0.1,0.2-0.2,0.3-0.3,0.5c-0.2,0.3-0.5,0.7-0.7,1c-0.9,1.3-1.8,2.6-2.5,3.9c-1.6,2.6-3,5.2-4.1,7.8C4.8,51,3.2,55.9,2.2,60.3
						c-0.5,2.2-0.9,4.3-1.2,6.2C1,67,0.9,67.5,0.8,68c0,0.2-0.1,0.5-0.1,0.7c0,0.2,0,0.4-0.1,0.7c0,0.4-0.1,0.9-0.1,1.3
						c0,0.4-0.1,0.8-0.1,1.2c-0.2,3.2-0.2,5.7-0.1,7.4c0,0.8,0.1,1.5,0.1,2c0,0.4,0,0.7,0,0.7s0-0.2,0-0.7c0-0.4,0.1-1.1,0.2-1.9
						c0.2-1.7,0.5-4.2,1.1-7.3c0.1-0.4,0.2-0.8,0.3-1.2c0.1-0.4,0.2-0.8,0.3-1.3c0-0.2,0.1-0.4,0.1-0.6c0.1-0.2,0.1-0.4,0.2-0.7
						c0.1-0.4,0.2-0.9,0.4-1.3c0.5-1.8,1.1-3.8,1.9-5.8c1.5-4.1,3.6-8.5,6.4-13c1.4-2.2,3-4.5,4.7-6.7c0.9-1.1,1.8-2.2,2.8-3.3
						c0.3-0.3,0.5-0.5,0.7-0.8l0.4-0.4l0.4-0.4c0.3-0.3,0.5-0.5,0.8-0.8c0.3-0.3,0.5-0.5,0.8-0.8l0.4-0.4l0.4-0.4
						c0.3-0.3,0.6-0.5,0.8-0.8c0.3-0.3,0.6-0.5,0.8-0.8l0.4-0.4l0.4-0.4c0.3-0.3,0.6-0.5,0.9-0.7c0.3-0.2,0.6-0.5,0.9-0.7l0.4-0.4
						l0.5-0.4c0.3-0.2,0.6-0.5,0.9-0.7c1.3-0.9,2.5-1.8,3.8-2.7c1.3-0.8,2.7-1.7,4.1-2.5c5.6-3.1,11.7-5.5,18.2-7
						c6.4-1.4,13.1-2,19.6-1.5c6.6,0.5,12.9,1.9,18.8,4.2c4.7,1.8,9.1,4.1,13,6.8l17.2-13.3C122.5,12.5,121.5,11.8,120.4,11.2z"/>
				</defs>
				<clipPath id="SVGID_2_">
					<use xlink:href="#SVGID_1_"  style="overflow:visible;"/>
				</clipPath>
				<polygon id="XMLID_47_" class="st1" points="0.2,23.2 64.8,-0.1 123.5,-0.1 123.5,37.7 1.4,81.9 0.2,81.9 				"/>
			</g>
		</g>
	</g>
</g>
<g id="XMLID_5_">
	<g>
		<g id="XMLID_53_">
			<g>
				<path id="XMLID_54_" class="st0" d="M133.6,78.8c0,0,0,0.1,0,0.1c0,0.1,0,0.2,0,0.3c0,0.2,0,0.3,0,0.5c-0.1,1.6-0.1,2.4-0.1,2.4
					l30.1-0.4c0,0-0.1-1-0.2-2.8c0-0.3,0-0.6-0.1-0.9c0-0.1,0-0.3,0-0.5c0-0.1,0-0.2,0-0.2c0-0.1,0-0.1,0-0.2
					c-0.1-0.6-0.1-1.3-0.2-2c-0.1-0.7-0.2-1.5-0.3-2.4c-0.1-0.4-0.1-0.8-0.2-1.3c0-0.2-0.1-0.4-0.1-0.7c0-0.2-0.1-0.5-0.1-0.7
					c-0.1-0.5-0.2-1-0.3-1.4c-0.1-0.5-0.2-1-0.3-1.5c-0.1-0.3-0.1-0.5-0.2-0.8c-0.1-0.3-0.1-0.5-0.2-0.8c-0.1-0.5-0.3-1.1-0.4-1.6
					c-0.6-2.2-1.3-4.6-2.2-7c-1.8-5-4.2-10.4-7.5-15.8c-1.7-2.7-3.5-5.5-5.7-8.2c-1-1.4-2.2-2.7-3.3-4c-0.3-0.3-0.6-0.7-0.9-1
					c-0.1-0.2-0.3-0.3-0.4-0.5c-0.1-0.2-0.3-0.3-0.5-0.5c-0.3-0.3-0.6-0.7-0.9-1s-0.6-0.6-1-1c-0.2-0.2-0.3-0.3-0.5-0.5
					c-0.2-0.1-0.3-0.3-0.5-0.5c-0.3-0.3-0.7-0.6-1-1s-0.7-0.6-1-0.9c-0.2-0.1-0.3-0.3-0.5-0.5s-0.3-0.3-0.5-0.5
					c-0.3-0.3-0.7-0.6-1-0.9c-0.4-0.3-0.7-0.6-1.1-0.9c-0.2-0.1-0.4-0.3-0.5-0.4c-0.2-0.1-0.4-0.3-0.6-0.4c-0.4-0.3-0.7-0.6-1.1-0.9
					c-0.4-0.3-0.7-0.5-1.1-0.8l-11.9,18.9l0.1,0.1c0.2,0.3,0.5,0.5,0.7,0.8c0.2,0.3,0.4,0.5,0.7,0.8l0.3,0.4l0.3,0.4
					c0.2,0.3,0.4,0.5,0.7,0.8c0.2,0.3,0.4,0.5,0.6,0.8l0.3,0.4l0.3,0.4c0.2,0.3,0.4,0.5,0.6,0.8c0.2,0.3,0.4,0.5,0.6,0.8l0.3,0.4
					l0.3,0.4c0.2,0.3,0.4,0.5,0.6,0.8c0.7,1.1,1.4,2.1,2,3.2c1.3,2.1,2.3,4.2,3.2,6.3c1.8,4.2,3,8.1,3.8,11.6c0.4,1.8,0.7,3.4,0.8,5
					c0,0.4,0.1,0.8,0.1,1.1c0,0.2,0,0.4,0.1,0.6s0,0.4,0,0.5c0,0.4,0.1,0.7,0.1,1s0,0.7,0.1,1c0,0.2,0,0.3,0,0.5s0,0.3,0,0.5
					c0,0.3,0,0.6,0,0.9c0,0.6,0,1.1,0,1.6c0,0.5,0,1,0,1.4C133.6,78.7,133.6,78.8,133.6,78.8z"/>
			</g>
			<g>
				<defs>
					<path id="SVGID_3_" d="M133.6,78.8c0,0,0,0.1,0,0.1c0,0.1,0,0.2,0,0.3c0,0.2,0,0.3,0,0.5c-0.1,1.6-0.1,2.4-0.1,2.4l30.1-0.4
						c0,0-0.1-1-0.2-2.8c0-0.3,0-0.6-0.1-0.9c0-0.1,0-0.3,0-0.5c0-0.1,0-0.2,0-0.2c0-0.1,0-0.1,0-0.2c-0.1-0.6-0.1-1.3-0.2-2
						c-0.1-0.7-0.2-1.5-0.3-2.4c-0.1-0.4-0.1-0.8-0.2-1.3c0-0.2-0.1-0.4-0.1-0.7c0-0.2-0.1-0.5-0.1-0.7c-0.1-0.5-0.2-1-0.3-1.4
						c-0.1-0.5-0.2-1-0.3-1.5c-0.1-0.3-0.1-0.5-0.2-0.8c-0.1-0.3-0.1-0.5-0.2-0.8c-0.1-0.5-0.3-1.1-0.4-1.6c-0.6-2.2-1.3-4.6-2.2-7
						c-1.8-5-4.2-10.4-7.5-15.8c-1.7-2.7-3.5-5.5-5.7-8.2c-1-1.4-2.2-2.7-3.3-4c-0.3-0.3-0.6-0.7-0.9-1c-0.1-0.2-0.3-0.3-0.4-0.5
						c-0.1-0.2-0.3-0.3-0.5-0.5c-0.3-0.3-0.6-0.7-0.9-1s-0.6-0.6-1-1c-0.2-0.2-0.3-0.3-0.5-0.5c-0.2-0.1-0.3-0.3-0.5-0.5
						c-0.3-0.3-0.7-0.6-1-1s-0.7-0.6-1-0.9c-0.2-0.1-0.3-0.3-0.5-0.5s-0.3-0.3-0.5-0.5c-0.3-0.3-0.7-0.6-1-0.9
						c-0.4-0.3-0.7-0.6-1.1-0.9c-0.2-0.1-0.4-0.3-0.5-0.4c-0.2-0.1-0.4-0.3-0.6-0.4c-0.4-0.3-0.7-0.6-1.1-0.9
						c-0.4-0.3-0.7-0.5-1.1-0.8l-11.9,18.9l0.1,0.1c0.2,0.3,0.5,0.5,0.7,0.8c0.2,0.3,0.4,0.5,0.7,0.8l0.3,0.4l0.3,0.4
						c0.2,0.3,0.4,0.5,0.7,0.8c0.2,0.3,0.4,0.5,0.6,0.8l0.3,0.4l0.3,0.4c0.2,0.3,0.4,0.5,0.6,0.8c0.2,0.3,0.4,0.5,0.6,0.8l0.3,0.4
						l0.3,0.4c0.2,0.3,0.4,0.5,0.6,0.8c0.7,1.1,1.4,2.1,2,3.2c1.3,2.1,2.3,4.2,3.2,6.3c1.8,4.2,3,8.1,3.8,11.6
						c0.4,1.8,0.7,3.4,0.8,5c0,0.4,0.1,0.8,0.1,1.1c0,0.2,0,0.4,0.1,0.6s0,0.4,0,0.5c0,0.4,0.1,0.7,0.1,1s0,0.7,0.1,1
						c0,0.2,0,0.3,0,0.5s0,0.3,0,0.5c0,0.3,0,0.6,0,0.9c0,0.6,0,1.1,0,1.6c0,0.5,0,1,0,1.4C133.6,78.7,133.6,78.8,133.6,78.8z"/>
				</defs>
				<clipPath id="SVGID_4_">
					<use xlink:href="#SVGID_3_"  style="overflow:visible;"/>
				</clipPath>
				<polygon id="XMLID_56_" class="st2" points="117.1,20.8 128,16.8 157.6,16.8 163.5,33.2 163.5,82 163.4,82.1 117.1,82.1 				"/>
			</g>
			<g>
				<defs>
					<path id="SVGID_5_" d="M133.6,78.8c0,0,0,0.1,0,0.1c0,0.1,0,0.2,0,0.3c0,0.2,0,0.3,0,0.5c-0.1,1.6-0.1,2.4-0.1,2.4l30.1-0.4
						c0,0-0.1-1-0.2-2.8c0-0.3,0-0.6-0.1-0.9c0-0.1,0-0.3,0-0.5c0-0.1,0-0.2,0-0.2c0-0.1,0-0.1,0-0.2c-0.1-0.6-0.1-1.3-0.2-2
						c-0.1-0.7-0.2-1.5-0.3-2.4c-0.1-0.4-0.1-0.8-0.2-1.3c0-0.2-0.1-0.4-0.1-0.7c0-0.2-0.1-0.5-0.1-0.7c-0.1-0.5-0.2-1-0.3-1.4
						c-0.1-0.5-0.2-1-0.3-1.5c-0.1-0.3-0.1-0.5-0.2-0.8c-0.1-0.3-0.1-0.5-0.2-0.8c-0.1-0.5-0.3-1.1-0.4-1.6c-0.6-2.2-1.3-4.6-2.2-7
						c-1.8-5-4.2-10.4-7.5-15.8c-1.7-2.7-3.5-5.5-5.7-8.2c-1-1.4-2.2-2.7-3.3-4c-0.3-0.3-0.6-0.7-0.9-1c-0.1-0.2-0.3-0.3-0.4-0.5
						c-0.1-0.2-0.3-0.3-0.5-0.5c-0.3-0.3-0.6-0.7-0.9-1s-0.6-0.6-1-1c-0.2-0.2-0.3-0.3-0.5-0.5c-0.2-0.1-0.3-0.3-0.5-0.5
						c-0.3-0.3-0.7-0.6-1-1s-0.7-0.6-1-0.9c-0.2-0.1-0.3-0.3-0.5-0.5s-0.3-0.3-0.5-0.5c-0.3-0.3-0.7-0.6-1-0.9
						c-0.4-0.3-0.7-0.6-1.1-0.9c-0.2-0.1-0.4-0.3-0.5-0.4c-0.2-0.1-0.4-0.3-0.6-0.4c-0.4-0.3-0.7-0.6-1.1-0.9
						c-0.4-0.3-0.7-0.5-1.1-0.8l-11.9,18.9l0.1,0.1c0.2,0.3,0.5,0.5,0.7,0.8c0.2,0.3,0.4,0.5,0.7,0.8l0.3,0.4l0.3,0.4
						c0.2,0.3,0.4,0.5,0.7,0.8c0.2,0.3,0.4,0.5,0.6,0.8l0.3,0.4l0.3,0.4c0.2,0.3,0.4,0.5,0.6,0.8c0.2,0.3,0.4,0.5,0.6,0.8l0.3,0.4
						l0.3,0.4c0.2,0.3,0.4,0.5,0.6,0.8c0.7,1.1,1.4,2.1,2,3.2c1.3,2.1,2.3,4.2,3.2,6.3c1.8,4.2,3,8.1,3.8,11.6
						c0.4,1.8,0.7,3.4,0.8,5c0,0.4,0.1,0.8,0.1,1.1c0,0.2,0,0.4,0.1,0.6s0,0.4,0,0.5c0,0.4,0.1,0.7,0.1,1s0,0.7,0.1,1
						c0,0.2,0,0.3,0,0.5s0,0.3,0,0.5c0,0.3,0,0.6,0,0.9c0,0.6,0,1.1,0,1.6c0,0.5,0,1,0,1.4C133.6,78.7,133.6,78.8,133.6,78.8z"/>
				</defs>
				<clipPath id="SVGID_6_">
					<use xlink:href="#SVGID_5_"  style="overflow:visible;"/>
				</clipPath>
				<polygon id="XMLID_55_" class="st3" points="163.5,33.2 157.6,16.8 163.5,16.8 				"/>
			</g>
		</g>
	</g>
</g>
<g id="XMLID_1_">
	<g>
		<path id="XMLID_42_" class="st4" d="M109.8,28.9L62.6,65.4c-2.1,0.8-4,2.1-5.7,3.9c-0.4,0.4-0.8,0.9-1.1,1.4l-0.3,0.5
			c-3.9,6-3,14,2.4,19c5.4,4.9,13.6,5.1,19.1,0.6l0.5-0.4c0.4-0.4,0.9-0.8,1.3-1.2c1.6-1.8,2.7-3.8,3.3-6L122.6,19L109.8,28.9z
			 M68.3,85.1c-3.6,0-6.6-2.9-6.6-6.6c0-3.6,2.9-6.6,6.6-6.6s6.6,2.9,6.6,6.6C74.9,82.2,71.9,85.1,68.3,85.1z"/>
	</g>
</g>
</svg>
