<?xml version="1.0" encoding="utf-8"?>
<!-- Generator: Adobe Illustrator 22.0.1, SVG Export Plug-In . SVG Version: 6.00 Build 0)  -->
<svg version="1.1" id="Layer_1" xmlns="http://www.w3.org/2000/svg" xmlns:xlink="http://www.w3.org/1999/xlink" x="0px" y="0px"
	 viewBox="0 0 173 112.3" style="enable-background:new 0 0 173 112.3;" xml:space="preserve">
<style type="text/css">
	.st0{fill:#56748D;}
	.st1{fill:#D7E8F7;}
	.st2{fill:#E6F1FF;}
	.st3{fill:#FFFFFF;}
	.st4{fill:#999999;}
	.st5{fill:#A7B5D9;}
	.st6{fill:#CDD5D7;}
	.st7{fill:#234C71;}
	.st8{fill:#A7A9AC;}
	.st9{fill:#66AE4E;}
	.st10{fill:url(#SVGID_1_);}
	.st11{fill:url(#SVGID_2_);}
	.st12{fill:url(#SVGID_3_);}
	.st13{fill:url(#SVGID_4_);}
	.st14{fill:url(#SVGID_5_);}
	.st15{fill:url(#SVGID_6_);}
</style>
<g>
	<g>
		<g>
			<path class="st0" d="M148.5,8.4v71c0,1.1-0.9,1.9-2,1.9H26.6c-1.1,0-2-0.9-2-1.9v-71c0-1.1,0.9-1.9,2-1.9h119.9
				C147.6,6.5,148.5,7.4,148.5,8.4z"/>
		</g>
	</g>
</g>
<path class="st0" d="M171.7,105.9H1.3c-0.7,0-1.2,0.4-1.2,0.9v3.3c0,1.1,1.2,2,2.7,2h167.7c1.5,0,2.7-0.9,2.7-2V107
	C173.1,106.4,172.4,105.9,171.7,105.9z"/>
<g>
	<g>
		<g>
			<path class="st1" d="M170.5,107.8H2.6c-1.4,0-3-0.9-2.4-1.3l23.7-20.6c0.2-0.2,0.6-0.3,1.1-0.3h123.3c0.5,0,0.9,0.1,1.1,0.3
				l23.7,20.6C173.5,107,171.9,107.8,170.5,107.8z"/>
		</g>
	</g>
</g>
<g>
	<g>
		<g>
			<g>
				<path class="st2" d="M38.9,89.1h-6c-0.6,0-1.3,0.2-1.5,0.4l-1.5,1.7c-0.2,0.2,0.2,0.4,0.8,0.4h6.3c0.7,0,1.3-0.2,1.5-0.4
					l1.3-1.7C39.9,89.3,39.5,89.1,38.9,89.1z"/>
			</g>
		</g>
	</g>
	<g>
		<g>
			<g>
				<path class="st2" d="M29.8,101h-7.1c-0.7,0-1.6,0.2-1.8,0.6l-2.2,2.5c-0.3,0.3,0.1,0.6,0.9,0.6H27c0.8,0,1.6-0.3,1.9-0.6
					l1.9-2.5C30.9,101.2,30.5,101,29.8,101z"/>
			</g>
		</g>
	</g>
	<g>
		<g>
			<g>
				<path class="st2" d="M41.7,101h-7.1c-0.7,0-1.5,0.2-1.7,0.6L31,104c-0.2,0.3,0.2,0.6,1,0.6h7.5c0.8,0,1.6-0.3,1.8-0.6l1.5-2.5
					C42.8,101.2,42.4,101,41.7,101z"/>
			</g>
		</g>
	</g>
	<g>
		<g>
			<g>
				<path class="st2" d="M108.8,101h-7.1c-0.7,0-1.3,0.2-1.3,0.6l0.4,2.5c0,0.3,0.7,0.6,1.5,0.6h7.5c0.8,0,1.3-0.3,1.2-0.6l-0.7-2.5
					C110.2,101.2,109.6,101,108.8,101z"/>
			</g>
		</g>
	</g>
	<g>
		<g>
			<g>
				<path class="st2" d="M121,101h-7.1c-0.7,0-1.3,0.2-1.2,0.6l0.8,2.5c0.1,0.3,0.8,0.6,1.6,0.6h7.5c0.8,0,1.3-0.3,1.1-0.6l-1.1-2.5
					C122.5,101.2,121.8,101,121,101z"/>
			</g>
		</g>
	</g>
	<g>
		<g>
			<g>
				<path class="st2" d="M133.2,101h-7.1c-0.7,0-1.2,0.2-1.1,0.6l1.2,2.5c0.2,0.3,0.9,0.6,1.7,0.6h7.5c0.8,0,1.2-0.3,1-0.6l-1.5-2.5
					C134.7,101.2,134,101,133.2,101z"/>
			</g>
		</g>
	</g>
	<g>
		<g>
			<g>
				<path class="st2" d="M153.1,101h-13.9c-1.4,0-2.5,0.2-2.3,0.6l1.6,2.5c0.2,0.3,1.6,0.6,3.1,0.6h14.5c1.5,0,2.5-0.3,2.2-0.6
					l-2.2-2.5C156,101.2,154.6,101,153.1,101z"/>
			</g>
		</g>
	</g>
	<g>
		<g>
			<g>
				<path class="st2" d="M49.9,89.1h-6c-0.6,0-1.3,0.2-1.4,0.4l-1.2,1.7c-0.2,0.2,0.2,0.4,0.9,0.4h6.3c0.7,0,1.3-0.2,1.4-0.4l1-1.7
					C50.9,89.3,50.5,89.1,49.9,89.1z"/>
			</g>
		</g>
	</g>
	<g>
		<g>
			<g>
				<path class="st2" d="M50.9,92.4h-6.4c-0.7,0-1.3,0.2-1.5,0.4l-1.3,2c-0.2,0.3,0.2,0.5,0.9,0.5h6.7c0.7,0,1.4-0.2,1.5-0.5l1-2
					C52,92.6,51.6,92.4,50.9,92.4z"/>
			</g>
		</g>
	</g>
	<g>
		<g>
			<g>
				<path class="st2" d="M62.7,92.4h-6.4c-0.7,0-1.3,0.2-1.4,0.4l-1,2c-0.1,0.3,0.3,0.5,1,0.5h6.7c0.7,0,1.3-0.2,1.4-0.5l0.7-2
					C63.8,92.6,63.3,92.4,62.7,92.4z"/>
			</g>
		</g>
	</g>
	<g>
		<g>
			<g>
				<path class="st2" d="M74.4,92.4h-6.4c-0.7,0-1.3,0.2-1.3,0.4l-0.6,2c-0.1,0.3,0.4,0.5,1.1,0.5h6.7c0.7,0,1.3-0.2,1.3-0.5l0.4-2
					C75.6,92.6,75.1,92.4,74.4,92.4z"/>
			</g>
		</g>
	</g>
	<g>
		<g>
			<g>
				<path class="st2" d="M86.2,92.4h-6.4c-0.7,0-1.2,0.2-1.3,0.4l-0.3,2c0,0.3,0.5,0.5,1.2,0.5h6.7c0.7,0,1.3-0.2,1.3-0.5l0-2
					C87.4,92.6,86.8,92.4,86.2,92.4z"/>
			</g>
		</g>
	</g>
	<g>
		<g>
			<g>
				<path class="st2" d="M98,92.4h-6.4c-0.7,0-1.2,0.2-1.2,0.4l0,2c0,0.3,0.6,0.5,1.3,0.5h6.7c0.7,0,1.2-0.2,1.2-0.5l-0.3-2
					C99.2,92.6,98.6,92.4,98,92.4z"/>
			</g>
		</g>
	</g>
	<g>
		<g>
			<g>
				<path class="st2" d="M109.7,92.4h-6.4c-0.7,0-1.2,0.2-1.1,0.4l0.4,2c0,0.3,0.7,0.5,1.4,0.5h6.7c0.7,0,1.2-0.2,1.1-0.5l-0.7-2
					C111,92.6,110.4,92.4,109.7,92.4z"/>
			</g>
		</g>
	</g>
	<g>
		<g>
			<g>
				<path class="st2" d="M121.5,92.4h-6.4c-0.7,0-1.1,0.2-1,0.4l0.7,2c0.1,0.3,0.7,0.5,1.4,0.5h6.7c0.7,0,1.2-0.2,1-0.5l-1-2
					C122.8,92.6,122.1,92.4,121.5,92.4z"/>
			</g>
		</g>
	</g>
	<g>
		<g>
			<g>
				<path class="st2" d="M133.2,92.4h-6.4c-0.7,0-1.1,0.2-1,0.4l1.1,2c0.1,0.3,0.8,0.5,1.5,0.5h6.7c0.7,0,1.1-0.2,0.9-0.5l-1.3-2
					C134.5,92.6,133.9,92.4,133.2,92.4z"/>
			</g>
		</g>
	</g>
	<g>
		<g>
			<g>
				<path class="st2" d="M53,96.5h-6.7c-0.7,0-1.4,0.2-1.6,0.5l-1.3,2.2c-0.2,0.3,0.3,0.5,1,0.5h7c0.7,0,1.4-0.2,1.6-0.5l1-2.2
					C54.2,96.7,53.7,96.5,53,96.5z"/>
			</g>
		</g>
	</g>
	<g>
		<g>
			<g>
				<path class="st2" d="M64.5,96.5h-6.7c-0.7,0-1.4,0.2-1.5,0.5l-1,2.2c-0.1,0.3,0.3,0.5,1.1,0.5h7c0.7,0,1.4-0.2,1.5-0.5l0.7-2.2
					C65.7,96.7,65.2,96.5,64.5,96.5z"/>
			</g>
		</g>
	</g>
	<g>
		<g>
			<g>
				<path class="st2" d="M75.9,96.5h-6.7c-0.7,0-1.3,0.2-1.4,0.5l-0.6,2.2c-0.1,0.3,0.4,0.5,1.2,0.5h7c0.7,0,1.4-0.2,1.4-0.5
					l0.3-2.2C77.1,96.7,76.6,96.5,75.9,96.5z"/>
			</g>
		</g>
	</g>
	<g>
		<g>
			<g>
				<path class="st2" d="M87.3,96.5h-6.7c-0.7,0-1.3,0.2-1.3,0.5L79,99.2c0,0.3,0.5,0.5,1.2,0.5h7c0.7,0,1.3-0.2,1.3-0.5V97
					C88.6,96.7,88,96.5,87.3,96.5z"/>
			</g>
		</g>
	</g>
	<g>
		<g>
			<g>
				<path class="st2" d="M98.8,96.5h-6.7c-0.7,0-1.3,0.2-1.2,0.5l0.1,2.2c0,0.3,0.6,0.5,1.3,0.5h7c0.7,0,1.3-0.2,1.2-0.5l-0.3-2.2
					C100.1,96.7,99.5,96.5,98.8,96.5z"/>
			</g>
		</g>
	</g>
	<g>
		<g>
			<g>
				<path class="st2" d="M110.2,96.5h-6.7c-0.7,0-1.2,0.2-1.2,0.5l0.4,2.2c0.1,0.3,0.7,0.5,1.4,0.5h7c0.7,0,1.2-0.2,1.2-0.5
					l-0.7-2.2C111.6,96.7,110.9,96.5,110.2,96.5z"/>
			</g>
		</g>
	</g>
	<g>
		<g>
			<g>
				<path class="st2" d="M121.7,96.5h-6.7c-0.7,0-1.2,0.2-1.1,0.5l0.8,2.2c0.1,0.3,0.8,0.5,1.5,0.5h7c0.7,0,1.2-0.2,1.1-0.5l-1-2.2
					C123,96.7,122.4,96.5,121.7,96.5z"/>
			</g>
		</g>
	</g>
	<g>
		<g>
			<g>
				<path class="st2" d="M133.1,96.5h-6.7c-0.7,0-1.2,0.2-1,0.5l1.1,2.2c0.2,0.3,0.9,0.5,1.6,0.5h7c0.7,0,1.2-0.2,1-0.5l-1.4-2.2
					C134.5,96.7,133.8,96.5,133.1,96.5z"/>
			</g>
		</g>
	</g>
	<g>
		<g>
			<g>
				<path class="st2" d="M60.9,89.1h-6c-0.6,0-1.2,0.2-1.4,0.4l-1,1.7c-0.1,0.2,0.3,0.4,0.9,0.4h6.3c0.7,0,1.3-0.2,1.4-0.4l0.7-1.7
					C61.9,89.3,61.5,89.1,60.9,89.1z"/>
			</g>
		</g>
	</g>
	<g>
		<g>
			<g>
				<path class="st2" d="M71.8,89.1h-6c-0.6,0-1.2,0.2-1.3,0.4l-0.7,1.7c-0.1,0.2,0.4,0.4,1,0.4h6.3c0.7,0,1.2-0.2,1.3-0.4l0.4-1.7
					C72.9,89.3,72.4,89.1,71.8,89.1z"/>
			</g>
		</g>
	</g>
	<g>
		<g>
			<g>
				<path class="st2" d="M82.8,89.1h-6c-0.6,0-1.2,0.2-1.2,0.4l-0.3,1.7c0,0.2,0.4,0.4,1.1,0.4h6.3c0.7,0,1.2-0.2,1.2-0.4l0.1-1.7
					C83.9,89.3,83.4,89.1,82.8,89.1z"/>
			</g>
		</g>
	</g>
	<g>
		<g>
			<g>
				<path class="st2" d="M93.8,89.1h-6c-0.6,0-1.1,0.2-1.1,0.4l-0.1,1.7c0,0.2,0.5,0.4,1.2,0.4H94c0.7,0,1.2-0.2,1.1-0.4l-0.2-1.7
					C94.9,89.3,94.4,89.1,93.8,89.1z"/>
			</g>
		</g>
	</g>
	<g>
		<g>
			<g>
				<path class="st2" d="M104.7,89.1h-6c-0.6,0-1.1,0.2-1.1,0.4l0.2,1.7c0,0.2,0.6,0.4,1.2,0.4h6.3c0.7,0,1.1-0.2,1.1-0.4l-0.5-1.7
					C105.9,89.3,105.3,89.1,104.7,89.1z"/>
			</g>
		</g>
	</g>
	<g>
		<g>
			<g>
				<path class="st2" d="M115.7,89.1h-6c-0.6,0-1.1,0.2-1,0.4l0.5,1.7c0.1,0.2,0.7,0.4,1.3,0.4h6.3c0.7,0,1.1-0.2,1-0.4l-0.8-1.7
					C116.9,89.3,116.3,89.1,115.7,89.1z"/>
			</g>
		</g>
	</g>
	<g>
		<g>
			<g>
				<path class="st2" d="M126.7,89.1h-6c-0.6,0-1,0.2-0.9,0.4l0.9,1.7c0.1,0.2,0.7,0.4,1.4,0.4h6.3c0.7,0,1.1-0.2,0.9-0.4l-1.1-1.7
					C127.9,89.3,127.3,89.1,126.7,89.1z"/>
			</g>
		</g>
	</g>
	<g>
		<g>
			<g>
				<path class="st2" d="M143.1,89.1h-11.4c-1.2,0-2,0.2-1.9,0.4l1.1,1.7c0.2,0.2,1.3,0.4,2.5,0.4h11.8c1.2,0,2.1-0.2,1.9-0.4
					l-1.5-1.7C145.4,89.3,144.3,89.1,143.1,89.1z"/>
			</g>
		</g>
	</g>
	<g>
		<g>
			<g>
				<path class="st2" d="M149.8,96.5h-11c-1.1,0-1.9,0.2-1.7,0.5l1.5,2.2c0.2,0.3,1.3,0.5,2.5,0.5h11.4c1.2,0,1.9-0.2,1.7-0.5
					l-1.9-2.2C152,96.7,150.9,96.5,149.8,96.5z"/>
			</g>
		</g>
	</g>
	<g>
		<g>
			<g>
				<path class="st2" d="M147.1,92.4h-8.6c-0.9,0-1.5,0.2-1.3,0.4l1.4,2c0.2,0.3,1.1,0.5,2,0.5h9c0.9,0,1.5-0.2,1.3-0.5l-1.7-2
					C148.9,92.6,148,92.4,147.1,92.4z"/>
			</g>
		</g>
	</g>
	<g>
		<g>
			<g>
				<path class="st2" d="M40.6,92.4H29.3c-0.6,0-1.2,0.2-1.5,0.5l-1.6,1.8c-0.3,0.3,0,0.5,0.6,0.5h11.8c0.6,0,1.2-0.2,1.4-0.5
					l1.2-1.8C41.5,92.6,41.2,92.4,40.6,92.4z"/>
			</g>
		</g>
	</g>
	<g>
		<g>
			<g>
				<path class="st2" d="M41.9,96.4H26.7c-0.8,0-1.6,0.3-1.9,0.6L23,99c-0.3,0.3,0.1,0.6,0.9,0.6h15.9c0.8,0,1.6-0.3,1.8-0.6l1.3-2
					C43.1,96.7,42.7,96.4,41.9,96.4z"/>
			</g>
		</g>
	</g>
	<g>
		<g>
			<g>
				<path class="st2" d="M95.3,101H49c-0.9,0-1.9,0.3-2.1,0.7l-1.2,2.2c-0.2,0.4,0.4,0.8,1.4,0.8h48.5c1,0,1.7-0.3,1.7-0.8l-0.2-2.2
					C97.1,101.3,96.3,101,95.3,101z"/>
			</g>
		</g>
	</g>
</g>
<g>
	<g>
		<g>
			<g>
				<path class="st3" d="M38.1,88.1h-6c-0.6,0-1.3,0.2-1.5,0.4L29,90.3c-0.2,0.2,0.2,0.4,0.8,0.4h6.3c0.7,0,1.3-0.2,1.5-0.4l1.3-1.8
					C39.1,88.3,38.7,88.1,38.1,88.1z"/>
			</g>
		</g>
	</g>
	<g>
		<g>
			<g>
				<path class="st3" d="M28.9,100.1h-7.2c-0.7,0-1.6,0.2-1.8,0.6l-2.2,2.5c-0.3,0.3,0.1,0.6,0.9,0.6h7.5c0.8,0,1.6-0.3,1.9-0.6
					l1.9-2.5C30.1,100.3,29.7,100.1,28.9,100.1z"/>
			</g>
		</g>
	</g>
	<g>
		<g>
			<g>
				<path class="st3" d="M40.9,100.1h-7.2c-0.7,0-1.5,0.2-1.7,0.6l-1.8,2.5c-0.2,0.3,0.2,0.6,1,0.6h7.5c0.8,0,1.6-0.3,1.8-0.6
					l1.5-2.5C42.1,100.3,41.6,100.1,40.9,100.1z"/>
			</g>
		</g>
	</g>
	<g>
		<g>
			<g>
				<path class="st3" d="M108.4,100.1h-7.2c-0.7,0-1.3,0.2-1.3,0.6l0.4,2.5c0,0.3,0.7,0.6,1.5,0.6h7.5c0.8,0,1.3-0.3,1.2-0.6
					l-0.7-2.5C109.8,100.3,109.1,100.1,108.4,100.1z"/>
			</g>
		</g>
	</g>
	<g>
		<g>
			<g>
				<path class="st3" d="M120.7,100.1h-7.2c-0.7,0-1.3,0.2-1.2,0.6l0.8,2.5c0.1,0.3,0.8,0.6,1.6,0.6h7.5c0.8,0,1.3-0.3,1.1-0.6
					l-1.1-2.5C122.1,100.3,121.4,100.1,120.7,100.1z"/>
			</g>
		</g>
	</g>
	<g>
		<g>
			<g>
				<path class="st3" d="M133,100.1h-7.2c-0.7,0-1.2,0.2-1.1,0.6l1.2,2.5c0.2,0.3,0.9,0.6,1.7,0.6h7.5c0.8,0,1.2-0.3,1-0.6l-1.5-2.5
					C134.5,100.3,133.7,100.1,133,100.1z"/>
			</g>
		</g>
	</g>
	<g>
		<g>
			<g>
				<path class="st3" d="M153,100.1H139c-1.4,0-2.5,0.2-2.3,0.6l1.6,2.5c0.2,0.3,1.6,0.6,3.1,0.6h14.6c1.5,0,2.5-0.3,2.2-0.6
					l-2.2-2.5C155.8,100.3,154.4,100.1,153,100.1z"/>
			</g>
		</g>
	</g>
	<g>
		<g>
			<g>
				<path class="st3" d="M49.1,88.1h-6c-0.6,0-1.3,0.2-1.4,0.4l-1.2,1.8c-0.2,0.2,0.2,0.4,0.9,0.4h6.3c0.7,0,1.3-0.2,1.4-0.4l1-1.8
					C50.1,88.3,49.7,88.1,49.1,88.1z"/>
			</g>
		</g>
	</g>
	<g>
		<g>
			<g>
				<path class="st3" d="M50.7,91.4h-6.4c-0.7,0-1.3,0.2-1.5,0.5l-1.3,2c-0.2,0.3,0.2,0.5,0.9,0.5h6.7c0.7,0,1.4-0.2,1.5-0.5l1.1-2
					C51.8,91.6,51.4,91.4,50.7,91.4z"/>
			</g>
		</g>
	</g>
	<g>
		<g>
			<g>
				<path class="st3" d="M62.6,91.4h-6.4c-0.7,0-1.3,0.2-1.4,0.5l-1,2c-0.1,0.3,0.3,0.5,1,0.5h6.7c0.7,0,1.3-0.2,1.4-0.5l0.7-2
					C63.7,91.6,63.2,91.4,62.6,91.4z"/>
			</g>
		</g>
	</g>
	<g>
		<g>
			<g>
				<path class="st3" d="M74.4,91.4h-6.4c-0.7,0-1.3,0.2-1.4,0.5l-0.6,2c-0.1,0.3,0.4,0.5,1.1,0.5h6.7c0.7,0,1.3-0.2,1.4-0.5l0.4-2
					C75.6,91.6,75,91.4,74.4,91.4z"/>
			</g>
		</g>
	</g>
	<g>
		<g>
			<g>
				<path class="st3" d="M86.2,91.4h-6.4c-0.7,0-1.2,0.2-1.3,0.5l-0.3,2c0,0.3,0.5,0.5,1.2,0.5h6.7c0.7,0,1.3-0.2,1.3-0.5l0-2
					C87.4,91.6,86.9,91.4,86.2,91.4z"/>
			</g>
		</g>
	</g>
	<g>
		<g>
			<g>
				<path class="st3" d="M98,91.4h-6.4c-0.7,0-1.2,0.2-1.2,0.5l0,2c0,0.3,0.6,0.5,1.3,0.5h6.7c0.7,0,1.2-0.2,1.2-0.5l-0.3-2
					C99.3,91.6,98.7,91.4,98,91.4z"/>
			</g>
		</g>
	</g>
	<g>
		<g>
			<g>
				<path class="st3" d="M109.8,91.4h-6.4c-0.7,0-1.2,0.2-1.1,0.5l0.4,2c0,0.3,0.7,0.5,1.4,0.5h6.7c0.7,0,1.2-0.2,1.1-0.5l-0.7-2
					C111.1,91.6,110.5,91.4,109.8,91.4z"/>
			</g>
		</g>
	</g>
	<g>
		<g>
			<g>
				<path class="st3" d="M121.7,91.4h-6.4c-0.7,0-1.1,0.2-1,0.5l0.7,2c0.1,0.3,0.7,0.5,1.4,0.5h6.7c0.7,0,1.2-0.2,1-0.5l-1-2
					C123,91.6,122.3,91.4,121.7,91.4z"/>
			</g>
		</g>
	</g>
	<g>
		<g>
			<g>
				<path class="st3" d="M133.5,91.4h-6.4c-0.7,0-1.1,0.2-1,0.5l1.1,2c0.1,0.3,0.8,0.5,1.5,0.5h6.7c0.7,0,1.1-0.2,0.9-0.5l-1.3-2
					C134.8,91.6,134.2,91.4,133.5,91.4z"/>
			</g>
		</g>
	</g>
	<g>
		<g>
			<g>
				<path class="st3" d="M52.3,95.6h-6.7c-0.7,0-1.4,0.2-1.6,0.5l-1.3,2.2c-0.2,0.3,0.3,0.5,1,0.5h7c0.7,0,1.4-0.2,1.6-0.5l1-2.2
					C53.5,95.8,53,95.6,52.3,95.6z"/>
			</g>
		</g>
	</g>
	<g>
		<g>
			<g>
				<path class="st3" d="M63.8,95.6h-6.7c-0.7,0-1.4,0.2-1.5,0.5l-1,2.2c-0.1,0.3,0.4,0.5,1.1,0.5h7c0.7,0,1.4-0.2,1.5-0.5l0.7-2.2
					C65,95.8,64.5,95.6,63.8,95.6z"/>
			</g>
		</g>
	</g>
	<g>
		<g>
			<g>
				<path class="st3" d="M75.3,95.6h-6.7c-0.7,0-1.3,0.2-1.4,0.5l-0.6,2.2c-0.1,0.3,0.4,0.5,1.2,0.5h7c0.7,0,1.4-0.2,1.4-0.5
					l0.3-2.2C76.5,95.8,76,95.6,75.3,95.6z"/>
			</g>
		</g>
	</g>
	<g>
		<g>
			<g>
				<path class="st3" d="M86.8,95.6h-6.7c-0.7,0-1.3,0.2-1.3,0.5l-0.3,2.2c0,0.3,0.5,0.5,1.3,0.5h7c0.7,0,1.3-0.2,1.3-0.5l0-2.2
					C88.1,95.8,87.5,95.6,86.8,95.6z"/>
			</g>
		</g>
	</g>
	<g>
		<g>
			<g>
				<path class="st3" d="M98.3,95.6h-6.7c-0.7,0-1.3,0.2-1.3,0.5l0.1,2.2c0,0.3,0.6,0.5,1.4,0.5h7c0.7,0,1.3-0.2,1.2-0.5l-0.4-2.2
					C99.6,95.8,99,95.6,98.3,95.6z"/>
			</g>
		</g>
	</g>
	<g>
		<g>
			<g>
				<path class="st3" d="M109.8,95.6h-6.7c-0.7,0-1.2,0.2-1.2,0.5l0.4,2.2c0.1,0.3,0.7,0.5,1.4,0.5h7c0.7,0,1.2-0.2,1.2-0.5
					l-0.7-2.2C111.2,95.8,110.5,95.6,109.8,95.6z"/>
			</g>
		</g>
	</g>
	<g>
		<g>
			<g>
				<path class="st3" d="M121.3,95.6h-6.7c-0.7,0-1.2,0.2-1.1,0.5l0.8,2.2c0.1,0.3,0.8,0.5,1.5,0.5h7c0.7,0,1.2-0.2,1.1-0.5
					l-1.1-2.2C122.7,95.8,122,95.6,121.3,95.6z"/>
			</g>
		</g>
	</g>
	<g>
		<g>
			<g>
				<path class="st3" d="M132.8,95.6h-6.8c-0.7,0-1.2,0.2-1,0.5l1.1,2.2c0.2,0.3,0.9,0.5,1.6,0.5h7c0.7,0,1.2-0.2,1-0.5l-1.4-2.2
					C134.2,95.8,133.5,95.6,132.8,95.6z"/>
			</g>
		</g>
	</g>
	<g>
		<g>
			<g>
				<path class="st3" d="M60.1,88.1h-6c-0.6,0-1.2,0.2-1.4,0.4l-1,1.8c-0.1,0.2,0.3,0.4,1,0.4H59c0.7,0,1.3-0.2,1.4-0.4l0.7-1.8
					C61.2,88.3,60.8,88.1,60.1,88.1z"/>
			</g>
		</g>
	</g>
	<g>
		<g>
			<g>
				<path class="st3" d="M71.2,88.1h-6c-0.6,0-1.2,0.2-1.3,0.4l-0.7,1.8c-0.1,0.2,0.4,0.4,1,0.4h6.3c0.7,0,1.2-0.2,1.3-0.4l0.4-1.8
					C72.3,88.3,71.8,88.1,71.2,88.1z"/>
			</g>
		</g>
	</g>
	<g>
		<g>
			<g>
				<path class="st3" d="M82.2,88.1h-6c-0.6,0-1.2,0.2-1.2,0.4l-0.3,1.8c0,0.2,0.4,0.4,1.1,0.4H82c0.7,0,1.2-0.2,1.2-0.4l0.1-1.8
					C83.3,88.3,82.8,88.1,82.2,88.1z"/>
			</g>
		</g>
	</g>
	<g>
		<g>
			<g>
				<path class="st3" d="M93.2,88.1h-6c-0.6,0-1.1,0.2-1.2,0.4l0,1.8c0,0.2,0.5,0.4,1.2,0.4h6.3c0.7,0,1.2-0.2,1.1-0.4l-0.2-1.8
					C94.4,88.3,93.9,88.1,93.2,88.1z"/>
			</g>
		</g>
	</g>
	<g>
		<g>
			<g>
				<path class="st3" d="M104.3,88.1h-6c-0.6,0-1.1,0.2-1.1,0.4l0.3,1.8c0,0.2,0.6,0.4,1.2,0.4h6.3c0.7,0,1.1-0.2,1.1-0.4l-0.5-1.8
					C105.5,88.3,104.9,88.1,104.3,88.1z"/>
			</g>
		</g>
	</g>
	<g>
		<g>
			<g>
				<path class="st3" d="M115.3,88.1h-6c-0.6,0-1.1,0.2-1,0.4l0.5,1.8c0.1,0.2,0.7,0.4,1.3,0.4h6.3c0.7,0,1.1-0.2,1-0.4l-0.8-1.8
					C116.5,88.3,115.9,88.1,115.3,88.1z"/>
			</g>
		</g>
	</g>
	<g>
		<g>
			<g>
				<path class="st3" d="M126.3,88.1h-6c-0.6,0-1,0.2-0.9,0.4l0.9,1.8c0.1,0.2,0.7,0.4,1.4,0.4h6.3c0.7,0,1.1-0.2,0.9-0.4l-1.1-1.8
					C127.6,88.3,127,88.1,126.3,88.1z"/>
			</g>
		</g>
	</g>
	<g>
		<g>
			<g>
				<path class="st3" d="M142.9,88.1h-11.4c-1.2,0-2,0.2-1.9,0.4l1.1,1.8c0.2,0.2,1.3,0.4,2.5,0.4h11.9c1.2,0,2.1-0.2,1.9-0.4
					l-1.6-1.8C145.2,88.3,144.1,88.1,142.9,88.1z"/>
			</g>
		</g>
	</g>
	<g>
		<g>
			<g>
				<path class="st3" d="M149.6,95.6h-11c-1.1,0-1.9,0.2-1.7,0.5l1.5,2.2c0.2,0.3,1.3,0.5,2.5,0.5h11.5c1.2,0,2-0.2,1.7-0.5
					l-1.9-2.2C151.8,95.8,150.7,95.6,149.6,95.6z"/>
			</g>
		</g>
	</g>
	<g>
		<g>
			<g>
				<path class="st3" d="M146.5,91.4h-7.8c-0.8,0-1.3,0.2-1.2,0.5l1.3,2c0.2,0.3,1,0.5,1.8,0.5h8.1c0.9,0,1.4-0.2,1.1-0.5l-1.6-2
					C148.1,91.6,147.3,91.4,146.5,91.4z"/>
			</g>
		</g>
	</g>
	<g>
		<g>
			<g>
				<path class="st3" d="M40.3,91.4H29c-0.6,0-1.2,0.2-1.5,0.5l-1.6,1.8c-0.3,0.3,0,0.6,0.6,0.6h11.8c0.6,0,1.2-0.2,1.5-0.6l1.2-1.8
					C41.2,91.7,40.9,91.4,40.3,91.4z"/>
			</g>
		</g>
	</g>
	<g>
		<g>
			<g>
				<path class="st3" d="M41.1,95.5H25.8c-0.8,0-1.6,0.3-1.9,0.6l-1.8,2c-0.3,0.3,0.1,0.6,0.9,0.6H39c0.8,0,1.6-0.3,1.8-0.6l1.3-2
					C42.3,95.7,41.9,95.5,41.1,95.5z"/>
			</g>
		</g>
	</g>
	<g>
		<g>
			<g>
				<path class="st3" d="M94.8,100.1H48.2c-1,0-1.9,0.3-2.1,0.7L45,103c-0.2,0.4,0.4,0.8,1.4,0.8h48.8c1,0,1.8-0.3,1.7-0.8l-0.2-2.2
					C96.6,100.4,95.8,100.1,94.8,100.1z"/>
			</g>
		</g>
	</g>
</g>
<g>
	<g>
		<path class="st4" d="M84.5,3.3c0-1.2,1-2.2,2.2-2.2C88,1,89,2,89,3.3s-1,2.2-2.2,2.2C85.5,5.5,84.5,4.5,84.5,3.3z"/>
	</g>
</g>
<g>
	<g>
		<path class="st1" d="M148.5,86.6H24.9c-0.8,0-1.4-0.6-1.4-1.4l0,0c0-0.8,0.6-1.4,1.4-1.4h123.5c0.8,0,1.4,0.6,1.4,1.4l0,0
			C149.9,85.9,149.3,86.6,148.5,86.6z"/>
	</g>
</g>
<g>
	<g>
		<path class="st1" d="M147.5-0.2H25.2c-1,0-1.8,0.8-1.8,1.8v80.3c0,1,0.8,1.8,1.8,1.8h122.3c1,0,1.8-0.8,1.8-1.8V1.6
			C149.4,0.6,148.5-0.2,147.5-0.2z M148.5,79.4c0,1.1-0.9,1.9-2,1.9H26.6c-1.1,0-2-0.9-2-1.9v-71c0-1.1,0.9-1.9,2-1.9h119.9
			c1.1,0,2,0.9,2,1.9V79.4L148.5,79.4z"/>
	</g>
</g>
<rect x="116.3" y="15.9" class="st1" width="23.9" height="26.7"/>
<g>
	<g>
		<path class="st3" d="M62,71.7C62,71.7,62,71.7,62,71.7c0,0-0.2,0-0.7,0c0,0-0.1,0-0.1-0.1c0,0,0-0.1,0.1-0.1c0.4,0,0.7,0,0.7,0
			c0,0,0.1,0,0.1,0.1C62.1,71.7,62.1,71.7,62,71.7z"/>
	</g>
	<g>
		<path class="st3" d="M60,71.6C60,71.6,60,71.6,60,71.6c-0.4,0-0.9-0.1-1.4-0.1c0,0-0.1,0-0.1-0.1c0,0,0.1-0.1,0.1-0.1
			c0.5,0,0.9,0.1,1.3,0.1C60.1,71.4,60.1,71.4,60,71.6C60.1,71.5,60.1,71.6,60,71.6z M57.3,71.3C57.3,71.3,57.3,71.3,57.3,71.3
			c-0.4,0-0.9-0.1-1.4-0.2c0,0-0.1-0.1-0.1-0.1c0,0,0.1-0.1,0.1-0.1c0.5,0.1,0.9,0.1,1.3,0.2C57.4,71.1,57.5,71.2,57.3,71.3
			C57.4,71.3,57.4,71.3,57.3,71.3z M54.7,71L54.7,71c-0.4-0.1-0.9-0.1-1.3-0.2c0,0-0.1-0.1-0.1-0.1c0,0,0.1-0.1,0.1-0.1
			c0.5,0.1,0.9,0.1,1.3,0.2C54.7,70.8,54.8,70.8,54.7,71C54.8,70.9,54.7,71,54.7,71z M52,70.5L52,70.5c-0.5-0.1-0.9-0.2-1.3-0.2
			c0,0-0.1-0.1-0.1-0.1s0.1-0.1,0.1-0.1c0.4,0.1,0.9,0.2,1.3,0.2C52.1,70.4,52.1,70.4,52,70.5C52.1,70.5,52.1,70.5,52,70.5z
			 M49.4,70L49.4,70c-0.5-0.1-0.9-0.2-1.3-0.3c0,0-0.1-0.1-0.1-0.1c0,0,0.1-0.1,0.1-0.1c0.4,0.1,0.9,0.2,1.3,0.3
			C49.4,69.9,49.5,69.9,49.4,70C49.5,70,49.4,70,49.4,70z M46.8,69.5C46.8,69.5,46.7,69.5,46.8,69.5c-0.5-0.1-0.9-0.2-1.3-0.3
			c0,0-0.1-0.1-0.1-0.1s0.1-0.1,0.1-0.1c0.4,0.1,0.9,0.2,1.3,0.3C46.8,69.3,46.9,69.4,46.8,69.5C46.9,69.4,46.8,69.5,46.8,69.5z
			 M44.2,68.8C44.2,68.8,44.2,68.8,44.2,68.8c-0.5-0.1-0.9-0.2-1.3-0.4c0,0-0.1-0.1-0.1-0.1c0,0,0.1-0.1,0.1-0.1
			c0.4,0.1,0.9,0.3,1.3,0.4C44.3,68.6,44.3,68.7,44.2,68.8C44.3,68.8,44.2,68.8,44.2,68.8z M41.6,68C41.6,68,41.6,68,41.6,68
			c-0.5-0.1-0.9-0.3-1.3-0.4c0,0-0.1-0.1-0.1-0.1c0,0,0.1-0.1,0.1-0.1c0.4,0.2,0.8,0.3,1.3,0.4C41.7,67.9,41.7,67.9,41.6,68
			C41.7,68,41.6,68,41.6,68z M39.1,67.1C39.1,67.1,39.1,67.1,39.1,67.1c-0.5-0.2-0.9-0.3-1.3-0.5c0,0-0.1-0.1,0-0.1
			c0,0,0.1-0.1,0.1,0c0.4,0.2,0.8,0.3,1.2,0.5C39.2,66.9,39.2,67,39.1,67.1C39.2,67.1,39.1,67.1,39.1,67.1z M36.7,66
			C36.6,66,36.6,66,36.7,66c-0.5-0.2-0.9-0.4-1.2-0.7c0,0-0.1-0.1,0-0.1c0,0,0.1-0.1,0.1,0c0.4,0.2,0.8,0.4,1.2,0.6
			C36.7,65.8,36.8,65.9,36.7,66C36.7,66,36.7,66,36.7,66z M34.3,64.7C34.3,64.7,34.3,64.7,34.3,64.7c-0.4-0.3-0.8-0.5-1.2-0.8
			c0,0,0-0.1,0-0.1c0,0,0.1,0,0.1,0c0.3,0.3,0.7,0.5,1.1,0.8C34.4,64.5,34.5,64.6,34.3,64.7C34.4,64.7,34.4,64.7,34.3,64.7z
			 M32.3,63.1C32.2,63.1,32.2,63,32.3,63.1c-0.4-0.3-0.7-0.7-1-1c0,0,0-0.1,0-0.1c0,0,0.1,0,0.1,0c0.3,0.3,0.6,0.6,0.9,0.9
			C32.4,62.9,32.4,63,32.3,63.1C32.3,63,32.3,63.1,32.3,63.1z M128.9,62.9L128.9,62.9c-0.4,0-0.9,0-1.4,0c0,0-0.1,0-0.1-0.1
			c0,0,0-0.1,0.1-0.1c0.5,0,0.9,0,1.3,0C128.9,62.7,129,62.7,128.9,62.9C129,62.8,129,62.9,128.9,62.9z M130.2,62.9
			C130.2,62.9,130.1,62.8,130.2,62.9c-0.1-0.1,0-0.2,0-0.2c0.5,0,0.9,0,1.3-0.1c0,0,0.1,0,0.1,0.1c0,0,0,0.1-0.1,0.1
			C131.2,62.8,130.7,62.9,130.2,62.9L130.2,62.9z M126.2,62.8C126.2,62.8,126.2,62.8,126.2,62.8c-0.4,0-0.9-0.1-1.4-0.1
			c0,0-0.1,0-0.1-0.1c0,0,0-0.1,0.1-0.1c0.5,0,0.9,0.1,1.3,0.1C126.3,62.6,126.3,62.6,126.2,62.8C126.3,62.7,126.3,62.8,126.2,62.8z
			 M132.9,62.7C132.9,62.7,132.8,62.7,132.9,62.7c-0.1-0.1-0.1-0.2,0-0.2c0.5-0.1,0.9-0.1,1.3-0.2c0,0,0.1,0,0.1,0.1
			c0,0,0,0.1-0.1,0.1C133.8,62.6,133.4,62.6,132.9,62.7L132.9,62.7z M123.5,62.5C123.5,62.5,123.5,62.5,123.5,62.5
			c-0.5,0-0.9-0.1-1.4-0.2c0,0-0.1,0-0.1-0.1c0,0,0.1-0.1,0.1-0.1c0.5,0.1,0.9,0.1,1.3,0.2c0,0,0.1,0,0.1,0.1
			C123.6,62.5,123.6,62.5,123.5,62.5z M120.9,62.2L120.9,62.2c-0.5-0.1-0.9-0.1-1.3-0.2c0,0-0.1-0.1-0.1-0.1c0,0,0.1-0.1,0.1-0.1
			c0.4,0.1,0.9,0.1,1.3,0.2C120.9,62,121,62.1,120.9,62.2C121,62.2,120.9,62.2,120.9,62.2z M135.5,62.2
			C135.5,62.2,135.5,62.2,135.5,62.2c-0.1-0.1-0.1-0.2,0-0.2c0.4-0.1,0.9-0.3,1.3-0.4c0,0,0.1,0,0.1,0c0,0,0,0.1,0,0.1
			C136.5,61.9,136,62,135.5,62.2C135.6,62.2,135.5,62.2,135.5,62.2z M118.2,61.8L118.2,61.8c-0.5-0.1-0.9-0.1-1.3-0.2
			c0,0-0.1-0.1-0.1-0.1c0,0,0.1-0.1,0.1-0.1c0.4,0.1,0.9,0.2,1.3,0.2C118.3,61.6,118.3,61.7,118.2,61.8
			C118.3,61.8,118.3,61.8,118.2,61.8z M115.6,61.4L115.6,61.4c-0.5-0.1-0.9-0.2-1.3-0.2c0,0-0.1-0.1-0.1-0.1c0,0,0.1-0.1,0.1-0.1
			c0.4,0.1,0.9,0.2,1.3,0.2C115.6,61.2,115.7,61.2,115.6,61.4C115.7,61.3,115.6,61.4,115.6,61.4z M138,61.2
			C138,61.2,137.9,61.2,138,61.2c-0.1-0.1-0.1-0.2,0-0.2c0.1-0.1,0.2-0.1,0.3-0.2c0.3-0.2,0.5-0.3,0.7-0.5c0,0,0.1,0,0.1,0
			c0,0,0,0.1,0,0.1c-0.2,0.2-0.5,0.4-0.7,0.5C138.3,61,138.2,61.1,138,61.2C138,61.2,138,61.2,138,61.2z M30.6,61.1
			C30.5,61.1,30.5,61,30.6,61.1c-0.3-0.4-0.5-0.8-0.7-1.2c0,0,0-0.1,0-0.1c0,0,0.1,0,0.1,0c0.2,0.4,0.4,0.8,0.6,1.1
			C30.7,61,30.6,61,30.6,61.1C30.6,61.1,30.6,61.1,30.6,61.1z M112.9,60.9L112.9,60.9c-0.5-0.1-0.9-0.2-1.3-0.3c0,0-0.1-0.1-0.1-0.1
			c0,0,0.1-0.1,0.1-0.1c0.4,0.1,0.9,0.2,1.3,0.3C113,60.7,113,60.8,112.9,60.9C113,60.8,113,60.9,112.9,60.9z M110.3,60.3
			L110.3,60.3c-0.5-0.1-0.9-0.2-1.3-0.3c0,0-0.1-0.1-0.1-0.1c0,0,0.1-0.1,0.1-0.1c0.4,0.1,0.9,0.2,1.3,0.3c0,0,0.1,0.1,0.1,0.1
			C110.4,60.3,110.4,60.3,110.3,60.3z M107.7,59.8L107.7,59.8c-0.5-0.1-0.9-0.2-1.3-0.3c0,0-0.1-0.1-0.1-0.1c0,0,0.1-0.1,0.1-0.1
			c0.4,0.1,0.9,0.2,1.3,0.3c0,0,0.1,0.1,0.1,0.1C107.8,59.8,107.7,59.8,107.7,59.8z M140.1,59.5C140,59.5,140,59.5,140.1,59.5
			c-0.1-0.1-0.1-0.1-0.1-0.2c0.3-0.3,0.6-0.6,0.9-1c0,0,0.1,0,0.1,0c0,0,0,0.1,0,0.1C140.8,58.9,140.5,59.2,140.1,59.5
			C140.1,59.5,140.1,59.5,140.1,59.5z M105.1,59.2L105.1,59.2c-0.5-0.1-0.9-0.2-1.3-0.3c0,0-0.1-0.1-0.1-0.1c0,0,0.1-0.1,0.1-0.1
			c0.4,0.1,0.9,0.2,1.3,0.3c0,0,0.1,0.1,0.1,0.1C105.2,59.2,105.1,59.2,105.1,59.2z M29.5,58.7C29.4,58.7,29.4,58.7,29.5,58.7
			c-0.2-0.5-0.3-0.9-0.3-1.4c0,0,0-0.1,0.1-0.1c0,0,0.1,0,0.1,0.1c0,0.4,0.1,0.9,0.2,1.3C29.6,58.6,29.6,58.7,29.5,58.7
			C29.5,58.7,29.5,58.7,29.5,58.7z M102.5,58.6L102.5,58.6c-0.5-0.1-0.9-0.2-1.3-0.3c0,0-0.1-0.1-0.1-0.1c0,0,0.1-0.1,0.1-0.1
			c0.4,0.1,0.9,0.2,1.3,0.3c0,0,0.1,0.1,0.1,0.1C102.5,58.6,102.5,58.6,102.5,58.6z M99.8,58L99.8,58c-0.5-0.1-0.9-0.2-1.3-0.3
			c0,0-0.1-0.1-0.1-0.1c0,0,0.1-0.1,0.1-0.1c0.4,0.1,0.9,0.2,1.3,0.3c0,0,0.1,0.1,0.1,0.1C99.9,58,99.9,58,99.8,58z M141.8,57.5
			C141.7,57.5,141.7,57.5,141.8,57.5c-0.1,0-0.1-0.1-0.1-0.1c0.2-0.4,0.5-0.7,0.6-1.1c0,0,0.1-0.1,0.1,0c0,0,0.1,0.1,0,0.1
			C142.3,56.7,142.1,57.1,141.8,57.5C141.8,57.5,141.8,57.5,141.8,57.5z M97.2,57.4C97.2,57.4,97.2,57.4,97.2,57.4
			c-0.5-0.1-0.9-0.2-1.3-0.3c0,0-0.1-0.1-0.1-0.1c0,0,0.1-0.1,0.1-0.1c0.4,0.1,0.9,0.2,1.3,0.3C97.3,57.2,97.3,57.3,97.2,57.4
			C97.3,57.4,97.3,57.4,97.2,57.4z M94.6,56.8l-1.3-0.3c0,0-0.1-0.1-0.1-0.1c0,0,0.1-0.1,0.1-0.1l1.3,0.3L94.6,56.8z M29.3,56.1
			L29.3,56.1C29.2,56.1,29.2,56.1,29.3,56.1c-0.1-0.5,0-1,0.1-1.4c0,0,0.1-0.1,0.1-0.1c0,0,0.1,0.1,0.1,0.1
			C29.4,55.2,29.4,55.6,29.3,56.1C29.4,56.1,29.3,56.1,29.3,56.1z M92,56.1C92,56.1,92,56.1,92,56.1l-1.3-0.3c0,0-0.1-0.1-0.1-0.1
			c0,0,0.1-0.1,0.1-0.1l1.3,0.3C92.1,56,92.1,56,92,56.1C92.1,56.1,92.1,56.1,92,56.1z M89.4,55.5C89.4,55.5,89.4,55.5,89.4,55.5
			l-1.3-0.3c0,0-0.1-0.1-0.1-0.1c0,0,0.1-0.1,0.1-0.1l1.3,0.3C89.5,55.3,89.5,55.4,89.4,55.5C89.5,55.5,89.5,55.5,89.4,55.5z
			 M142.9,55.2C142.9,55.2,142.9,55.2,142.9,55.2c-0.1,0-0.1-0.1-0.1-0.1c0.1-0.4,0.3-0.8,0.3-1.2c0,0,0.1-0.1,0.1-0.1
			c0,0,0.1,0.1,0.1,0.1C143.2,54.3,143.1,54.7,142.9,55.2C143,55.2,142.9,55.2,142.9,55.2z M86.8,54.9
			C86.8,54.9,86.8,54.9,86.8,54.9l-1.3-0.3c0,0-0.1-0.1-0.1-0.1c0,0,0.1-0.1,0.1-0.1l1.3,0.3C86.9,54.7,86.9,54.8,86.8,54.9
			C86.9,54.8,86.9,54.9,86.8,54.9z M84.2,54.2C84.2,54.2,84.2,54.2,84.2,54.2c-0.5-0.1-0.9-0.2-1.3-0.3c0,0-0.1-0.1-0.1-0.1
			c0,0,0.1-0.1,0.1-0.1c0.4,0.1,0.9,0.2,1.3,0.3C84.3,54.1,84.3,54.1,84.2,54.2C84.3,54.2,84.3,54.2,84.2,54.2z M81.6,53.6
			C81.6,53.6,81.6,53.6,81.6,53.6l-1.3-0.3c0,0-0.1-0.1-0.1-0.1c0,0,0.1-0.1,0.1-0.1l1.3,0.3C81.7,53.4,81.7,53.5,81.6,53.6
			C81.7,53.6,81.7,53.6,81.6,53.6z M29.8,53.6C29.8,53.6,29.8,53.6,29.8,53.6c-0.1,0-0.1-0.1-0.1-0.1c0.2-0.4,0.3-0.8,0.5-1.2
			c0,0,0.1-0.1,0.1,0c0,0,0.1,0.1,0,0.1c-0.2,0.4-0.4,0.8-0.5,1.2C29.9,53.6,29.8,53.6,29.8,53.6z M79,53C79,53,79,53,79,53
			c-0.5-0.1-0.9-0.2-1.3-0.3c0,0-0.1-0.1-0.1-0.1c0,0,0.1-0.1,0.1-0.1c0.4,0.1,0.9,0.2,1.3,0.3C79.1,52.8,79.1,52.9,79,53
			C79.1,52.9,79.1,53,79,53z M143.4,52.6C143.4,52.6,143.4,52.6,143.4,52.6c-0.1,0-0.1,0-0.1-0.1c0-0.4,0-0.7,0-1.1
			c0-0.1,0-0.1,0-0.2c0,0,0-0.1,0.1-0.1c0,0,0.1,0,0.1,0.1c0,0.1,0,0.1,0,0.2C143.6,51.8,143.6,52.2,143.4,52.6
			C143.5,52.6,143.5,52.6,143.4,52.6z M76.4,52.4L76.4,52.4c-0.5-0.1-0.9-0.2-1.3-0.3c0,0-0.1-0.1-0.1-0.1c0,0,0.1-0.1,0.1-0.1
			c0.4,0.1,0.9,0.2,1.3,0.3c0,0,0.1,0.1,0.1,0.1C76.5,52.3,76.5,52.4,76.4,52.4z M73.8,51.7L73.8,51.7c-0.5-0.1-0.9-0.2-1.3-0.3
			c0,0-0.1-0.1-0.1-0.1c0,0,0.1-0.1,0.1-0.1c0.4,0.1,0.9,0.2,1.3,0.3c0,0,0.1,0.1,0.1,0.1C73.9,51.7,73.8,51.7,73.8,51.7z M31,51.3
			C31,51.3,31,51.3,31,51.3c-0.1,0-0.1-0.1-0.1-0.2c0.3-0.3,0.6-0.7,0.9-1c0,0,0.1,0,0.1,0c0,0,0,0.1,0,0.1
			C31.7,50.7,31.4,51,31,51.3C31.1,51.3,31.1,51.3,31,51.3z M71.2,51.2L71.2,51.2c-0.5-0.1-0.9-0.2-1.3-0.3c0,0-0.1-0.1-0.1-0.1
			c0,0,0.1-0.1,0.1-0.1c0.4,0.1,0.9,0.2,1.3,0.3c0,0,0.1,0.1,0.1,0.1C71.3,51.1,71.2,51.2,71.2,51.2z M68.6,50.6L68.6,50.6
			c-0.5-0.1-0.9-0.2-1.3-0.3c0,0-0.1-0.1-0.1-0.1s0.1-0.1,0.1-0.1c0.4,0.1,0.9,0.2,1.3,0.3C68.6,50.4,68.7,50.5,68.6,50.6
			C68.6,50.6,68.6,50.6,68.6,50.6z M65.9,50L65.9,50c-0.5-0.1-0.9-0.2-1.3-0.3c0,0-0.1-0.1-0.1-0.1c0,0,0.1-0.1,0.1-0.1
			c0.4,0.1,0.9,0.2,1.3,0.3c0,0,0.1,0.1,0.1,0.1C66,50,66,50,65.9,50z M143.4,50C143.4,50,143.3,50,143.4,50
			c-0.1-0.5-0.2-0.9-0.3-1.4c0,0,0-0.1,0.1-0.1c0,0,0.1,0,0.1,0.1C143.4,49.1,143.5,49.5,143.4,50C143.5,50,143.5,50,143.4,50
			L143.4,50z M33,49.6C33,49.6,33,49.6,33,49.6c-0.1-0.1-0.1-0.2,0-0.2c0.4-0.2,0.8-0.4,1.2-0.6c0,0,0.1,0,0.1,0c0,0,0,0.1,0,0.1
			C33.8,49.2,33.4,49.4,33,49.6C33.1,49.6,33,49.6,33,49.6z M63.3,49.5L63.3,49.5c-0.5-0.1-0.9-0.2-1.3-0.2c0,0-0.1-0.1-0.1-0.1
			s0.1-0.1,0.1-0.1c0.4,0.1,0.9,0.2,1.3,0.2C63.4,49.4,63.4,49.4,63.3,49.5C63.4,49.5,63.4,49.5,63.3,49.5z M60.7,49L60.7,49
			c-0.5-0.1-0.9-0.2-1.3-0.2c0,0-0.1-0.1-0.1-0.1c0,0,0.1-0.1,0.1-0.1c0.4,0.1,0.9,0.2,1.3,0.2C60.7,48.9,60.8,48.9,60.7,49
			C60.8,49,60.7,49,60.7,49z M58,48.6L58,48.6c-0.5-0.1-0.9-0.1-1.3-0.2c0,0-0.1-0.1-0.1-0.1c0,0,0.1-0.1,0.1-0.1
			c0.4,0.1,0.9,0.1,1.3,0.2C58.1,48.4,58.1,48.5,58,48.6C58.1,48.6,58.1,48.6,58,48.6z M35.4,48.5C35.4,48.5,35.4,48.4,35.4,48.5
			c-0.1-0.1-0.1-0.2,0-0.2c0.4-0.1,0.8-0.3,1.3-0.4c0,0,0.1,0,0.1,0.1c0,0,0,0.1-0.1,0.1C36.3,48.2,35.9,48.3,35.4,48.5
			C35.5,48.5,35.4,48.5,35.4,48.5z M55.4,48.2L55.4,48.2c-0.5-0.1-0.9-0.1-1.3-0.2c0,0-0.1-0.1-0.1-0.1c0,0,0.1-0.1,0.1-0.1
			c0.4,0.1,0.9,0.1,1.3,0.2c0,0,0.1,0.1,0.1,0.1C55.5,48.2,55.4,48.2,55.4,48.2z M52.7,47.8L52.7,47.8c-0.5-0.1-0.9-0.1-1.3-0.2
			c0,0-0.1,0-0.1-0.1c0,0,0-0.1,0.1-0.1c0.4,0,0.9,0.1,1.3,0.2C52.8,47.7,52.8,47.7,52.7,47.8C52.8,47.8,52.8,47.8,52.7,47.8z
			 M38,47.8C38,47.8,37.9,47.8,38,47.8c-0.1-0.1-0.1-0.2,0-0.2c0.4-0.1,0.9-0.2,1.3-0.2c0,0,0.1,0,0.1,0.1c0,0,0,0.1-0.1,0.1
			C38.9,47.6,38.5,47.7,38,47.8C38,47.8,38,47.8,38,47.8z M50.1,47.6C50,47.6,50,47.6,50.1,47.6c-0.5,0-0.9-0.1-1.4-0.1
			c0,0-0.1,0-0.1-0.1c0,0,0-0.1,0.1-0.1c0.4,0,0.9,0.1,1.3,0.1C50.1,47.4,50.1,47.4,50.1,47.6C50.1,47.5,50.1,47.6,50.1,47.6z
			 M142.9,47.5C142.8,47.5,142.8,47.5,142.9,47.5c-0.2-0.5-0.3-0.9-0.5-1.3c0,0,0-0.1,0.1-0.1c0,0,0.1,0,0.1,0.1
			c0.2,0.4,0.3,0.8,0.4,1.2C143,47.5,143,47.5,142.9,47.5C142.9,47.5,142.9,47.5,142.9,47.5z M40.7,47.4
			C40.6,47.4,40.6,47.4,40.7,47.4c-0.1-0.1-0.1-0.2,0-0.2c0.4,0,0.9-0.1,1.3-0.1c0,0,0.1,0,0.1,0.1c0,0,0,0.1-0.1,0.1
			C41.6,47.3,41.1,47.4,40.7,47.4C40.7,47.4,40.7,47.4,40.7,47.4z M47.4,47.4L47.4,47.4c-0.5,0-0.9,0-1.3-0.1c0,0-0.1,0-0.1-0.1
			c0,0,0-0.1,0.1-0.1c0.4,0,0.9,0,1.3,0.1c0,0,0.1,0,0.1,0.1C47.5,47.3,47.4,47.4,47.4,47.4z M43.4,47.3
			C43.3,47.3,43.3,47.2,43.4,47.3c-0.1-0.1,0-0.2,0-0.2c0.4,0,0.9,0,1.3,0c0,0,0.1,0,0.1,0.1c0,0,0,0.1-0.1,0.1l0,0
			C44.2,47.3,43.8,47.3,43.4,47.3L43.4,47.3z M142,45.1C141.9,45.1,141.9,45.1,142,45.1c-0.3-0.4-0.5-0.8-0.7-1.2c0,0,0-0.1,0-0.1
			c0,0,0.1,0,0.1,0c0.2,0.4,0.4,0.8,0.6,1.2C142.1,45,142.1,45.1,142,45.1C142,45.1,142,45.1,142,45.1z M140.7,42.8
			C140.7,42.8,140.6,42.8,140.7,42.8c-0.3-0.4-0.5-0.8-0.8-1.1c0,0,0-0.1,0-0.1c0,0,0.1,0,0.1,0c0.3,0.4,0.5,0.7,0.7,1.1
			C140.8,42.7,140.8,42.8,140.7,42.8C140.8,42.8,140.7,42.8,140.7,42.8z M139.2,40.6C139.2,40.6,139.2,40.6,139.2,40.6
			c-0.3-0.4-0.6-0.7-0.9-1c0,0,0-0.1,0-0.1c0,0,0.1,0,0.1,0c0.3,0.3,0.6,0.7,0.8,1C139.3,40.5,139.3,40.6,139.2,40.6
			C139.3,40.6,139.3,40.6,139.2,40.6z M137.6,38.6C137.5,38.6,137.5,38.6,137.6,38.6c-0.4-0.3-0.7-0.7-1-1c0,0,0-0.1,0-0.1
			c0,0,0.1,0,0.1,0c0.3,0.3,0.6,0.6,0.9,1C137.7,38.5,137.7,38.5,137.6,38.6C137.6,38.6,137.6,38.6,137.6,38.6z M135.7,36.7
			C135.7,36.7,135.7,36.7,135.7,36.7c-0.4-0.3-0.7-0.6-1-0.9c0,0,0-0.1,0-0.1c0,0,0.1,0,0.1,0c0.3,0.3,0.7,0.6,1,0.9
			C135.8,36.6,135.8,36.6,135.7,36.7C135.8,36.7,135.7,36.7,135.7,36.7z M133.7,34.9C133.7,34.9,133.7,34.9,133.7,34.9
			c-0.4-0.3-0.7-0.6-1.1-0.9c0,0,0-0.1,0-0.1c0,0,0.1,0,0.1,0c0.3,0.3,0.7,0.6,1,0.8C133.9,34.8,133.9,34.9,133.7,34.9
			C133.8,34.9,133.8,34.9,133.7,34.9z M131.7,33.3C131.6,33.3,131.6,33.3,131.7,33.3c-0.4-0.3-0.8-0.5-1.1-0.8c0,0,0-0.1,0-0.1
			c0,0,0.1,0,0.1,0c0.4,0.3,0.7,0.5,1.1,0.8C131.8,33.2,131.8,33.2,131.7,33.3C131.7,33.3,131.7,33.3,131.7,33.3z M129.5,31.8
			C129.5,31.8,129.5,31.8,129.5,31.8c-0.4-0.3-0.8-0.5-1.2-0.7c0,0-0.1-0.1,0-0.1c0,0,0.1-0.1,0.1,0c0.4,0.2,0.7,0.5,1.1,0.7
			C129.6,31.7,129.6,31.7,129.5,31.8C129.5,31.8,129.5,31.8,129.5,31.8z M127.3,30.4C127.2,30.4,127.2,30.4,127.3,30.4
			c-0.4-0.2-0.8-0.5-1.2-0.7c0,0-0.1-0.1,0-0.1c0,0,0.1-0.1,0.1,0c0.4,0.2,0.8,0.4,1.2,0.7c0,0,0.1,0.1,0,0.1
			C127.3,30.3,127.3,30.4,127.3,30.4z M124.9,29C124.9,29,124.9,29,124.9,29c-0.4-0.2-0.8-0.4-1.2-0.6c0,0-0.1-0.1,0-0.1
			c0,0,0.1-0.1,0.1,0c0.4,0.2,0.8,0.4,1.2,0.6C125,28.9,125.1,28.9,124.9,29C125,29,125,29,124.9,29z M122.6,27.8
			C122.6,27.8,122.5,27.8,122.6,27.8c-0.4-0.2-0.9-0.4-1.2-0.6c0,0-0.1-0.1,0-0.1c0,0,0.1-0.1,0.1,0c0.4,0.2,0.8,0.4,1.2,0.6
			C122.6,27.7,122.7,27.7,122.6,27.8C122.6,27.8,122.6,27.8,122.6,27.8z M120.2,26.7C120.1,26.7,120.1,26.7,120.2,26.7
			c-0.4-0.2-0.9-0.4-1.3-0.5c0,0-0.1-0.1,0-0.1c0,0,0.1-0.1,0.1,0c0.4,0.2,0.8,0.3,1.2,0.5C120.2,26.5,120.3,26.6,120.2,26.7
			C120.2,26.7,120.2,26.7,120.2,26.7z M117.7,25.6C117.7,25.6,117.7,25.6,117.7,25.6c-0.4-0.2-0.9-0.3-1.3-0.5c0,0-0.1-0.1,0-0.1
			c0,0,0.1-0.1,0.1,0c0.4,0.2,0.8,0.3,1.2,0.5C117.8,25.5,117.8,25.6,117.7,25.6C117.8,25.6,117.7,25.6,117.7,25.6z M115.2,24.7
			C115.2,24.7,115.2,24.7,115.2,24.7c-0.4-0.2-0.9-0.3-1.3-0.5c0,0-0.1-0.1-0.1-0.1c0,0,0.1-0.1,0.1-0.1c0.4,0.2,0.8,0.3,1.3,0.5
			C115.3,24.5,115.3,24.6,115.2,24.7C115.3,24.6,115.3,24.7,115.2,24.7z M112.7,23.8C112.7,23.8,112.7,23.8,112.7,23.8
			c-0.5-0.1-0.9-0.3-1.3-0.4c0,0-0.1-0.1-0.1-0.1c0,0,0.1-0.1,0.1-0.1c0.4,0.1,0.9,0.3,1.3,0.4C112.8,23.6,112.8,23.7,112.7,23.8
			C112.8,23.8,112.7,23.8,112.7,23.8z M110.2,22.9C110.1,22.9,110.1,22.9,110.2,22.9c-0.5-0.1-0.9-0.3-1.3-0.4c0,0-0.1-0.1-0.1-0.1
			c0,0,0.1-0.1,0.1-0.1c0.4,0.1,0.9,0.3,1.3,0.4C110.2,22.8,110.3,22.8,110.2,22.9C110.2,22.9,110.2,22.9,110.2,22.9z M107.6,22.2
			C107.6,22.2,107.6,22.2,107.6,22.2c-0.5-0.1-0.9-0.2-1.3-0.3c0,0-0.1-0.1-0.1-0.1c0,0,0.1-0.1,0.1-0.1c0.4,0.1,0.9,0.2,1.3,0.3
			C107.7,22.1,107.7,22.1,107.6,22.2C107.7,22.2,107.6,22.2,107.6,22.2z M105,21.5C105,21.5,105,21.5,105,21.5
			c-0.5-0.1-0.9-0.2-1.3-0.3c0,0-0.1-0.1-0.1-0.1c0,0,0.1-0.1,0.1-0.1c0.4,0.1,0.9,0.2,1.3,0.3C105.1,21.4,105.1,21.4,105,21.5
			C105.1,21.5,105,21.5,105,21.5z M102.4,20.9L102.4,20.9c-0.4-0.1-0.9-0.2-1.3-0.3c0,0-0.1-0.1-0.1-0.1c0,0,0.1-0.1,0.1-0.1
			c0.4,0.1,0.9,0.2,1.3,0.3c0,0,0.1,0.1,0.1,0.1C102.5,20.9,102.4,20.9,102.4,20.9z M99.8,20.4L99.8,20.4c-0.5-0.1-0.9-0.2-1.3-0.3
			c0,0-0.1-0.1-0.1-0.1c0,0,0.1-0.1,0.1-0.1c0.4,0.1,0.9,0.2,1.3,0.3C99.8,20.2,99.9,20.2,99.8,20.4C99.8,20.3,99.8,20.4,99.8,20.4z
			 M97.1,19.9L97.1,19.9c-0.5-0.1-0.9-0.2-1.3-0.2c0,0-0.1-0.1-0.1-0.1c0,0,0.1-0.1,0.1-0.1c0.4,0.1,0.9,0.2,1.3,0.2
			C97.2,19.7,97.2,19.7,97.1,19.9C97.2,19.8,97.2,19.9,97.1,19.9z M94.5,19.4L94.5,19.4c-0.5-0.1-0.9-0.1-1.3-0.2
			c0,0-0.1-0.1-0.1-0.1c0,0,0.1-0.1,0.1-0.1c0.4,0.1,0.9,0.1,1.3,0.2C94.5,19.3,94.6,19.3,94.5,19.4C94.6,19.4,94.5,19.4,94.5,19.4z
			 M91.8,19.1C91.8,19.1,91.8,19.1,91.8,19.1c-0.5-0.1-0.9-0.1-1.3-0.2c0,0-0.1,0-0.1-0.1c0,0,0.1-0.1,0.1-0.1
			c0.4,0.1,0.9,0.1,1.3,0.2c0,0,0.1,0.1,0.1,0.1C91.9,19,91.9,19.1,91.8,19.1z M89.2,18.7L89.2,18.7c-0.5,0-0.9-0.1-1.3-0.2
			c0,0-0.1,0-0.1-0.1c0,0,0-0.1,0.1-0.1c0.4,0,0.9,0.1,1.3,0.2c0,0,0.1,0,0.1,0.1C89.3,18.7,89.2,18.7,89.2,18.7z M86.5,18.5
			C86.5,18.5,86.5,18.5,86.5,18.5c-0.5,0-0.9-0.1-1.3-0.1c0,0-0.1,0-0.1-0.1c0,0,0-0.1,0.1-0.1c0.5,0,0.9,0.1,1.3,0.1
			c0,0,0.1,0,0.1,0.1C86.6,18.4,86.6,18.5,86.5,18.5z M83.8,18.2L83.8,18.2c-0.5,0-0.9-0.1-1.4-0.1c0,0-0.1,0-0.1-0.1
			c0,0,0-0.1,0.1-0.1c0.5,0,0.9,0.1,1.3,0.1C83.9,18,83.9,18.1,83.8,18.2C83.9,18.2,83.9,18.2,83.8,18.2z M81.2,18L81.2,18
			c-0.5,0-0.9,0-1.3-0.1c0,0-0.1,0-0.1-0.1s0-0.1,0.1-0.1c0.5,0,0.9,0,1.3,0.1c0,0,0.1,0,0.1,0.1C81.3,18,81.2,18,81.2,18z
			 M78.5,17.9L78.5,17.9c-0.5,0-0.9,0-1.3,0c0,0-0.1,0-0.1-0.1c0,0,0-0.1,0.1-0.1c0.5,0,0.9,0,1.3,0c0,0,0.1,0,0.1,0.1
			S78.5,17.9,78.5,17.9z M75.8,17.8L75.8,17.8c-0.4,0-0.9,0-1.3,0c0,0-0.1,0-0.1-0.1s0-0.1,0.1-0.1c0.5,0,0.9,0,1.3,0
			C75.8,17.6,75.9,17.7,75.8,17.8C75.9,17.8,75.8,17.8,75.8,17.8z M69.1,17.8C69,17.8,69,17.7,69.1,17.8c-0.1-0.1,0-0.2,0-0.2
			c0.5,0,0.9,0,1.3,0l0,0c0,0,0.1,0,0.1,0.1s0,0.1-0.1,0.1C70,17.8,69.5,17.8,69.1,17.8C69.1,17.8,69.1,17.8,69.1,17.8z M73.1,17.8
			L73.1,17.8c-0.4,0-0.9,0-1.3,0c0,0-0.1,0-0.1-0.1c0,0,0-0.1,0.1-0.1l0,0c0.5,0,0.9,0,1.3,0C73.2,17.6,73.2,17.6,73.1,17.8
			C73.2,17.7,73.2,17.8,73.1,17.8z"/>
	</g>
	<g>
		<path class="st3" d="M67.1,17.8C67,17.8,67,17.8,67.1,17.8c-0.1-0.1,0-0.2,0-0.2c0.2,0,0.4,0,0.7,0c0.1,0,0.1,0,0.1,0.1
			c0,0,0,0.1-0.1,0.1C67.5,17.8,67.3,17.8,67.1,17.8L67.1,17.8z"/>
	</g>
</g>
<path class="st5" d="M160.2,6.9c-0.2-0.1-0.3-0.1-0.5-0.1h-57.1c-0.7,0-1.3,0.6-1.3,1.3v30.2H73.9V7.2c0-0.5-0.3-1-0.9-1.2
	c-0.2-0.1-0.3-0.1-0.5-0.1H13.9c-0.7,0-1.3,0.6-1.3,1.3v36.5c0,0.7,0.6,1.3,1.3,1.3h25c-0.3,0.9-0.1,1.8,0.7,2.5l5.7,5.1
	c1,0.9,2.4,0.8,3.3-0.2l0.5-0.5l2.1,1.9l-0.5,0.5c-0.9,1-0.8,2.4,0.2,3.3l5.7,5.1c0.4,0.4,0.9,0.5,1.4,0.6v10.7
	c0,0.7,0.6,1.2,1.3,1.2h55.5c0.7,0,1.3-0.5,1.3-1.2V60.8c0.1-0.1,0.3-0.2,0.4-0.2l5.9-4.8c1-0.8,1.2-2.3,0.3-3.3l-0.5-0.6l2.2-1.8
	l0.5,0.6c0.8,1,2.3,1.2,3.3,0.3l5.9-4.8c0.4-0.3,0.7-0.8,0.8-1.2h24.9c0.7,0,1.3-0.6,1.3-1.3V8.1C161,7.6,160.7,7.1,160.2,6.9z
	 M114.1,58.8l-1.8-2.2c0,0-0.1-0.1-0.1-0.1C113.3,56.7,114.1,57.6,114.1,58.8z M110.4,56.6c0.1,0.4,0.2,0.7,0.5,1.1l2.1,2.6
	c0.1,0.2,0.3,0.3,0.4,0.4c-0.5,0.5-1.1,0.8-1.8,0.8c-1.4,0-2.5-1.1-2.5-2.5C109,57.9,109.6,57,110.4,56.6z M59.7,57.4l0.9,0.8
	c0.2,0.2,0.2,0.5,0,0.8l-1,1.1c-0.2-0.4-0.3-0.8-0.3-1.2C59.2,58.3,59.4,57.8,59.7,57.4z M61.8,56.8l-0.5-0.5c0.2,0,0.3-0.1,0.5-0.1
	c1.4,0,2.5,1.1,2.5,2.5s-1.1,2.5-2.5,2.5c-0.3,0-0.6,0-0.8-0.1l1-1.1C62.8,59.2,62.7,57.7,61.8,56.8z M44.9,41.5
	c-1-0.9-2.4-0.8-3.3,0.2l-1.1,1.2c-0.3-0.4-0.6-1-0.6-1.6c0-1.4,1.1-2.5,2.5-2.5c1.4,0,2.5,1.1,2.5,2.5C45,41.4,45,41.5,44.9,41.5
	L44.9,41.5z M44.1,43.2c-0.4,0.4-1,0.6-1.7,0.6c-0.1,0-0.3,0-0.4,0l0.9-1c0.2-0.2,0.5-0.2,0.8,0L44.1,43.2z M132.2,40.3
	c-0.7-0.9-2-1.1-3-0.6c0.3-1,1.3-1.7,2.4-1.7c1.4,0,2.5,1.1,2.5,2.5c0,0.6-0.2,1.1-0.5,1.6L132.2,40.3z M132.1,43
	c-0.1,0-0.3,0-0.4,0c-0.9,0-1.7-0.5-2.2-1.2l0.6-0.5c0.2-0.2,0.6-0.2,0.8,0.1L132.1,43z M47.1,51.2c-0.2,0.2-0.5,0.2-0.8,0l-5.7-5.1
	c-0.2-0.2-0.2-0.5,0-0.8l0.3-0.4h5l3.3,3c0.2,0.2,0.2,0.5,0,0.8l-0.5,0.5l-0.1-0.1c-0.4-0.3-0.9-0.3-1.3,0.1
	c-0.3,0.4-0.3,0.9,0.1,1.3l0.1,0.1L47.1,51.2z M50.2,50.5l0.5-0.5c0.9-1,0.8-2.4-0.2-3.3L48.7,45h9.1v8.3l-1.7-1.5
	c-1-0.9-2.4-0.8-3.3,0.2l-0.5,0.5L50.2,50.5z M57.8,61.5c-0.1,0-0.1-0.1-0.2-0.1L52,56.3c-0.2-0.2-0.2-0.5,0-0.8l0.5-0.5l0.1,0.1
	c0.4,0.3,0.9,0.3,1.3-0.1c0.3-0.4,0.3-0.9-0.1-1.3l-0.1-0.1l0.5-0.5c0.2-0.2,0.5-0.2,0.8,0l2.9,2.6L57.8,61.5L57.8,61.5z
	 M121.1,53.6c0.2,0.2,0.2,0.6-0.1,0.8l-5.1,4.2v-5.7l2.4-1.9c0.2-0.2,0.6-0.2,0.8,0.1l0.5,0.6l-0.2,0.1c-0.4,0.3-0.4,0.9-0.1,1.3
	c0.3,0.4,0.9,0.4,1.3,0.1l0.2-0.1L121.1,53.6z M120.9,50.5l-0.5-0.6c-0.8-1-2.3-1.2-3.3-0.3l-1.2,1v-5.6h6.9
	c-0.9,0.8-0.9,2.2-0.2,3.2l0.5,0.6L120.9,50.5z M126.9,49.5c-0.2,0.2-0.6,0.2-0.8-0.1l-0.5-0.6l0.1-0.1c0.4-0.3,0.4-0.9,0.1-1.3
	c-0.3-0.4-0.9-0.4-1.3-0.1l-0.1,0.1l-0.5-0.6c-0.2-0.2-0.2-0.6,0.1-0.8l1.5-1.2h6.9L126.9,49.5z"/>
<g>
	<g>
		<path class="st6" d="M71.4,2.9c-0.1,0-0.3-0.1-0.4-0.1H12.3c-0.7,0-1.2,0.5-1.2,1.1v36.5c0,0.6,0.5,1.1,1.2,1.1H71
			c0.7,0,1.2-0.5,1.2-1.1V4C72.2,3.5,71.8,3.1,71.4,2.9z M42.5,40.1c-0.4,0.4-1,0.6-1.7,0.6c-0.1,0-0.3,0-0.4,0
			c-0.6-0.1-1.2-0.4-1.6-0.9c-0.3-0.4-0.6-1-0.6-1.6c0-1.4,1.1-2.5,2.5-2.5c1.4,0,2.5,1.1,2.5,2.5c0,0.1,0,0.2,0,0.2
			C43.3,39.1,43,39.6,42.5,40.1z"/>
	</g>
</g>
<g>
	<g>
		<path class="st7" d="M72.2,4v2.4H11.1V4c0-0.6,0.5-1.1,1.2-1.1H71c0.2,0,0.3,0,0.4,0.1C71.8,3.1,72.2,3.5,72.2,4z"/>
	</g>
</g>
<g>
	<g>
		<path class="st3" d="M71.5,2.8c-0.2-0.1-0.3-0.1-0.5-0.1H12.3c-0.7,0-1.4,0.6-1.4,1.3v36.5c0,0.7,0.6,1.3,1.3,1.3H71
			c0.7,0,1.3-0.6,1.3-1.3V4C72.3,3.4,72,3,71.5,2.8z M72,40.5c0,0.5-0.5,1-1,1H12.3c-0.6,0-1-0.4-1-1V4c0-0.5,0.5-1,1-1H71
			c0.1,0,0.2,0,0.4,0.1C71.7,3.2,72,3.6,72,4L72,40.5L72,40.5z"/>
	</g>
</g>
<g>
	<circle class="st3" cx="13.4" cy="4.6" r="0.6"/>
	<circle class="st3" cx="15.7" cy="4.6" r="0.6"/>
	<circle class="st3" cx="18.1" cy="4.6" r="0.6"/>
</g>
<path class="st3" d="M70.8,5h-6.1c-0.1,0-0.2-0.1-0.2-0.2V4.5c0-0.1,0.1-0.2,0.2-0.2h6.1c0.1,0,0.2,0.1,0.2,0.2v0.3
	C70.9,4.9,70.9,5,70.8,5z"/>
<g>
	<g>
		<rect x="49.3" y="28.2" class="st8" width="2.1" height="2.1"/>
		<rect x="52.3" y="24.5" class="st8" width="2.1" height="5.7"/>
		<rect x="55.4" y="26" class="st8" width="2.1" height="4.2"/>
		<rect x="58.4" y="27.1" class="st8" width="2.1" height="3.1"/>
		<rect x="61.4" y="22.7" class="st8" width="2.1" height="7.5"/>
	</g>
	<g>
		<g>
			<path class="st8" d="M26.1,21.2c-1.3,0-2.6-0.5-3.6-1.3l3.7-3.8l4.6,2.7c-0.5,0.7-1.1,1.3-1.8,1.7C28.1,21,27.1,21.2,26.1,21.2z"
				/>
		</g>
		<g>
			<path class="st8" d="M26.5,15.3v-5.2c2.8,0.2,5.1,2.4,5.3,5.2H26.5z"/>
		</g>
		<g>
			<path class="st8" d="M28.4,16.2h4.4c0,0.8-0.3,1.5-0.6,2.2L28.4,16.2z"/>
		</g>
		<g>
			<path class="st8" d="M22,19.5c-1-1-1.5-2.4-1.5-3.8c0-3,2.3-5.4,5.3-5.6v5.4L22,19.5z"/>
		</g>
	</g>
	<path class="st8" d="M32.5,26.9H20.3c-0.2,0-0.3-0.1-0.3-0.3v-1.3c0-0.2,0.1-0.3,0.3-0.3h12.2c0.2,0,0.3,0.1,0.3,0.3v1.3
		C32.8,26.8,32.6,26.9,32.5,26.9z"/>
	<path class="st8" d="M32.5,30.7H20.3c-0.2,0-0.3-0.1-0.3-0.3V29c0-0.2,0.1-0.3,0.3-0.3h12.2c0.2,0,0.3,0.1,0.3,0.3v1.3
		C32.8,30.5,32.6,30.7,32.5,30.7z"/>
	<path class="st8" d="M32.5,34.4H20.3c-0.2,0-0.3-0.1-0.3-0.3v-1.3c0-0.2,0.1-0.3,0.3-0.3h12.2c0.2,0,0.3,0.1,0.3,0.3v1.3
		C32.8,34.2,32.6,34.4,32.5,34.4z"/>
	<g>
		<path class="st8" d="M44.3,10.9h-8.1c-0.2,0-0.3-0.1-0.3-0.3l0,0c0-0.2,0.1-0.3,0.3-0.3h8.1c0.2,0,0.3,0.1,0.3,0.3l0,0
			C44.6,10.8,44.5,10.9,44.3,10.9z"/>
		<path class="st8" d="M58.5,10.9H46c-0.2,0-0.3-0.1-0.3-0.3l0,0c0-0.2,0.1-0.3,0.3-0.3h12.5c0.2,0,0.3,0.1,0.3,0.3l0,0
			C58.8,10.8,58.7,10.9,58.5,10.9z"/>
		<path class="st8" d="M63.2,10.9h-2.6c-0.2,0-0.3-0.1-0.3-0.3l0,0c0-0.2,0.1-0.3,0.3-0.3h2.6c0.2,0,0.3,0.1,0.3,0.3l0,0
			C63.5,10.8,63.3,10.9,63.2,10.9z"/>
		<path class="st8" d="M63.1,14.2H36.2c-0.2,0-0.3-0.1-0.3-0.3l0,0c0-0.2,0.1-0.3,0.3-0.3h26.9c0.2,0,0.3,0.1,0.3,0.3l0,0
			C63.5,14,63.3,14.2,63.1,14.2z"/>
		<path class="st8" d="M44.3,20.4h-8.1c-0.2,0-0.3-0.1-0.3-0.3l0,0c0-0.2,0.1-0.3,0.3-0.3h8.1c0.2,0,0.3,0.1,0.3,0.3l0,0
			C44.6,20.2,44.5,20.4,44.3,20.4z"/>
		<path class="st8" d="M58.5,20.4H46c-0.2,0-0.3-0.1-0.3-0.3l0,0c0-0.2,0.1-0.3,0.3-0.3h12.5c0.2,0,0.3,0.1,0.3,0.3l0,0
			C58.8,20.2,58.7,20.4,58.5,20.4z"/>
		<path class="st8" d="M49.6,17.1H36.2c-0.2,0-0.3-0.1-0.3-0.3l0,0c0-0.2,0.1-0.3,0.3-0.3h13.4c0.2,0,0.3,0.1,0.3,0.3l0,0
			C49.9,16.9,49.8,17.1,49.6,17.1z"/>
		<path class="st8" d="M63.1,17.1H52.8c-0.2,0-0.3-0.1-0.3-0.3l0,0c0-0.2,0.1-0.3,0.3-0.3h10.3c0.2,0,0.3,0.1,0.3,0.3l0,0
			C63.5,16.9,63.3,17.1,63.1,17.1z"/>
		<path class="st8" d="M63.2,20.4h-2.6c-0.2,0-0.3-0.1-0.3-0.3l0,0c0-0.2,0.1-0.3,0.3-0.3h2.6c0.2,0,0.3,0.1,0.3,0.3l0,0
			C63.5,20.2,63.3,20.4,63.2,20.4z"/>
	</g>
	<path class="st8" d="M63.3,32.5H49.4c-0.1,0-0.1-0.1-0.1-0.1v-0.2c0-0.1,0.1-0.1,0.1-0.1h13.9c0.1,0,0.1,0.1,0.1,0.1v0.2
		C63.5,32.5,63.4,32.5,63.3,32.5z"/>
	<path class="st8" d="M63.3,34.4H49.4c-0.1,0-0.1-0.1-0.1-0.1v-0.2c0-0.1,0.1-0.1,0.1-0.1h13.9c0.1,0,0.1,0.1,0.1,0.1v0.2
		C63.5,34.3,63.4,34.4,63.3,34.4z"/>
	<rect x="35.3" y="24.7" class="st8" width="11.1" height="9.7"/>
</g>
<g>
	<g>
		<g>
			<path class="st6" d="M113.4,35.4c-0.1,0-0.3-0.1-0.4-0.1H57.5c-0.6,0-1.1,0.5-1.1,1.1v34.6c0,0.6,0.5,1.1,1.1,1.1H113
				c0.6,0,1.1-0.5,1.1-1.1V36.4C114.1,35.9,113.8,35.5,113.4,35.4z M59.7,53.2c0.2,0,0.3-0.1,0.5-0.1c1.4,0,2.5,1.1,2.5,2.5
				s-1.1,2.5-2.5,2.5c-0.3,0-0.6,0-0.8-0.1c-0.6-0.2-1.1-0.6-1.4-1.2c-0.2-0.4-0.3-0.8-0.3-1.2c0-0.5,0.2-1,0.5-1.5
				C58.5,53.7,59,53.3,59.7,53.2z M111.8,57.4c-0.5,0.5-1.1,0.8-1.8,0.8c-1.4,0-2.5-1.1-2.5-2.5c0-1,0.6-1.8,1.4-2.2
				c0.3-0.2,0.7-0.3,1.2-0.3c0.2,0,0.4,0,0.6,0.1c1.1,0.3,1.9,1.2,1.9,2.4l0,0c0,0,0,0.1,0,0.1C112.5,56.4,112.2,57,111.8,57.4z"/>
		</g>
	</g>
</g>
<g>
	<g>
		<path class="st7" d="M114.1,36.4v2.2H56.3v-2.2c0-0.6,0.5-1.1,1.1-1.1H113c0.1,0,0.3,0,0.4,0.1C113.8,35.5,114.1,35.9,114.1,36.4z
			"/>
	</g>
</g>
<g>
	<g>
		<path class="st3" d="M113.5,35.2c-0.1,0-0.3-0.1-0.5-0.1H57.5c-0.7,0-1.3,0.5-1.3,1.2v34.6c0,0.7,0.6,1.2,1.3,1.2H113
			c0.7,0,1.3-0.5,1.3-1.2V36.4C114.3,35.9,114,35.4,113.5,35.2z M114,70.9c0,0.5-0.4,0.9-1,0.9H57.5c-0.5,0-1-0.4-1-0.9V36.4
			c0-0.5,0.4-0.9,1-0.9H113c0.1,0,0.2,0,0.3,0.1c0.4,0.1,0.6,0.5,0.6,0.9L114,70.9L114,70.9z"/>
	</g>
</g>
<g>
	<circle class="st3" cx="58.5" cy="37" r="0.6"/>
	<circle class="st3" cx="60.7" cy="37" r="0.6"/>
	<path class="st3" d="M62.4,37c0-0.3,0.3-0.6,0.6-0.6c0.3,0,0.6,0.3,0.6,0.6s-0.3,0.6-0.6,0.6C62.7,37.5,62.4,37.3,62.4,37z"/>
</g>
<path class="st3" d="M112.8,37.4h-5.7c-0.1,0-0.2-0.1-0.2-0.2v-0.3c0-0.1,0.1-0.2,0.2-0.2h5.7c0.1,0,0.2,0.1,0.2,0.2v0.3
	C113,37.3,112.9,37.4,112.8,37.4z"/>
<path class="st8" d="M84.7,46.4H65.1c-0.3,0-0.6,0.3-0.6,0.6v12.9c0,0.3,0.3,0.6,0.6,0.6h19.7c0.3,0,0.6-0.3,0.6-0.6V47
	C85.4,46.7,85.1,46.4,84.7,46.4z"/>
<path class="st9" d="M78.3,53.1l-5.7-2.7c-0.2-0.1-0.5,0.1-0.5,0.3v5.4c0,0.3,0.3,0.4,0.5,0.3l5.7-2.7
	C78.5,53.7,78.5,53.3,78.3,53.1z"/>
<path class="st8" d="M85.4,63.7h-20c-0.1,0-0.2-0.1-0.2-0.2v-0.3c0-0.1,0.1-0.2,0.2-0.2h20c0.1,0,0.2,0.1,0.2,0.2v0.3
	C85.6,63.6,85.5,63.7,85.4,63.7z"/>
<path class="st8" d="M64.1,63.3c0-0.2,0.2-0.4,0.3-0.4s0.3,0.2,0.3,0.4c0,0.2-0.2,0.4-0.3,0.4S64.1,63.6,64.1,63.3z"/>
<rect x="69.1" y="62.7" class="st8" width="0.4" height="1.3"/>
<rect x="89.3" y="46.4" class="st8" width="7.3" height="3.5"/>
<rect x="89.3" y="51.7" class="st8" width="7.3" height="3.5"/>
<rect x="89.3" y="57" class="st8" width="7.3" height="3.5"/>
<g>
	<rect x="98.5" y="46.4" class="st8" width="7" height="0.2"/>
	<rect x="98.5" y="47.9" class="st8" width="7" height="0.2"/>
	<rect x="98.5" y="49.4" class="st8" width="7" height="0.2"/>
</g>
<g>
	<rect x="98.5" y="51.7" class="st8" width="7" height="0.2"/>
	<rect x="98.5" y="53.2" class="st8" width="7" height="0.2"/>
	<rect x="98.5" y="54.7" class="st8" width="7" height="0.2"/>
</g>
<g>
	<rect x="98.5" y="57" class="st8" width="7" height="0.2"/>
	<rect x="98.5" y="58.5" class="st8" width="7" height="0.2"/>
	<rect x="98.5" y="60" class="st8" width="7" height="0.2"/>
</g>
<g>
	<g>
		<path class="st6" d="M158.9,4.2c-0.1-0.1-0.1-0.1-0.2-0.2c-0.1,0-0.2-0.1-0.2-0.1c-0.1,0-0.1,0-0.2-0.1c-0.1,0-0.1,0-0.2,0h-57.1
			c-0.3,0-0.6,0.1-0.8,0.3c-0.2,0.2-0.3,0.5-0.3,0.8v35.5c0,0.6,0.5,1.1,1.2,1.1h57.1c0.6,0,1.2-0.5,1.2-1.1V4.9
			C159.2,4.6,159.1,4.4,158.9,4.2z M127.5,37.3c0-0.3,0-0.5,0.1-0.8c0.3-1,1.3-1.7,2.4-1.7c1.4,0,2.5,1.1,2.5,2.5
			c0,0.6-0.2,1.1-0.5,1.6c-0.4,0.5-0.9,0.8-1.6,0.9c-0.1,0-0.3,0-0.4,0c-0.9,0-1.7-0.5-2.2-1.2C127.6,38.2,127.5,37.8,127.5,37.3z"
			/>
	</g>
</g>
<g>
	<g>
		<path class="st7" d="M159.2,4.9v2.3H99.8V4.9c0-0.6,0.5-1.1,1.2-1.1h57.1c0.1,0,0.3,0,0.4,0.1C158.9,4.1,159.2,4.5,159.2,4.9z"/>
	</g>
</g>
<g>
	<g>
		<path class="st3" d="M158.5,3.8c-0.2-0.1-0.3-0.1-0.5-0.1h-57.1c-0.7,0-1.3,0.6-1.3,1.3v35.5c0,0.7,0.6,1.3,1.3,1.3h57.1
			c0.7,0,1.3-0.6,1.3-1.3V4.9C159.4,4.4,159,3.9,158.5,3.8z M158.1,41.4h-57.2c-0.5,0-1-0.4-1-1V4.9c0-0.5,0.4-1,1-1h57.1
			c0.1,0,0.2,0,0.3,0.1c0.4,0.1,0.6,0.5,0.6,0.9v35.5C159.1,41,158.6,41.4,158.1,41.4z"/>
	</g>
</g>
<g>
	<path class="st3" d="M101.4,5.5c0-0.3,0.3-0.6,0.6-0.6c0.3,0,0.6,0.3,0.6,0.6c0,0.3-0.3,0.6-0.6,0.6C101.7,6.1,101.4,5.9,101.4,5.5
		z"/>
	<path class="st3" d="M103.7,5.5c0-0.3,0.3-0.6,0.6-0.6c0.3,0,0.6,0.3,0.6,0.6c0,0.3-0.3,0.6-0.6,0.6C104,6.1,103.7,5.9,103.7,5.5z"
		/>
	<path class="st3" d="M106,5.5c0-0.3,0.3-0.6,0.6-0.6c0.3,0,0.6,0.3,0.6,0.6c0,0.3-0.3,0.6-0.6,0.6C106.3,6.1,106,5.9,106,5.5z"/>
</g>
<path class="st3" d="M157.9,6H152c-0.1,0-0.2-0.1-0.2-0.2V5.5c0-0.1,0.1-0.2,0.2-0.2h5.9c0.1,0,0.2,0.1,0.2,0.2v0.3
	C158.1,5.9,158,6,157.9,6z"/>
<g>
	<path class="st8" d="M139.1,13.7h-28.7c-0.4,0-0.7-0.3-0.7-0.7V12c0-0.4,0.3-0.7,0.7-0.7h28.7c0.4,0,0.7,0.3,0.7,0.7v0.9
		C139.9,13.3,139.5,13.7,139.1,13.7z"/>
	<path class="st8" d="M148.8,13.7h-4.1c-0.4,0-0.7-0.3-0.7-0.7V12c0-0.4,0.3-0.7,0.7-0.7h4.1c0.4,0,0.7,0.3,0.7,0.7v0.9
		C149.5,13.3,149.2,13.7,148.8,13.7z"/>
	<path class="st8" d="M125.3,25.9h-14.1c-0.4,0-0.8-0.3-0.8-0.8v-6.5c0-0.4,0.3-0.8,0.8-0.8h14.1c0.4,0,0.8,0.3,0.8,0.8v6.5
		C126.1,25.6,125.8,25.9,125.3,25.9z"/>
	<path class="st8" d="M110.8,28.6h5.2c0.2,0,0.4,0.2,0.4,0.4v4.4c0,0.2-0.2,0.4-0.4,0.4h-5.2c-0.2,0-0.4-0.2-0.4-0.4V29
		C110.4,28.8,110.6,28.6,110.8,28.6z"/>
	<path class="st8" d="M120.5,28.6h5.2c0.2,0,0.4,0.2,0.4,0.4v4.4c0,0.2-0.2,0.4-0.4,0.4h-5.2c-0.2,0-0.4-0.2-0.4-0.4V29
		C120.1,28.8,120.3,28.6,120.5,28.6z"/>
	<g>
		<path class="st8" d="M135.6,18.4h-5.9c-0.1,0-0.2-0.1-0.2-0.3l0,0c0-0.1,0.1-0.3,0.2-0.3h5.9c0.1,0,0.2,0.1,0.2,0.3l0,0
			C135.8,18.3,135.7,18.4,135.6,18.4z"/>
		<path class="st8" d="M146,18.4h-9.2c-0.1,0-0.2-0.1-0.2-0.3l0,0c0-0.1,0.1-0.3,0.2-0.3h9.2c0.1,0,0.2,0.1,0.2,0.3l0,0
			C146.3,18.3,146.1,18.4,146,18.4z"/>
		<path class="st8" d="M149.4,18.4h-1.9c-0.1,0-0.2-0.1-0.2-0.2l0,0c0-0.1,0.1-0.2,0.2-0.2h1.9c0.1,0,0.2,0.1,0.2,0.2l0,0
			C149.7,18.3,149.6,18.4,149.4,18.4z"/>
		<path class="st8" d="M149.4,21h-19.8c-0.1,0-0.2-0.1-0.2-0.3l0,0c0-0.1,0.1-0.3,0.2-0.3h19.8c0.1,0,0.2,0.1,0.2,0.3l0,0
			C149.7,20.9,149.6,21,149.4,21z"/>
		<path class="st8" d="M135.6,26h-5.9c-0.1,0-0.2-0.1-0.2-0.3l0,0c0-0.1,0.1-0.3,0.2-0.3h5.9c0.1,0,0.2,0.1,0.2,0.3l0,0
			C135.8,25.9,135.7,26,135.6,26z"/>
		<path class="st8" d="M146,26h-9.2c-0.1,0-0.2-0.1-0.2-0.3l0,0c0-0.1,0.1-0.3,0.2-0.3h9.2c0.1,0,0.2,0.1,0.2,0.3l0,0
			C146.3,25.9,146.1,26,146,26z"/>
		<path class="st8" d="M139.5,23.4h-9.8c-0.1,0-0.2-0.1-0.2-0.3l0,0c0-0.1,0.1-0.3,0.2-0.3h9.8c0.1,0,0.2,0.1,0.2,0.3l0,0
			C139.7,23.3,139.6,23.4,139.5,23.4z"/>
		<path class="st8" d="M149.4,23.4h-7.6c-0.1,0-0.2-0.1-0.2-0.3l0,0c0-0.1,0.1-0.3,0.2-0.3h7.6c0.1,0,0.2,0.1,0.2,0.3l0,0
			C149.7,23.3,149.6,23.4,149.4,23.4z"/>
		<path class="st8" d="M149.4,26h-1.9c-0.1,0-0.2-0.1-0.2-0.2l0,0c0-0.1,0.1-0.2,0.2-0.2h1.9c0.1,0,0.2,0.1,0.2,0.2l0,0
			C149.7,25.9,149.6,26,149.4,26z"/>
	</g>
	<path class="st8" d="M148.7,28.7c-0.2,0-0.4,0.2-0.4,0.4c0,0,0,0,0,0l-2.3,1.4c-0.1,0-0.2-0.1-0.3-0.1c-0.2,0-0.3,0.1-0.4,0.2
		l-1.1-0.2c-0.1-0.2-0.3-0.3-0.5-0.3c-0.2,0-0.4,0.2-0.4,0.4c0,0,0,0,0,0l-3.1,1.8c-0.1,0-0.2-0.1-0.3-0.1c-0.1,0-0.1,0-0.2,0.1
		l-1.3-1.6l0,0c0-0.2-0.1-0.4-0.4-0.5c-0.2,0-0.5,0.1-0.5,0.3c0,0,0,0.1,0,0.1l-3.1,1.7c0,0-0.1,0-0.2,0c-0.1,0-0.1,0-0.2,0
		l-0.9-1.1c0,0,0-0.1,0-0.1c0-0.2-0.1-0.4-0.4-0.5c-0.2,0-0.5,0.1-0.5,0.3l-2.1,0.3c-0.1-0.1-0.2-0.1-0.3-0.2
		c-0.2,0-0.5,0.1-0.5,0.3c0,0.2,0.1,0.4,0.4,0.5c0.2,0,0.5-0.1,0.5-0.3c0,0,0,0,0,0l2-0.3c0.1,0.1,0.2,0.2,0.3,0.2
		c0.1,0,0.2,0,0.3,0l0.8,1c0,0-0.1,0.1-0.1,0.1c0,0.2,0.1,0.4,0.4,0.5c0.2,0,0.5-0.1,0.5-0.3c0-0.1,0-0.1,0-0.2l3-1.7
		c0.1,0,0.1,0.1,0.2,0.1c0.1,0,0.2,0,0.3-0.1l1.3,1.6c0,0,0,0.1,0,0.1c0,0.2,0.3,0.4,0.5,0.3c0.2,0,0.4-0.2,0.4-0.4c0,0,0,0,0-0.1
		l3-1.7c0.1,0,0.2,0.1,0.3,0.1c0.2,0,0.3-0.1,0.3-0.2l1.1,0.2c0.1,0.2,0.3,0.3,0.5,0.2c0.2,0,0.4-0.2,0.4-0.4c0,0,0,0,0,0l2.3-1.3
		c0.1,0.1,0.2,0.1,0.3,0.1c0.2,0,0.4-0.2,0.4-0.4C149.2,28.9,148.9,28.7,148.7,28.7z"/>
</g>
<linearGradient id="SVGID_1_" gradientUnits="userSpaceOnUse" x1="37.151" y1="66.5171" x2="49.6945" y2="66.5171" gradientTransform="matrix(1 0 0 -1 0 110.3454)">
	<stop  offset="0" style="stop-color:#00CCE9"/>
	<stop  offset="1" style="stop-color:#66AE4E"/>
</linearGradient>
<path class="st10" d="M48.9,43.5l-1.9-1.7l-0.2-0.2l-0.2-0.2l-3.4-3.1l-0.1-0.1c-1-0.9-2.4-0.8-3.3,0.2l-1.1,1.2
	c0.4,0.5,1,0.8,1.6,0.9l0.9-1c0.2-0.2,0.5-0.2,0.8,0l0.4,0.4l1.6,1.4l0.2,0.2l0.2,0.2l3.3,3c0.2,0.2,0.2,0.5,0,0.8l-0.5,0.5L46,47.4
	L45.5,48c-0.2,0.2-0.5,0.2-0.8,0l-5.7-5.1c-0.2-0.2-0.2-0.5,0-0.8l0.3-0.4h-2.2c-0.3,0.9-0.1,1.8,0.7,2.5l5.7,5.1
	c1,0.9,2.4,0.8,3.3-0.2l0.5-0.5l1.2-1.3l0.5-0.5C49.9,45.8,49.9,44.3,48.9,43.5z"/>
<linearGradient id="SVGID_2_" gradientUnits="userSpaceOnUse" x1="48.4049" y1="56.2919" x2="60.9579" y2="56.2919" gradientTransform="matrix(1 0 0 -1 0 110.3454)">
	<stop  offset="0" style="stop-color:#00CCE9"/>
	<stop  offset="1" style="stop-color:#66AE4E"/>
</linearGradient>
<path class="st11" d="M60.2,53.7l-0.5-0.5l-3.2-2.9l-0.2-0.1L56.2,50l-1.7-1.5c-1-0.9-2.4-0.8-3.3,0.2l-0.5,0.5l-1.2,1.3L49,51.1
	c-0.9,1-0.8,2.4,0.2,3.3l5.7,5.1c0.4,0.4,0.9,0.5,1.4,0.6v-1.8c-0.1,0-0.1-0.1-0.2-0.1l-5.6-5.1c-0.2-0.2-0.2-0.5,0-0.8l0.5-0.5
	l1.2-1.3l0.5-0.5c0.2-0.2,0.5-0.2,0.8,0l2.9,2.6l0.2,0.1l0.2,0.1l1.6,1.5L59,55c0.2,0.2,0.2,0.5,0,0.8l-1,1.1c0.3,0.5,0.8,1,1.4,1.2
	l1-1.1C61.2,56,61.1,54.5,60.2,53.7z"/>
<g>
	<g>
		
			<linearGradient id="SVGID_3_" gradientUnits="userSpaceOnUse" x1="45.6308" y1="61.3829" x2="52.4929" y2="61.3829" gradientTransform="matrix(1 0 0 -1 0 110.3454)">
			<stop  offset="0" style="stop-color:#00CCE9"/>
			<stop  offset="1" style="stop-color:#66AE4E"/>
		</linearGradient>
		<path class="st12" d="M52.3,51.9c-0.3,0.4-0.9,0.4-1.3,0.1l-0.1-0.1l-1.3-1.2l-2.1-1.9L46,47.4l-0.1-0.1c-0.4-0.3-0.4-0.9-0.1-1.3
			s0.9-0.4,1.3-0.1l0.1,0.1l1.3,1.2l2.1,1.9l1.3,1.2l0.1,0.1C52.6,50.9,52.6,51.5,52.3,51.9z"/>
	</g>
</g>
<linearGradient id="SVGID_4_" gradientUnits="userSpaceOnUse" x1="120.5244" y1="68.0656" x2="133.1303" y2="68.0656" gradientTransform="matrix(1 0 0 -1 0 110.3454)">
	<stop  offset="0" style="stop-color:#00CCE9"/>
	<stop  offset="1" style="stop-color:#66AE4E"/>
</linearGradient>
<path class="st13" d="M131,41.7l-5.7,4.6c-0.2,0.2-0.6,0.2-0.8-0.1l-0.5-0.6l-1.1-1.4l-0.5-0.6c-0.2-0.2-0.2-0.6,0.1-0.8l1.5-1.2
	l0.2-0.2l0.2-0.2l3.4-2.8l0.6-0.5c0.2-0.2,0.6-0.2,0.8,0.1l1.3,1.6c0.6-0.1,1.2-0.5,1.6-0.9l-1.5-1.8c-0.7-0.9-2-1.1-3-0.6
	c-0.1,0.1-0.2,0.1-0.3,0.2l-5.7,4.7l-0.2,0.2l0,0c-0.1,0-0.1,0.1-0.2,0.2c-0.9,0.8-0.9,2.2-0.2,3.2l0.5,0.6l1.1,1.4l0.5,0.6
	c0.8,1,2.3,1.2,3.3,0.3l5.9-4.8c0.4-0.3,0.7-0.8,0.8-1.2L131,41.7L131,41.7z"/>
<linearGradient id="SVGID_5_" gradientUnits="userSpaceOnUse" x1="108.7563" y1="58.6091" x2="121.4284" y2="58.6091" gradientTransform="matrix(1 0 0 -1 0 110.3454)">
	<stop  offset="0" style="stop-color:#00CCE9"/>
	<stop  offset="1" style="stop-color:#66AE4E"/>
</linearGradient>
<path class="st14" d="M120.9,49.3l-0.5-0.6l-1.1-1.4l-0.5-0.6c-0.8-1-2.3-1.2-3.3-0.3l-1.2,1l-0.2,0.1l-0.2,0.1l-4.4,3.6
	c-0.7,0.6-1,1.4-0.8,2.2c0.1,0.4,0.2,0.7,0.5,1.1l2.1,2.6c0.1,0.2,0.3,0.3,0.4,0.4c0.4-0.5,0.7-1.1,0.7-1.8c0,0,0-0.1,0-0.1l0,0
	l-1.8-2.2c0,0-0.1-0.1-0.1-0.1c-0.1-0.2,0-0.5,0.2-0.6L114,50l0.2-0.1l0.2-0.1l2.4-1.9c0.2-0.2,0.6-0.2,0.8,0.1l0.5,0.6l1.1,1.4
	l0.5,0.6c0.2,0.2,0.2,0.6-0.1,0.8l-5.1,4.2v2.3c0.1-0.1,0.3-0.2,0.4-0.2l5.9-4.8C121.6,51.7,121.7,50.3,120.9,49.3z"/>
<g>
	<g>
		
			<linearGradient id="SVGID_6_" gradientUnits="userSpaceOnUse" x1="117.421" y1="63.2588" x2="124.5166" y2="63.2588" gradientTransform="matrix(1 0 0 -1 0 110.3454)">
			<stop  offset="0" style="stop-color:#00CCE9"/>
			<stop  offset="1" style="stop-color:#66AE4E"/>
		</linearGradient>
		<path class="st15" d="M124.2,45.6l-0.1,0.1l-1.4,1.1l-2.2,1.8l-1.4,1.1l-0.2,0.1c-0.4,0.3-1,0.3-1.3-0.1c-0.3-0.4-0.3-1,0.1-1.3
			l0.2-0.1l1.4-1.1l2.2-1.8l1.4-1.1l0.1-0.1c0.4-0.3,1-0.3,1.3,0.1C124.6,44.7,124.6,45.3,124.2,45.6z"/>
	</g>
</g>
</svg>
