<?xml version="1.0" encoding="utf-8"?>
<!-- Generator: Adobe Illustrator 18.0.0, SVG Export Plug-In . SVG Version: 6.00 Build 0)  -->
<!DOCTYPE svg PUBLIC "-//W3C//DTD SVG 1.1//EN" "http://www.w3.org/Graphics/SVG/1.1/DTD/svg11.dtd">
<svg version="1.1" id="Layer_1" xmlns="http://www.w3.org/2000/svg" xmlns:xlink="http://www.w3.org/1999/xlink" x="0px" y="0px"
	 viewBox="0 0 138.1 100" enable-background="new 0 0 138.1 100" xml:space="preserve">
<g>
	<path fill="#4E823B" d="M128.3,73.2c0,2.4-1.9,4.3-4.3,4.3H29.2c-2.4,0-4.3-1.9-4.3-4.3v-8.6c0-2.4,1.9-4.3,4.3-4.3h94.8
		c2.4,0,4.3,1.9,4.3,4.3V73.2z"/>
	<path fill="#66AE4E" d="M128.3,67.9c0,2.4-1.9,4.3-4.3,4.3H29.2c-2.4,0-4.3-1.9-4.3-4.3v-5.4c0-2.4,1.9-4.3,4.3-4.3h94.8
		c2.4,0,4.3,1.9,4.3,4.3V67.9z"/>
	<path fill="#4E823B" d="M128.3,62.5c0,2.4-1.9,4.3-4.3,4.3H29.2c-2.4,0-4.3-1.9-4.3-4.3v-8.6c0-2.4,1.9-4.3,4.3-4.3h94.8
		c2.4,0,4.3,1.9,4.3,4.3V62.5z"/>
	<path fill="#66AE4E" d="M128.3,57.1c0,2.4-1.9,4.3-4.3,4.3H29.2c-2.4,0-4.3-1.9-4.3-4.3v-5.4c0-2.4,1.9-4.3,4.3-4.3h94.8
		c2.4,0,4.3,1.9,4.3,4.3V57.1z"/>
	<path fill="#4E823B" d="M128.3,51.7c0,2.4-1.9,4.3-4.3,4.3H29.2c-2.4,0-4.3-1.9-4.3-4.3v-8.6c0-2.4,1.9-4.3,4.3-4.3h94.8
		c2.4,0,4.3,1.9,4.3,4.3V51.7z"/>
	<path fill="#66AE4E" d="M128.3,46.3c0,2.4-1.9,4.3-4.3,4.3H29.2c-2.4,0-4.3-1.9-4.3-4.3v-5.4c0-2.4,1.9-4.3,4.3-4.3h94.8
		c2.4,0,4.3,1.9,4.3,4.3V46.3z"/>
	<path fill="#4E823B" d="M128.3,40.9c0,2.4-1.9,4.3-4.3,4.3H29.2c-2.4,0-4.3-1.9-4.3-4.3v-5c0-2.4,1.9-4.3,4.3-4.3h94.8
		c2.4,0,4.3,1.9,4.3,4.3V40.9z"/>
	<path opacity="0.2" fill="#7A7A7A" d="M122.9,77.6h1.1c1.3,0,2.4-0.6,3.2-1.5V34.5h-4.3V77.6z"/>
	<path fill="#66AE4E" d="M128.3,35.5c0,2.4-1.9,4.3-4.3,4.3H29.2c-2.4,0-4.3-1.9-4.3-4.3V4.3c0-2.4,1.9-4.3,4.3-4.3h94.8
		c2.4,0,4.3,1.9,4.3,4.3V35.5z"/>
	<path fill="#4E823B" d="M61.5,30.2H43.6c-1.2-1.8-4-5.4-8-5.4v-9.7c4,0,6.8-3.5,8-5.4h17.9c1.2-1.7,2.6-3.1,4.3-4.3H33.5
		c-1.2,0-2.2,1-2.2,2.2v24.8c0,1.2,1,2.2,2.2,2.2h32.3C64.1,33.3,62.7,31.8,61.5,30.2z"/>
	<path fill="#4E823B" d="M119.6,5.4H86.2c1.7,1.2,3.1,2.6,4.3,4.3h19c1.2,1.8,4,5.4,8,5.4v9.7c-4,0-6.8,3.5-8,5.4h-19
		c-1.2,1.7-2.6,3.1-4.3,4.3h33.4c1.2,0,2.2-1,2.2-2.2V7.5C121.8,6.4,120.8,5.4,119.6,5.4z"/>
	<circle fill="#4E823B" cx="76" cy="19.9" r="14.7"/>
	<path fill="#66AE4E" d="M76,5.4c8,0,14.5,6.5,14.5,14.5S84,34.5,76,34.5c-8,0-14.5-6.5-14.5-14.5S68,5.4,76,5.4L76,5.4z M76,2.2
		c-9.8,0-17.8,8-17.8,17.8c0,9.8,8,17.8,17.8,17.8c9.8,0,17.8-8,17.8-17.8C93.8,10.1,85.8,2.2,76,2.2L76,2.2z"/>
	<path fill="#66AE4E" d="M84.7,27c-0.4-1.5-3.1-2.5-5.3-3.3c-0.7-0.2-0.8-1.2-0.9-2.1c0.3-0.2,0.6-0.5,0.8-0.9
		c0.4-0.6,0.8-1,1.1-1.8c0.2,0,0.4-0.2,0.5-0.4c0.5-0.8,0.7-2,0.6-2.3c-0.1-0.2-0.3-0.3-0.5-0.3c0.1-2.7-1.3-4.4-3-5
		c-0.4-0.2-1-0.4-2-0.6c-0.5-0.1-0.9-0.4-0.9-0.6c-0.2,0-0.8,0.8-0.5,1.1c0,0-1.4-0.1-1.7,0.8c0,0,0.1,0,0.3,0
		c-1.1,0.9-1.8,2.3-1.7,4.3c-0.2,0-0.5,0-0.6,0.3c-0.2,0.4,0.1,1.6,0.6,2.3c0.1,0.2,0.4,0.4,0.6,0.4c0.3,0.7,0.7,1.2,1.1,1.7
		c0.3,0.4,0.6,0.7,0.9,1c0,0.8-0.2,1.6-0.9,1.8c-1.3,0.4-5.1,1.7-5.7,3.5l1.1,1c0,0,3.2-1.1,7.7-1.1c4.5,0,7.3,1.1,7.3,1.1L84.7,27z
		"/>
	<g>
		<path fill="#E3AB00" d="M135.4,85.6c-3.1-2.6-8.7-4.3-15.1-4.3c-6.4,0-11.9,1.7-15.1,4.3h-2.7V91h0.1c0.5,4.8,8.3,8.6,17.7,8.6
			c9.5,0,17.2-3.8,17.7-8.6h0.1v-5.4H135.4z"/>
		<linearGradient id="SVGID_1_" gradientUnits="userSpaceOnUse" x1="102.5814" y1="86.1763" x2="138.1291" y2="86.1763">
			<stop  offset="0" style="stop-color:#F5CA3F"/>
			<stop  offset="1" style="stop-color:#EEC02D"/>
		</linearGradient>
		<path fill="url(#SVGID_1_)" d="M135.4,81.3c-3.1-2.6-8.7-4.3-15.1-4.3c-6.4,0-11.9,1.7-15.1,4.3h-2.7v5.4h0.1
			c0.5,4.8,8.3,8.6,17.7,8.6c9.5,0,17.2-3.8,17.7-8.6h0.1v-5.4H135.4z"/>
		<path fill="#E3AB00" d="M135.4,77c-3.1-2.6-8.7-4.3-15.1-4.3c-6.4,0-11.9,1.7-15.1,4.3h-2.7v5.4h0.1c0.5,4.8,8.3,8.6,17.7,8.6
			c9.5,0,17.2-3.8,17.7-8.6h0.1V77H135.4z"/>
		<linearGradient id="SVGID_2_" gradientUnits="userSpaceOnUse" x1="102.5814" y1="77.5586" x2="138.1291" y2="77.5586">
			<stop  offset="0" style="stop-color:#F5CA3F"/>
			<stop  offset="1" style="stop-color:#EEC02D"/>
		</linearGradient>
		<path fill="url(#SVGID_2_)" d="M135.4,72.7c-3.1-2.6-8.7-4.3-15.1-4.3c-6.4,0-11.9,1.7-15.1,4.3h-2.7v5.4h0.1
			c0.5,4.8,8.3,8.6,17.7,8.6c9.5,0,17.2-3.8,17.7-8.6h0.1v-5.4H135.4z"/>
		<path fill="#E3AB00" d="M135.4,68.4c-3.1-2.6-8.7-4.3-15.1-4.3c-6.4,0-11.9,1.7-15.1,4.3h-2.7v5.4h0.1c0.5,4.8,8.3,8.6,17.7,8.6
			c9.5,0,17.2-3.8,17.7-8.6h0.1v-5.4H135.4z"/>
		<linearGradient id="SVGID_3_" gradientUnits="userSpaceOnUse" x1="102.5814" y1="68.941" x2="138.1291" y2="68.941">
			<stop  offset="0" style="stop-color:#F5CA3F"/>
			<stop  offset="1" style="stop-color:#EEC02D"/>
		</linearGradient>
		<path fill="url(#SVGID_3_)" d="M135.4,64.1c-3.1-2.6-8.7-4.3-15.1-4.3c-6.4,0-11.9,1.7-15.1,4.3h-2.7v5.4h0.1
			c0.5,4.8,8.3,8.6,17.7,8.6c9.5,0,17.2-3.8,17.7-8.6h0.1v-5.4H135.4z"/>
		<path fill="#E3AB00" d="M135.4,59.8c-3.1-2.6-8.7-4.3-15.1-4.3c-6.4,0-11.9,1.7-15.1,4.3h-2.7v5.4h0.1c0.5,4.8,8.3,8.6,17.7,8.6
			c9.5,0,17.2-3.8,17.7-8.6h0.1v-5.4H135.4z"/>
		<linearGradient id="SVGID_4_" gradientUnits="userSpaceOnUse" x1="102.5814" y1="60.3234" x2="138.1291" y2="60.3234">
			<stop  offset="0" style="stop-color:#FFD242"/>
			<stop  offset="1" style="stop-color:#FFCE30"/>
		</linearGradient>
		<ellipse fill="url(#SVGID_4_)" cx="120.4" cy="60.3" rx="17.8" ry="9.2"/>
		<path fill="#E3AB00" d="M120.4,54.5c7.4,0,12.4,3,12.4,5.9c0,2.8-5,5.9-12.4,5.9c-7.4,0-12.4-3-12.4-5.9
			C108,57.5,112.9,54.5,120.4,54.5L120.4,54.5z M120.4,53.4c-7.4,0-13.5,3.1-13.5,6.9s6,6.9,13.5,6.9c7.4,0,13.5-3.1,13.5-6.9
			S127.8,53.4,120.4,53.4L120.4,53.4z"/>
		<linearGradient id="SVGID_5_" gradientUnits="userSpaceOnUse" x1="50.337" y1="90.8438" x2="85.8847" y2="90.8438">
			<stop  offset="0" style="stop-color:#F5CA3F"/>
			<stop  offset="1" style="stop-color:#EEC02D"/>
		</linearGradient>
		<path fill="url(#SVGID_5_)" d="M83.2,86c-3.1-2.6-8.7-4.3-15.1-4.3c-6.4,0-11.9,1.7-15.1,4.3h-2.7v5.4h0.1
			c0.5,4.8,8.3,8.6,17.7,8.6c9.5,0,17.2-3.8,17.7-8.6h0.1V86H83.2z"/>
		<path fill="#E3AB00" d="M83.2,81.7c-3.1-2.6-8.7-4.3-15.1-4.3c-6.4,0-11.9,1.7-15.1,4.3h-2.7v5.4h0.1c0.5,4.8,8.3,8.6,17.7,8.6
			c9.5,0,17.2-3.8,17.7-8.6h0.1v-5.4H83.2z"/>
		<linearGradient id="SVGID_6_" gradientUnits="userSpaceOnUse" x1="50.337" y1="82.2262" x2="85.8847" y2="82.2262">
			<stop  offset="0" style="stop-color:#F5CA3F"/>
			<stop  offset="1" style="stop-color:#EEC02D"/>
		</linearGradient>
		<path fill="url(#SVGID_6_)" d="M83.2,77.4c-3.1-2.6-8.7-4.3-15.1-4.3c-6.4,0-11.9,1.7-15.1,4.3h-2.7v5.4h0.1
			c0.5,4.8,8.3,8.6,17.7,8.6c9.5,0,17.2-3.8,17.7-8.6h0.1v-5.4H83.2z"/>
		<path fill="#E3AB00" d="M83.2,73.1c-3.1-2.6-8.7-4.3-15.1-4.3c-6.4,0-11.9,1.7-15.1,4.3h-2.7v5.4h0.1c0.5,4.8,8.3,8.6,17.7,8.6
			c9.5,0,17.2-3.8,17.7-8.6h0.1v-5.4H83.2z"/>
		<linearGradient id="SVGID_7_" gradientUnits="userSpaceOnUse" x1="50.337" y1="73.6085" x2="85.8847" y2="73.6085">
			<stop  offset="0" style="stop-color:#FFD242"/>
			<stop  offset="1" style="stop-color:#FFCE30"/>
		</linearGradient>
		<ellipse fill="url(#SVGID_7_)" cx="68.1" cy="73.6" rx="17.8" ry="9.2"/>
		<path fill="#E3AB00" d="M68.1,67.7c7.4,0,12.4,3,12.4,5.9c0,2.8-5,5.9-12.4,5.9c-7.4,0-12.4-3-12.4-5.9
			C55.7,70.8,60.7,67.7,68.1,67.7L68.1,67.7z M68.1,66.7c-7.4,0-13.5,3.1-13.5,6.9c0,3.8,6,6.9,13.5,6.9c7.4,0,13.5-3.1,13.5-6.9
			C81.6,69.8,75.5,66.7,68.1,66.7L68.1,66.7z"/>
		<path fill="#E3AB00" d="M32.8,84.2c-3.1-2.6-8.7-4.3-15.1-4.3S5.9,81.6,2.7,84.2H0v5.4h0.1c0.5,4.8,8.3,8.6,17.7,8.6
			c9.5,0,17.2-3.8,17.7-8.6h0.1v-5.4H32.8z"/>
		<linearGradient id="SVGID_8_" gradientUnits="userSpaceOnUse" x1="9.243010e-004" y1="84.7646" x2="35.5486" y2="84.7646">
			<stop  offset="0" style="stop-color:#FFD242"/>
			<stop  offset="1" style="stop-color:#FFCE30"/>
		</linearGradient>
		<ellipse fill="url(#SVGID_8_)" cx="17.8" cy="84.8" rx="17.8" ry="9.2"/>
		<path fill="#E3AB00" d="M17.8,79c7.4,0,12.4,3,12.4,5.9s-5,5.9-12.4,5.9s-12.4-3-12.4-5.9S10.4,79,17.8,79L17.8,79z M17.8,77.9
			c-7.4,0-13.5,3.1-13.5,6.9c0,3.8,6,6.9,13.5,6.9c7.4,0,13.5-3.1,13.5-6.9C31.2,81,25.2,77.9,17.8,77.9L17.8,77.9z"/>
		<path fill="#E3AB00" d="M12.9,83.5L12.9,83.5L11.1,84l-0.3-0.9l2.4-0.6h1.8v5h-2.1V83.5z"/>
		<path fill="#E3AB00" d="M24.1,84.9c0,1.5-1.1,2.6-3.5,2.6c-2.3,0-3.4-1.2-3.4-2.6c0-1.4,1.1-2.6,3.5-2.6
			C23.1,82.4,24.1,83.6,24.1,84.9z M19.4,85c0,1.1,0.5,1.7,1.3,1.7c0.8,0,1.3-0.6,1.3-1.7c0-1.1-0.4-1.7-1.3-1.7
			C19.9,83.3,19.4,83.8,19.4,85z"/>
		<text transform="matrix(1.4612 0 0 1 60.8423 76.8422)" fill="#E3AB00" font-family="'Poppins-SemiBold'" font-size="8.3934">20</text>
		<text transform="matrix(1.4612 0 0 1 113.3559 63.1078)" fill="#E3AB00" font-family="'Poppins-SemiBold'" font-size="8.3934">30</text>
	</g>
</g>
</svg>
