<?xml version="1.0" encoding="utf-8"?>
<!-- Generator: Adobe Illustrator 18.0.0, SVG Export Plug-In . SVG Version: 6.00 Build 0)  -->
<!DOCTYPE svg PUBLIC "-//W3C//DTD SVG 1.1//EN" "http://www.w3.org/Graphics/SVG/1.1/DTD/svg11.dtd">
<svg version="1.1" id="Layer_1" xmlns="http://www.w3.org/2000/svg" xmlns:xlink="http://www.w3.org/1999/xlink" x="0px" y="0px"
	 viewBox="0 0 100 100.1" enable-background="new 0 0 100 100.1" xml:space="preserve">
<g>
	<g>
		<path fill="#CDD5D7" d="M35.2,75L75,35.2c6.6,2.6,14.4,1.3,19.7-4.1c3.3-3.3,5-7.5,5.3-11.8l-7.7,7.7l-12.4-3.3l-3.3-12.4
			L87.1,0.8c-6.3-1.9-13.3-0.4-18.3,4.6c-5.3,5.3-6.7,13.1-4.1,19.7L25,64.8c-6.6-2.6-14.4-1.3-19.7,4.1c-4.2,4.2-5.9,9.9-5.2,15.4
			l9.8-9.8l10.2,2.7l2.7,10.2L11.5,98.8c6.6,2.6,14.4,1.3,19.7-4C36.5,89.4,37.9,81.6,35.2,75z"/>
		<path fill="#B7BEC0" d="M35.2,75L75,35.2c6.6,2.6,14.4,1.3,19.7-4.1c3.3-3.3,5-7.5,5.3-11.8l-7.7,7.7l-12.4-3.3l-1.1-4.3
			L20.4,77.8l2.5,9.5L11.5,98.8c6.6,2.6,14.4,1.3,19.7-4C36.5,89.4,37.9,81.6,35.2,75z"/>
	</g>
	<g>
		<polygon fill="#CDD5D7" points="18.8,9.8 5.8,1.4 1.2,6 9.6,19 14.8,19.7 15,19.5 54,58.5 58.3,54.2 19.3,15.2 19.5,15.1 		"/>
		<polygon fill="#E5E8EC" points="3,4.3 55.5,56.9 58.3,54.2 19.3,15.2 19.5,15.1 18.8,9.8 5.8,1.4 		"/>
		<g>
			<path fill="#509337" d="M70.6,55.3c-1.2-1.1-2.8-1.4-4.3-0.9c0.2-1.9-0.6-4.1-1.8-5.3c-0.6-0.6-1.2-1.2-1.6-1.6
				c-1.6-1.6-2.1-2.1-2.1-2.1c-0.5-0.5-1-1-1.6-1.6c-1.6-1.6-4.2-1.6-5.8,0c-3.3,3.3-6.6,6.6-9.9,9.9c-1.6,1.6-1.6,4.2,0,5.8
				c0.6,0.6,1.2,1.2,1.6,1.6c1.6,1.6,2.1,2.1,2.1,2.1c0.5,0.5,1,1,1.6,1.6c1.2,1.2,3.4,2,5.3,1.8c-0.7,1.5-0.4,3.3,0.9,4.5
				c10.3,10.1,14.3,14.1,24.5,24.2c1.6,1.6,4.8,2.4,6.9,1.3c4.4-2.2,7.9-5.8,10-10.2c1-2.1,0.2-5.3-1.4-6.9
				C84.9,69.4,80.9,65.4,70.6,55.3z"/>
			<path fill="#66AE4E" d="M66.4,54.4c0.2-1.9-0.6-4.1-1.8-5.3c-0.6-0.6-1.2-1.2-1.6-1.6c-1.6-1.6-2.1-2.1-2.1-2.1
				c-0.5-0.5-1-1-1.6-1.6c-1.6-1.6-4.2-1.6-5.8,0c-1.7,1.7-3.3,3.3-5,5l43.8,43.8c1.8-1.8,3.3-3.8,4.4-6.1c1-2.1,0.2-5.3-1.4-6.9
				C84.9,69.4,80.9,65.4,70.6,55.3C69.5,54.2,67.8,53.9,66.4,54.4z"/>
			<g>
				<path fill="#66AE4E" d="M83.5,86.6c0.7,0.7,0.7,1.9,0,2.6l0,0c-0.7,0.7-1.9,0.7-2.6,0L61.3,69.7c-0.7-0.7-0.7-1.9,0-2.6l0,0
					c0.7-0.7,1.9-0.7,2.6,0L83.5,86.6z"/>
				<path fill="#509337" d="M89.1,81c0.7,0.7,0.7,1.9,0,2.6l0,0c-0.7,0.7-1.9,0.7-2.6,0L66.9,64.2c-0.7-0.7-0.7-1.9,0-2.6l0,0
					c0.7-0.7,1.9-0.7,2.6,0L89.1,81z"/>
			</g>
			<g>
				<path fill="#66AE4E" d="M44.8,54.9c3.3-3.3,6.6-6.6,9.9-9.9c1.6-1.6,4.2-1.6,5.8,0c-0.2-0.2-0.3-0.3-0.3-0.3
					c-0.5-0.5-0.3-0.3-0.9-0.9c-1.6-1.6-4.2-1.6-5.8,0c-3.3,3.3-6.6,6.6-9.9,9.9c-1.6,1.6-1.6,4.2,0,5.8c0.6,0.6,0.5,0.5,0.9,0.9
					c0.1,0.1,0.2,0.2,0.3,0.3C43.2,59.1,43.2,56.5,44.8,54.9z"/>
			</g>
		</g>
	</g>
</g>
</svg>
