<?xml version="1.0" encoding="utf-8"?>
<!-- Generator: Adobe Illustrator 18.0.0, SVG Export Plug-In . SVG Version: 6.00 Build 0)  -->
<!DOCTYPE svg PUBLIC "-//W3C//DTD SVG 1.1//EN" "http://www.w3.org/Graphics/SVG/1.1/DTD/svg11.dtd">
<svg version="1.1" id="Layer_1" xmlns="http://www.w3.org/2000/svg" xmlns:xlink="http://www.w3.org/1999/xlink" x="0px" y="0px"
	 viewBox="0 0 100 77.6" enable-background="new 0 0 100 77.6" xml:space="preserve">
<g>
	<g>
		<path fill="#CDD5D7" d="M100,70.7c0,3.8-3.1,6.9-6.9,6.9H6.9c-3.8,0-6.9-3.1-6.9-6.9V12.9C0,9.1,3.1,6,6.9,6h86.2
			c3.8,0,6.9,3.1,6.9,6.9V70.7z"/>
		<path opacity="0.4" fill="#7A7A7A" d="M23.7,77.6H94c0,0,6-0.9,6-6c0-5.2,0-55.2,0-55.2l-7.8-5.2h-3.4L72.4,6L7.8,70.7L23.7,77.6z
			"/>
		<rect x="7.8" y="11.2" fill="#FFFFFF" width="84.5" height="59.5"/>
		<path fill="#66AE4E" d="M74.7,10.6l-2-4c-0.6-1.3-2.3-2.3-3.7-2.3h-8.6V3.5c0-1.9-1.6-3.4-3.4-3.4H44c-1.9,0-3.4,1.6-3.4,3.4v0.9
			H31c-1.4,0-3.1,1-3.7,2.3l-2,4c-0.6,1.3,0,2.3,1.4,2.3h46.6C74.7,12.9,75.3,11.9,74.7,10.6z M56,4.3c0,0.5-0.4,0.9-0.9,0.9h-9.5
			c-0.5,0-0.9-0.4-0.9-0.9V3.5c0-0.5,0.4-0.9,0.9-0.9h9.5C55.6,2.6,56,3,56,3.5V4.3z"/>
		<path fill="#66AE4E" d="M27.3,6.6l-1,2h47.4l-1-2c-0.6-1.3-2.3-2.3-3.7-2.3h-8.6H56c0,0.5-0.4,0.9-0.9,0.9h-9.5
			c-0.5,0-0.9-0.4-0.9-0.9h-4.3H31C29.6,4.3,27.9,5.4,27.3,6.6z"/>
		<path fill="#589641" d="M26.7,12.9h46.6c1.2,0,1.8-0.7,1.6-1.7H25.1C24.9,12.2,25.5,12.9,26.7,12.9z"/>
	</g>
	<path fill="#F0CA67" d="M35,45.7c0-0.1-0.2-0.4-0.6-0.4l-3.7-0.3c-0.1,0-0.2-0.1-0.2-0.2L29,41.4c-0.2-0.4-0.5-0.5-0.6-0.5
		c-0.1,0-0.4,0-0.6,0.5l-1.4,3.5c0,0.1-0.2,0.2-0.2,0.2l-3.7,0.3c-0.4,0-0.6,0.3-0.6,0.4c0,0.1-0.1,0.4,0.3,0.7l2.9,2.4
		c0.1,0,0.1,0.2,0.1,0.3l-0.9,3.6c-0.1,0.3,0,0.5,0.1,0.6c0.2,0.2,0.5,0.3,0.9,0.1l3.2-2c0,0,0.2,0,0.3,0l3.2,2
		c0.1,0.1,0.3,0.1,0.4,0.1c0.2,0,0.3-0.1,0.4-0.2c0.1-0.1,0.2-0.3,0.1-0.6l-0.9-3.6c0-0.1,0-0.2,0.1-0.3l2.9-2.4
		C35,46.1,35,45.8,35,45.7z"/>
	<path fill="#F0CA67" d="M78.1,45.7c0-0.1-0.2-0.4-0.6-0.4l-3.7-0.3c-0.1,0-0.2-0.1-0.2-0.2l-1.4-3.5c-0.2-0.4-0.5-0.5-0.6-0.5
		c-0.1,0-0.4,0-0.6,0.5l-1.4,3.5c0,0.1-0.2,0.2-0.2,0.2l-3.7,0.3c-0.4,0-0.6,0.3-0.6,0.4c0,0.1-0.1,0.4,0.3,0.7l2.9,2.4
		c0.1,0,0.1,0.2,0.1,0.3l-0.9,3.6c-0.1,0.3,0,0.5,0.1,0.6c0.2,0.2,0.5,0.3,0.9,0.1l3.2-2c0,0,0.2,0,0.3,0l3.2,2
		c0.1,0.1,0.3,0.1,0.4,0.1c0.2,0,0.3-0.1,0.4-0.2c0.1-0.1,0.2-0.3,0.1-0.6l-0.9-3.6c0-0.1,0-0.2,0.1-0.3l2.9-2.4
		C78.1,46.1,78.1,45.8,78.1,45.7z"/>
	<path fill="#F0CA67" d="M86.5,49.4c0-0.1-0.1-0.2-0.3-0.2l-2-0.1c0,0-0.1-0.1-0.1-0.1l-0.7-1.9c-0.1-0.2-0.2-0.2-0.3-0.2
		c-0.1,0-0.2,0-0.3,0.2L82,49c0,0-0.1,0.1-0.1,0.1l-2,0.1c-0.2,0-0.3,0.2-0.3,0.2c0,0.1,0,0.2,0.1,0.4l1.5,1.3c0,0,0.1,0.1,0,0.1
		l-0.5,1.9c0,0.2,0,0.3,0.1,0.3c0.1,0.1,0.3,0.2,0.5,0l1.7-1.1c0,0,0.1,0,0.2,0l1.7,1.1c0.1,0,0.1,0.1,0.2,0.1c0.1,0,0.2,0,0.2-0.1
		c0-0.1,0.1-0.2,0.1-0.3l-0.5-1.9c0,0,0-0.1,0-0.1l1.5-1.3C86.6,49.6,86.6,49.5,86.5,49.4z"/>
	<path fill="#F0CA67" d="M20.5,49.4c0-0.1-0.1-0.2-0.3-0.2l-2-0.1c0,0-0.1-0.1-0.1-0.1l-0.7-1.9c-0.1-0.2-0.2-0.2-0.3-0.2
		c-0.1,0-0.2,0-0.3,0.2L15.9,49c0,0-0.1,0.1-0.1,0.1l-2,0.1c-0.2,0-0.3,0.2-0.3,0.2c0,0.1,0,0.2,0.1,0.4l1.5,1.3c0,0,0.1,0.1,0,0.1
		l-0.5,1.9c0,0.2,0,0.3,0.1,0.3c0.1,0.1,0.3,0.2,0.5,0l1.7-1.1c0,0,0.1,0,0.2,0l1.7,1.1c0.1,0,0.1,0.1,0.2,0.1c0.1,0,0.2,0,0.2-0.1
		c0-0.1,0.1-0.2,0.1-0.3l-0.5-1.9c0,0,0-0.1,0-0.1l1.5-1.3C20.5,49.6,20.5,49.5,20.5,49.4z"/>
	<g>
		<path fill="#F0CA67" d="M65.5,37.4c-0.1-0.3-0.4-0.9-1.4-1l-8.6-0.6c-0.2,0-0.5-0.2-0.5-0.4l-3.2-8c-0.4-0.9-1.1-1-1.3-1
			c-0.3,0-1,0.1-1.3,1l-3.2,8c-0.1,0.2-0.4,0.4-0.5,0.4l-8.6,0.6c-1,0.1-1.3,0.7-1.4,1c-0.1,0.3-0.2,1,0.6,1.6l6.6,5.5
			c0.1,0.1,0.2,0.5,0.2,0.6l-2.1,8.4c-0.2,0.7,0,1.1,0.2,1.4c0.4,0.5,1.2,0.6,2,0.2l7.3-4.6c0.1-0.1,0.5-0.1,0.7,0l7.3,4.6
			c0.3,0.2,0.6,0.3,0.9,0.3c0.4,0,0.8-0.2,1-0.5c0.2-0.3,0.4-0.7,0.2-1.4l-2.1-8.4c0-0.2,0.1-0.5,0.2-0.6l6.6-5.5
			C65.7,38.4,65.6,37.7,65.5,37.4z"/>
		<g opacity="0.4">
			<path fill="#FFF5B8" d="M45.5,37.7c-0.8,0.1-1.9,0.2-2.2,0.2L39,38.3c-0.1,0-0.2,0.1-0.3,0.1l9.8,3.5L45.5,37.7z"/>
			<path fill="#FFF5B8" d="M52.5,41.9l10.4-3.6c-0.1-0.1-0.4-0.2-0.7-0.3l-5-0.2c-0.3,0-1.1,0.1-1.5,0L52.5,41.9z"/>
			<path fill="#FFF5B8" d="M50,40.4V30c0,0.1-0.1,0.2-0.1,0.3l-1.9,4.5c-0.2,0.4-0.4,0.8-0.6,1.4L50,40.4z"/>
			<path fill="#FFF5B8" d="M56.8,47.7c-0.1-0.4-0.3-1-0.4-1.6l-4.9-1.5v0.3l6.4,7.5c0.1-0.1,0.2-0.3,0.1-0.5L56.8,47.7z"/>
			<path fill="#FFF5B8" d="M44.5,45.9c-0.3,0.7-0.8,2.4-0.9,3l-0.9,3.5c-0.1,0.3,0,0.5,0.1,0.6l5.9-8.4L44.5,45.9z"/>
		</g>
	</g>
</g>
</svg>
