<?xml version="1.0" encoding="utf-8"?>
<!-- Generator: Adobe Illustrator 22.0.1, SVG Export Plug-In . SVG Version: 6.00 Build 0)  -->
<svg version="1.1" id="Illustration" xmlns="http://www.w3.org/2000/svg" xmlns:xlink="http://www.w3.org/1999/xlink" x="0px"
	 y="0px" viewBox="0 0 134.4 130.8" style="enable-background:new 0 0 134.4 130.8;" xml:space="preserve">
<style type="text/css">
	.st0{fill:#F4F7FA;}
	.st1{fill:#AEB7C4;}
	.st2{fill:#D8DEE8;}
	.st3{fill:url(#SVGID_1_);}
	.st4{fill:url(#SVGID_2_);}
	.st5{fill:url(#SVGID_3_);}
	.st6{fill:#43627D;}
	.st7{opacity:0.3;fill:#FFFFFF;enable-background:new    ;}
	.st8{fill:#66AE4E;}
	.st9{opacity:0.2;fill:#FFFFFF;enable-background:new    ;}
	.st10{opacity:0.5;}
	.st11{fill:url(#SVGID_4_);}
	.st12{opacity:0.2;}
	.st13{fill:#FFFFFF;}
	.st14{fill:url(#SVGID_5_);}
</style>
<path class="st0" d="M36.3,8.1C32,14.4,37,24.6,30.6,29.4c-6.3,4.6-14-2.9-19.9,1C2,36.2,3.6,63.2,16.4,79.9c3.9,5,7.1,7,8.5,12.7
	c3.1,12.2-7.7,19.5-5.7,25.6c4.6,13.6,75.5,25.1,104-15.9c13.3-19.1,15.3-46.7,3.4-67.7C105.2-3.3,46.1-6.1,36.3,8.1z"/>
<g>
	<path class="st1" d="M-0.3,43.1l-0.2,4.4c0,1.3,1,2.3,2.3,2.3l2.4-0.1c0.2,2.1,0.7,4.1,1.4,6.1l-2,1.2c-1.2,0.7-1.6,2.2-1,3.3
		L4.7,64c0.6,1.1,3.7,1.7,4.8,1l0.4-1.5c1.3,1.6,2.8,3.1,4.4,4.4l-1.1,1.9C12.5,71,12.8,72.4,14,73l3.8,2c1.1,0.6,4.8,0.7,5.5-0.5
		L22.2,72c2,0.7,4.1,1.1,6.3,1.4l-0.1,2c0,1.3,1,2.3,2.3,2.2l4.5-0.2c1.3-0.1,2.4-1.2,2.4-2.5l0.1-2c2.2-0.4,4.3-1.1,6.3-2l0.9,1.7
		c0.6,1.1,4.4,1.6,5.5,0.9l1.6-2.6c1.1-0.7,1.6-2.1,1-3.2L52,66c1.7-1.4,3.2-3,4.6-4.7l1.8,1c1.1,0.6,4.3,0.9,5-0.3l0.5-4.6
		c0.7-1.1,0.3-2.5-0.7-3.1l-1.9-1c0.8-2,1.4-4,1.7-6.1l2.3-0.1c1.3-0.1,2.4-1.1,2.4-2.4l0.1-4.4c0-1.3-1-2.3-2.2-2.2l-2.5,0.1
		c-0.3-2-0.8-4-1.5-5.8l2.3-1.4c1.1-0.7,1.6-2.1,1-3.2l0.4-4.3c-0.6-1.1-4.5-0.8-5.6-0.1l-2.4,1.4c-1.2-1.5-2.6-2.8-4.2-4l1.5-2.4
		c0.7-1.1,0.3-2.5-0.7-3.1l-1.6-2.4c-1.1-0.6-4.7,0.1-5.3,1.3l-1.5,2.5c-1.8-0.6-3.8-1.1-5.8-1.3l0.1-2.9c0-1.3-1-2.3-2.3-2.3
		l-4.5,0c-1.3,0-2.4,1.1-2.5,2.4l-0.1,2.9c-2,0.4-4,1-5.9,1.7l0.9-3c-0.6-1.1-4.3-0.8-5.5-0.1l-4,2.3c-1.2,0.7-1.6,2.1-1,3.2
		l1.3,2.4c-1.7,1.3-3.2,2.8-4.6,4.4l0.1-1.5c-1-0.6-5,0.1-5.7,1.2L3.6,30c-0.7,1.2-0.4,2.6,0.8,3.2l2.3,1.2c-0.8,1.9-1.5,4-1.9,6
		l-2.6,0.1C0.8,40.7-0.3,41.8-0.3,43.1z M11,45.2C11.4,32.6,22.1,22,34.8,21.6c12.6-0.5,22.5,9.2,22,21.7c-0.4,12.4-11,23-23.6,23.6
		S10.6,57.8,11,45.2z"/>
	<path class="st2" d="M2.6,43l-0.2,4.4c0,1.3,1,2.3,2.3,2.3l2.4-0.1c0.2,2.1,0.7,4.1,1.4,6.1l-2,1.2c-1.2,0.7-1.6,2.2-1,3.3l2.1,3.7
		c0.6,1.1,2.1,1.4,3.3,0.7l1.9-1.2c1.3,1.6,2.8,3.1,4.4,4.4l-1.1,1.9c-0.7,1.2-0.4,2.6,0.8,3.2l3.8,2c1.1,0.6,2.6,0.1,3.3-1l1.1-1.8
		c2,0.7,4.1,1.1,6.3,1.4l-0.1,2c0,1.3,1,2.3,2.3,2.2l4.5-0.2c1.3-0.1,2.4-1.2,2.4-2.5l0.1-2c2.2-0.4,4.3-1.1,6.3-2l0.9,1.7
		c0.6,1.1,2,1.4,3.2,0.7l3.9-2.4c1.1-0.7,1.6-2.1,1-3.2l-1-1.7c1.7-1.4,3.2-3,4.6-4.7l1.8,1c1.1,0.6,2.5,0.1,3.2-1l2.3-3.9
		c0.7-1.1,0.3-2.5-0.7-3.1l-1.9-1c0.8-2,1.4-4,1.7-6.1l2.3-0.1c1.3-0.1,2.4-1.1,2.4-2.4l0.1-4.4c0-1.3-1-2.3-2.2-2.2L66.2,38
		c-0.3-2-0.8-4-1.5-5.8l2.3-1.4c1.1-0.7,1.6-2.1,1-3.2L65.8,24c-0.6-1.1-2-1.4-3.2-0.7l-2.4,1.4c-1.2-1.5-2.6-2.8-4.2-4l1.5-2.4
		c0.7-1.1,0.3-2.5-0.7-3.1L53.1,13c-1.1-0.6-2.5-0.2-3.2,1l-1.5,2.5c-1.8-0.6-3.8-1.1-5.8-1.3l0.1-2.9c0-1.3-1-2.3-2.3-2.3L36,10.2
		c-1.3,0-2.4,1.1-2.5,2.4l-0.1,2.9c-2,0.4-4,1-5.9,1.7l-1.4-2.4c-0.6-1.1-2.1-1.4-3.2-0.7l-4,2.3c-1.2,0.7-1.6,2.1-1,3.2l1.3,2.4
		c-1.7,1.3-3.2,2.8-4.6,4.4l-2.4-1.3c-1.1-0.6-2.6-0.2-3.3,1L6.6,30c-0.7,1.2-0.4,2.6,0.8,3.2l2.3,1.2c-0.8,1.9-1.5,4-1.9,6
		l-2.6,0.1C3.8,40.6,2.7,41.7,2.6,43z M13,45.2c0.4-13.1,11.6-24.1,24.8-24.6s23.4,9.6,23,22.6c-0.4,13-11.4,24-24.6,24.6
		C23,68.5,12.6,58.4,13,45.2z"/>
</g>
<linearGradient id="SVGID_1_" gradientUnits="userSpaceOnUse" x1="158.4256" y1="160.8969" x2="0.5077" y2="-113.4994" gradientTransform="matrix(1 0 0 -1 0 130)">
	<stop  offset="0" style="stop-color:#444B8C"/>
	<stop  offset="0.9964" style="stop-color:#3E4177"/>
</linearGradient>
<path class="st3" d="M107.4,77l-14.6,0.4c-1.6,0-2.6,2-1.6,3.4c4.6,7.1-0.7,14-5,14.4c-5,0.5-10.1-2.2-9.6-8.4
	c0.2-2.7,0.9-4.8,1.6-6.4c0.7-1.5-0.3-3.1-1.8-3.1l-17.3,0.5v15.4c0,1.2,1.2,1.9,2.2,1.3c1.4-0.8,3.6-1.6,6.5-1.4
	c5.8,0.3,9.2,5.3,7,9.5c-4.1,8.2-9.4,6.3-12.5,4.2c-1-0.7-2.4,0.2-2.4,1.4V126l45.2-2.9c1.5-0.1,2.7-1.4,2.7-2.9l0.6-43L107.4,77z"
	/>
<linearGradient id="SVGID_2_" gradientUnits="userSpaceOnUse" x1="44.0463" y1="39.682" x2="-17.756" y2="-43.0792" gradientTransform="matrix(1 0 0 -1 0 130)">
	<stop  offset="0" style="stop-color:#444B8C"/>
	<stop  offset="0.9964" style="stop-color:#3E4177"/>
</linearGradient>
<path class="st4" d="M62.4,106.9c3,2.1,8.4,3.9,12.5-4.2c2.1-4.2-1.2-9.2-7-9.5c-2.9-0.2-5.1,0.6-6.5,1.4c-1,0.6-2.2-0.2-2.2-1.3
	V77.9l-16.4,0.5c-1.6,0-2.7-1.8-1.8-3.3c5.7-10.3-3.5-14.5-5.8-14.3c-2.6,0.2-10.6,1.8-10.6,8c0,2.8,0.8,5.1,1.7,6.8
	c0.8,1.5-0.3,3.3-1.9,3.4L9.5,79.3v15.3c0,1.4,0,23.6,0,31.8c0,1.6,1.4,2.9,3,2.8l47.6-3.1v-17.8C60,107.1,61.4,106.3,62.4,106.9z"
	/>
<linearGradient id="SVGID_3_" gradientUnits="userSpaceOnUse" x1="106.2474" y1="195.623" x2="-56.1522" y2="-86.5601" gradientTransform="matrix(1 0 0 -1 0 130)">
	<stop  offset="0" style="stop-color:#444B8C"/>
	<stop  offset="0.9964" style="stop-color:#3E4177"/>
</linearGradient>
<path class="st5" d="M9.5,79.3l14.8-0.4c1.7,0,2.7-1.9,1.9-3.4c-0.9-1.7-1.7-4-1.7-6.8c0-6.1,8-7.7,10.6-8c2.3-0.2,11.5,4,5.8,14.3
	c-0.8,1.5,0.2,3.3,1.8,3.3l16.4-0.5V62.2c0-1.3,1.4-2.1,2.4-1.3c4.7,3.5,11.4,0.3,12.5-2.5c1.3-3.2,1.7-9.8-5.1-11.7
	c-3.6-1-6.2,0-7.9,1.1c-1,0.7-2.3-0.1-2.3-1.3l1-14.5l-1-0.4l-44.9-0.2c-2.4,0-4.4,1.9-4.4,4.4L9.5,79.3z"/>
<path class="st6" d="M108.5,77.4l-14.6,0.4c-1.6,0-2.6,2-1.6,3.4c4.6,7.1-0.7,14-5,14.4c-5,0.5-10.1-2.2-9.6-8.4
	c0.2-2.7,0.9-4.8,1.6-6.4c0.7-1.5-0.3-3.1-1.8-3.1l-17.3,0.5v15.4c0,1.2,1.2,1.9,2.2,1.3c1.4-0.8,3.6-1.6,6.5-1.4
	c5.8,0.3,9.2,5.3,7,9.5c-4.1,8.2-9.4,6.3-12.5,4.2c-1-0.7-2.4,0.2-2.4,1.4v17.8l45.2-2.9c1.5-0.1,2.7-1.4,2.7-2.9L108.5,77.4z"/>
<path class="st7" d="M106.4,79.7l-12.3,0.4c2.3,3.6,2.7,7.8,1,11.5c-1.5,3.5-4.7,6-7.8,6.4c-0.3,0-0.6,0-0.8,0.1
	c-3.5,0.2-6.7-1-8.7-3.3c-1.7-1.9-2.5-4.5-2.3-7.5c0.2-2.5,0.8-4.9,1.8-7.1l-14.9,0.4v12c1.6-0.7,3.3-1.1,5.2-1.2c0.5,0,1,0,1.5,0
	c3.9,0.2,7.1,2.2,8.7,5.3c1.2,2.4,1.2,5.1,0,7.6c-2.9,5.8-6.5,7.2-9,7.3c-1.8,0.1-3.7-0.4-5.5-1.4v14.1l41.3-2.5
	c1.3-0.1,2.3-1.2,2.3-2.4L106.4,79.7z"/>
<path class="st8" d="M63.4,107.4c3,2.1,8.4,3.9,12.5-4.2c2.1-4.2-1.2-9.2-7-9.5c-2.9-0.2-5.1,0.6-6.5,1.4c-1,0.6-2.2-0.2-2.2-1.3
	V78.3l-16.4,0.5c-1.6,0-2.7-1.8-1.8-3.3c5.7-10.3-3.5-14.5-5.8-14.3c-2.6,0.2-10.6,1.8-10.6,8c0,2.8,0.8,5.1,1.7,6.8
	c0.8,1.5-0.3,3.3-1.9,3.4l-14.8,0.4V95c0,1.4,0,23.6,0,31.8c0,1.6,1.4,2.9,3,2.8l47.6-3.1v-17.8C61.1,107.5,62.4,106.7,63.4,107.4z"
	/>
<path class="st9" d="M74,98.9c-0.9-1.7-2.9-2.9-5.3-3c-0.4,0-0.8,0-1.1,0c-1.6,0.1-3,0.5-4.2,1.2c-0.5,0.3-1.1,0.5-1.7,0.5
	c-1,0-1.9-0.3-2.6-1c-0.7-0.7-1.1-1.7-1.1-2.8V80.7l-14.2,0.4c-1.6,0-3-0.8-3.8-2.2c-0.8-1.4-0.8-3.1,0-4.6c1.7-3.1,2-5.7,0.9-7.7
	c-1.3-2.2-3.9-3.2-4.6-3.2c-0.4,0-8.4,0.9-8.4,5.6c0,2,0.5,3.9,1.4,5.7c0.7,1.4,0.7,3.1-0.2,4.5c-0.8,1.4-2.2,2.3-3.8,2.3L12.8,82
	l-0.3,43.2c0,1.5,1.2,2.6,2.7,2.5l43.6-3.3v-15.5c0-2.2,1.7-4,3.7-4.1c0.7,0,1.5,0.2,2.1,0.6c1,0.7,2.6,1.5,4.1,1.4
	c2-0.1,3.7-1.7,5.2-4.7C74.7,100.8,74.4,99.6,74,98.9z"/>
<path class="st6" d="M10.5,79.7l14.8-0.4c1.7,0,2.7-1.9,1.9-3.4c-0.9-1.7-1.7-4-1.7-6.8c0-6.1,8-7.7,10.6-8c2.3-0.2,11.5,4,5.8,14.3
	c-0.8,1.5,0.2,3.3,1.8,3.3l16.4-0.5V62.6c0-1.3,1.4-2.1,2.4-1.3c4.7,3.5,11.4,0.3,12.5-2.5c1.3-3.2,1.7-9.8-5.1-11.7
	c-3.6-1-6.2,0-7.9,1.1c-1,0.7-2.3-0.1-2.3-1.3V32l-44.9-0.2c-2.4,0-4.4,1.9-4.4,4.4L10.5,79.7z"/>
<path class="st7" d="M12.6,36.1c0-1.3,1-2.3,2.3-2.3L57.7,34v12.9c0,1,0.4,1.9,1.1,2.6c0.7,0.7,1.6,1.1,2.5,1.1c0.7,0,1.4-0.2,2-0.6
	c1.1-0.8,2.4-1.2,3.8-1.2c0.8,0,1.5,0.1,2.4,0.3c1.9,0.5,3.1,1.4,3.8,2.8c0.9,1.9,0.6,4.4,0,6.1c-0.4,1-2.9,2.7-5.8,2.7
	c-1.3,0-2.5-0.4-3.5-1.1c-0.6-0.5-1.4-0.7-2.1-0.7c-2,0-3.6,1.6-3.6,3.7v13.7l-14.4,0.4c0,0-0.1-0.1,0-0.2c3.2-5.7,2.1-9.8,0.7-12.2
	c-2.1-3.5-6.1-5.2-8.2-5.2c-0.1,0-0.3,0-0.4,0c-4.6,0.4-12.5,3-12.5,10c0,2.7,0.6,5.3,1.9,7.8c0.1,0.1,0,0.2,0,0.3
	c-0.1,0.1-0.1,0.1-0.1,0.1l-12.7,0.4L12.6,36.1z"/>
<g class="st10">
	<linearGradient id="SVGID_4_" gradientUnits="userSpaceOnUse" x1="10.4" y1="55.75" x2="59.7" y2="55.75">
		<stop  offset="0" style="stop-color:#444B8C"/>
		<stop  offset="0.9964" style="stop-color:#3E4177"/>
	</linearGradient>
	<path class="st11" d="M46.2,56.8c-1.9-10.2,1.1-17.3,3.9-24.8l-35.4-0.2c-2.3,0-4.2,1.9-4.2,4.2l-0.1,43.7l14.8-0.4
		c1.7,0,2.7-1.9,1.9-3.4c-0.9-1.7-1.7-4-1.7-6.8c0-6.1,8-7.7,10.6-8c2.3-0.2,11.5,4,5.8,14.3c-0.8,1.5,0.2,3.3,1.8,3.3l16.1-0.5
		C53.4,72.8,48.1,66.9,46.2,56.8z"/>
</g>
<g class="st12">
	<path class="st13" d="M60.2,78.6v15.1c0,1.2,1.2,1.9,2.2,1.3c1.4-0.8,3.6-1.6,6.5-1.4c5.8,0.3,9.2,5.3,7,9.5
		c-4.1,8.2-9.4,6.3-12.5,4.2c-1-0.7-2.4,0.2-2.4,1.4v17.8l30.1-1.9c-1.4-8.3-3.8-14.7-6.5-19.8C77.7,91.6,68.1,85.3,60.2,78.6z"/>
</g>
<linearGradient id="SVGID_5_" gradientUnits="userSpaceOnUse" x1="133.4762" y1="146.1137" x2="86.1546" y2="80.0606" gradientTransform="matrix(1 0 0 -1 0 130)">
	<stop  offset="0" style="stop-color:#444B8C"/>
	<stop  offset="0.9964" style="stop-color:#3E4177"/>
</linearGradient>
<path class="st14" d="M72.3,32c1.7-1.1,4.3-2.1,7.9-1.1c6.8,1.9,6.4,8.4,5.1,11.7c-1.1,2.7-7.8,6-12.5,2.5c-1-0.8-2.4,0-2.4,1.3V62
	l17.3-0.5c1.5,0,2.5,1.6,1.8,3.1c-0.7,1.6-1.4,3.7-1.6,6.4c-0.5,6.2,4.6,8.9,9.6,8.4c4.3-0.4,9.7-7.4,5-14.4c-0.9-1.4,0-3.3,1.6-3.4
	l14.6-0.4l-0.4-42.5c0-1.6-1.3-2.8-2.8-2.8L70,15.8v14.9C70,31.9,71.3,32.7,72.3,32z"/>
<path class="st8" d="M73.1,32c1.7-1.1,4.3-2.1,7.9-1.1c6.8,1.9,6.4,8.4,5.1,11.7c-1.1,2.7-7.8,6-12.5,2.5c-1-0.8-2.4,0-2.4,1.3V62
	l17.3-0.5c1.5,0,2.5,1.6,1.8,3.1c-0.7,1.6-1.4,3.7-1.6,6.4c-0.5,6.2,4.6,8.9,9.6,8.4c4.3-0.4,9.7-7.4,5-14.4c-0.9-1.4,0-3.3,1.6-3.4
	l14.6-0.4l-0.4-42.5c0-1.6-1.3-2.8-2.8-2.8l-45.5-0.1v14.9C70.8,31.9,72.1,32.7,73.1,32z"/>
<path class="st9" d="M104.9,59.3l12.5-0.3L117,20.4c0-1.3-1.1-2.4-2.4-2.4H72.9v11.4c1.6-0.8,3.2-1.2,5-1.2c1.1,0,2.3,0.2,3.5,0.5
	c3.9,1.1,5.7,3.5,6.5,5.3c1.5,3.3,1,7,0,9.5c-1.2,2.9-5.5,5.3-9.6,5.4c-1.8,0-3.6-0.4-5.1-1.3v12l15.1-0.4c1.5,0,2.8,0.7,3.5,2
	c0.8,1.3,0.8,2.9,0.2,4.3c-0.8,1.7-1.3,3.6-1.4,5.6c-0.1,1.7,0.3,3,1.2,4.1c1.2,1.3,3.3,2.1,5.6,2c0.2,0,0.4,0,0.6,0
	c1.3-0.1,3.3-1.5,4.2-3.7c0.7-1.6,1.2-4.1-0.8-7.2c-0.9-1.3-1-3-0.3-4.5C102,60.3,103.4,59.3,104.9,59.3z"/>
</svg>
