<?xml version="1.0" encoding="utf-8"?>
<!-- Generator: Adobe Illustrator 18.0.0, SVG Export Plug-In . SVG Version: 6.00 Build 0)  -->
<!DOCTYPE svg PUBLIC "-//W3C//DTD SVG 1.1//EN" "http://www.w3.org/Graphics/SVG/1.1/DTD/svg11.dtd">
<svg version="1.1" id="Layer_1" xmlns="http://www.w3.org/2000/svg" xmlns:xlink="http://www.w3.org/1999/xlink" x="0px" y="0px"
	 viewBox="0 0 100 112.5" enable-background="new 0 0 100 112.5" xml:space="preserve">
<g>
	<g>
		<g>
			<g>
				<g>
					<path fill="#FADAB7" d="M94.7,86.8C84.5,81.9,73.6,74.3,62.5,73c0.4-2.6,0.8-5.3,1.1-7.9c2.5-1.6,4.2-3.9,4.4-5.8
						c0.3-2.4,0.6-4.9,0.9-7.3c0.3,0.4,0.8,0.6,1.3,0.7c1.2,0.1,2.2-0.7,2.3-1.9l1.2-11.3c0.1-1.2-0.7-2.2-1.9-2.3
						c-0.4,0-0.9,0-1.2,0.3c0.3-2.2,0.5-4.3,0.7-6.5c0.2-2.9,1.7-10.8-4-15.9c-8.2-8.1-26.3-8.1-34.5,0c-5.7,5.1-4.2,12.9-4,15.9
						c0.2,2.2,0.5,4.3,0.7,6.5c-0.4-0.2-0.8-0.3-1.2-0.3c-1.2,0.1-2,1.2-1.9,2.3l1.2,11.3c0.1,1.2,1.2,2,2.3,1.9
						c0.5-0.1,1-0.3,1.3-0.7c0.3,2.5,0.6,4.9,0.9,7.3c0.2,1.9,1.9,4.3,4.4,5.8c0.4,2.6,0.7,5.3,1.1,7.9c-11.1,1.3-22,9-32.2,13.8
						c-3.3,1.7-5.6,6.2-5.2,9.7c0.4,4,0.8,3.6,1.2,7.6c0.4,3.5,3.3,3,6.6,3.7c27.9,4.5,56.3,3.8,84.2-0.7c3.3-0.6,6.2,0.5,6.6-2.9
						c0.4-4,0.8-3.6,1.2-7.6C100.3,93,98,88.5,94.7,86.8z"/>
				</g>
			</g>
			<path fill="#CDD5D7" d="M60.1,107.3c0,2.8-2.3,5.1-5.2,5.1H5.2c-2.9,0-5.2-2.3-5.2-5.1V90.2c0-2.8,27.9-16.6,30.7-16.6L48.9,85
				C48.9,85,60.1,104.5,60.1,107.3L60.1,107.3z"/>
			<path fill="#CDD5D7" d="M69.2,73.6L51.1,85c0,0-1,2.6-2.4,6.4v21.1h46.1c2.9,0,5.2-2.3,5.2-5.1V90.2C99.9,87.3,72,73.6,69.2,73.6
				z"/>
			<path fill="#30363D" d="M55.7,112.2l-1.7-10.8c0-4.9-1.1-8.8-2.5-8.8h-2.8c-1.4,0-2.5,3.9-2.5,8.8l-1.7,10.8H55.7z"/>
			<path fill="#484F59" d="M54.6,112.2l-1.2-9c0-4.7-0.8-8.5-1.7-8.5h-1.9c-1,0-1.7,3.8-1.7,8.5l-1.2,9H54.6z"/>
			<path fill="#30363D" d="M54.1,93.4c0,1.4-1.1,2.5-2.5,2.5h-2.8c-1.4,0-2.5-1.1-2.5-2.5l-1.7-6.1c0-1.4,0.9-2.2,2.2-2.2h6.2
				c1.4,0,2.7,0.9,2.7,2.2L54.1,93.4z"/>
			<path fill="#484F59" d="M53.8,91.9c0,1-0.8,1.8-1.8,1.8h-2c-1,0-1.8-0.8-1.8-1.8L47,87.4c0-1,0.6-1.6,1.6-1.6h4.5
				c1,0,1.9,0.6,1.9,1.6L53.8,91.9z"/>
			<polygon fill="#F7F8FC" points="49,85 43.8,85.6 37.7,93.7 29.9,73.7 36.8,67.4 37,68.2 37.7,72.8 			"/>
			<polygon fill="#F7F8FC" points="51.2,85 54.8,85.6 61.8,94.4 69.6,73.7 64.6,68.8 63.3,67.9 62.5,72.8 			"/>
			<polygon fill="#E5E8EC" points="48.3,85 44.7,85 35,72.3 36.5,68.2 37.2,72.8 			"/>
			<polygon fill="#E5E8EC" points="51.7,85 57.8,83.3 64.8,72.5 63.6,68.5 62.6,73 			"/>
		</g>
		<g>
			<g>
				<g>
					<path fill="#0E303F" d="M27.6,18.9c-0.2,0-0.5,0-0.7-0.1c-0.4-0.1-0.6-0.4-0.7-0.7c-0.1-0.2,0-0.5,0.1-0.8
						C30.6,9.4,40.1,4.1,50,4.1h0.3c9.9,0,19.4,5.3,23.7,13.1c0.1,0.3,0.2,0.5,0.1,0.8c-0.1,0.3-0.3,0.5-0.7,0.7
						c-0.2,0.1-0.4,0.1-0.7,0.1c-0.1,0-0.2,0-0.4,0c-0.5-0.1-1-0.4-1.2-0.8c-4-7-12.2-11.5-20.9-11.5h-0.1
						c-8.7,0-16.9,4.5-20.9,11.5C28.9,18.5,28.3,18.9,27.6,18.9z"/>
				</g>
			</g>
			<path fill="#2C343D" d="M76.6,42.9c-0.3-1.3-0.8-2.5-1.6-3.3c0.4-1.4,0.8-2.9,1-4.3c2.1-10-0.4-16.3-3.7-21.9
				C67.4,4.8,59.3,0,50.2,0C41,0,32.9,4.8,28,13.3c-3.9,6.6-5.2,14.6-3.7,22c0.1,0.8,0.3,1.5,0.5,2.3c-0.2,0.4-0.2,0.8-0.2,1.2
				l0.1,0.5c-0.8,0.9-1.5,2.1-1.8,3.6c-0.7,0.3-1.2,1-1.1,1.8l0.3,2.8c0.1,0.7,0.5,1.2,1.1,1.4c0.6,2,1.8,3.5,3.1,4.3l0,0.1
				c0.2,1.3,1.3,2.2,2.6,2.1c1.3-0.1,2.2-1.3,2.1-2.6l-1.7-14.5c-0.2-1.3-1.3-2.3-2.6-2.1c-0.3,0-0.5,0.1-0.8,0.2
				c-0.1-0.5-0.2-0.9-0.2-1.4c-1.3-7.3,0.2-15.1,4-21.4C34.4,5.9,41.8,1.5,50.2,1.5c8.3,0,15.8,4.4,20.5,12.1
				c3.8,6.3,5.3,14.1,4,21.3c-0.1,0.7-0.2,1.4-0.4,2.1c-0.4-0.5-0.9-0.8-1.6-0.8c-1.3-0.1-2.5,0.8-2.6,2.1l-1.7,14.5
				c0,0.4,0,0.8,0.2,1.1l-0.3,0.9c0,0-0.5,1.4-1.9,2.1c-1,0.5-4.2,1.8-6.6,2.7c-0.7-0.1-1.6-0.1-2.5,0c-1.8,0.3-3,1.2-2.7,2.2
				c0.3,0.9,1.9,1.1,3.5,0.4c0.9-0.4,1.6-0.8,2.1-1.2c2.4-1,5.8-2.3,6.9-2.8c2-1,2.7-2.9,2.7-2.9l0-0.1c0.2,0.1,0.5,0.2,0.8,0.2
				c1.3,0.1,2.5-0.8,2.6-2.1l0-0.1c1.3-0.8,2.4-2.4,3.1-4.3c0.6-0.2,1-0.7,1.1-1.4l0.3-2.8C77.8,43.8,77.3,43.1,76.6,42.9z"/>
		</g>
	</g>
	<path fill="#3B2314" d="M73.8,38.6c-0.8,1.7-4.4,3.9-4,6.1c0,0.1,0,0.1,0,0c-0.5-0.8,0.1-3.1,0-4c-0.1-1.6-0.4-3.1-0.8-4.6
		c-0.8-3.3-1.7-6.2-3.6-8.9c-2.2-3.3-4.8-5.4-9.1-5.2c-2.6,0.1-6.6,0.8-7,3.9c-2.2-5.3-11.8-5.2-15-0.8c-1.9,2.6-2.6,5.5-3.1,8.6
		c-0.3,1.9-0.4,3.7-0.7,5.6c-0.2,1.1-0.4,3.4-1,4.1c0,0-0.6-3.2-3.6-4.7c-2.9-1.5-0.3-15.8,0.3-17.9c3-10.2,11.9-16.2,22.2-17.3
		c5.2-0.5,10.3-1.9,15.5-1.5c-1.1,0.8-2.3,2-3.3,3.1c3-0.5,5.8-1.4,9-1.2c-1.7,1.2-0.9,3.1-1.8,5c3.7-0.2,6.5,4.4,8.4,7
		c-1.8-0.5-3.5-1.4-5.2-1.9C79,16,76.2,33.6,73.8,38.6z"/>
</g>
</svg>
