<?xml version="1.0" encoding="utf-8"?>
<!-- Generator: Adobe Illustrator 18.0.0, SVG Export Plug-In . SVG Version: 6.00 Build 0)  -->
<!DOCTYPE svg PUBLIC "-//W3C//DTD SVG 1.1//EN" "http://www.w3.org/Graphics/SVG/1.1/DTD/svg11.dtd">
<svg version="1.1" id="Layer_1" xmlns="http://www.w3.org/2000/svg" xmlns:xlink="http://www.w3.org/1999/xlink" x="0px" y="0px"
	 viewBox="0 0 396.7 100" enable-background="new 0 0 396.7 100" xml:space="preserve">
<g>
	<path fill="#66AE4E" d="M202.6,0c27.6,0,50,22.4,50,50s-22.4,50-50,50c-27.6,0-50-22.4-50-50S175,0,202.6,0z"/>
	<g>
		<path fill="#FFFFFF" d="M190.8,44.9l-4.2-8.5h-12.3l14,27.1c0.3,0.6,0.8,0.8,1.5,0.8c0.7,0,1.2-0.3,1.5-0.8l13.3-27.1h-10
			L190.8,44.9z M223.8,47.8c-0.6-0.4-1.3-0.8-2.1-1.1c-0.7-0.3-1.4-0.6-1.9-0.9c-0.6-0.2-0.9-0.5-1.2-0.7c-0.2-0.2-0.3-0.5-0.3-0.7
			c0-0.2,0.1-0.4,0.4-0.6c0.3-0.2,0.7-0.3,1.2-0.3c1.3,0,3.6,0.3,6.6,1v-7.8c-0.2,0-0.5-0.1-1-0.2c-2.4-0.5-4.7-0.7-6.8-0.7
			c-2.2,0-4.1,0.3-5.8,0.8c-4.1,1.3-6.1,3.9-6.1,7.8c0,1.8,0.4,3.2,1.3,4.4c0.9,1.2,2,2.2,3.4,3.1c0.6,0.4,1.1,0.7,1.7,1
			c0.6,0.3,1.1,0.6,1.5,0.9c1,0.6,1.5,1.2,1.5,1.7c0,0.7-0.6,1-1.7,1c-0.7,0-1.6-0.1-2.7-0.4c-1.1-0.3-2.2-0.6-3.2-0.9
			c-0.4-0.1-0.8-0.2-1.1-0.3c-0.3-0.1-0.5-0.1-0.5-0.1v7.8c1.7,1.3,5,1.9,10.1,1.9c3.5,0,6.3-0.8,8.3-2.4c2-1.6,3-3.9,3-6.8
			C228.1,52,226.7,49.5,223.8,47.8z"/>
	</g>
	<g>
		<path fill="#43627D" d="M311.5,35.4c-1.4-1.1-3.1-1.9-5.2-2.4c-2.1-0.5-5-0.8-8.5-0.8c-3.6,0-8.9,0.3-15.9,1V67h13.9v-6.1l3.8,0.1
			c2.2,0,4.3-0.4,6.2-1.1c1.9-0.7,3.6-1.8,5.1-3.1c1.4-1.3,2.6-2.9,3.4-4.7c0.8-1.8,1.2-3.9,1.2-6.1
			C315.4,41.1,314.1,37.5,311.5,35.4z M301.5,48c-0.7,0.7-1.8,1.5-3.4,2.3l-2.5,1.2v-8c2.3-1.7,4.1-2.5,5.4-2.5c0.4,0,0.7,0.1,1,0.2
			c0.9,0.4,1.4,1.3,1.4,2.7C303.3,45.2,302.7,46.6,301.5,48z M353.1,44.2c0-2-0.5-3.9-1.5-5.6c-1.7-3-4.6-5-8.6-5.9
			c-1.5-0.3-3.6-0.5-6.4-0.5c-2.8,0-8.7,0.3-17.6,1V67h13.9v-9.8l6,9.8h16.8l-9.2-12C350.8,52.3,353.1,48.7,353.1,44.2z M332.8,51
			v-8.3l2.8-1.2c1.1-0.5,2-0.7,2.7-0.7c1.5,0,2.2,1,2.2,3C340.5,46.7,337.9,49.1,332.8,51z M395.2,42.6c-1-2.2-2.4-4.1-4.1-5.6
			c-1.7-1.5-3.8-2.7-6.1-3.5c-2.3-0.8-5-1.2-8.1-1.2s-6,0.7-8.9,2.2c-2.9,1.5-5.1,3.6-6.8,6.3c-1.7,2.7-2.6,5.8-2.6,9.3
			c0,3.5,0.9,6.6,2.8,9.5c0.9,1.3,1.9,2.5,3.1,3.6c3.7,3.3,8.1,4.9,13.1,4.9c3.3,0,6.5-0.7,9.4-2.2c2.9-1.5,5.3-3.6,7.1-6.3
			c1.8-2.7,2.7-5.8,2.7-9.3C396.7,47.3,396.2,44.8,395.2,42.6z M383,48.1c-0.7,2.7-2,4.9-3.8,6.8c-1.2,1.3-2.3,1.9-3.2,1.9
			c-2.4,0-3.6-1.2-3.6-3.5c0-0.7,0.1-1.4,0.3-2.3c0.7-2.6,2-4.8,3.8-6.7c1.2-1.2,2.3-1.9,3.3-1.9c2.3,0,3.4,1.2,3.4,3.6
			C383.3,46.6,383.2,47.3,383,48.1z"/>
	</g>
	<g>
		<path fill="#43627D" d="M0,67.4h13.2V55.5h11.2v-9.3H13.2v-3.1h11.2v-9.6H0V67.4z M62.2,44.6c0-2-0.5-3.9-1.5-5.6
			c-1.7-3-4.6-5-8.6-5.9c-1.5-0.3-3.6-0.5-6.4-0.5c-2.8,0-8.7,0.3-17.6,1v33.9H42v-9.8l6,9.8h16.8l-9.2-12
			C60,52.7,62.2,49.1,62.2,44.6z M41.9,51.4v-8.3l2.8-1.2c1.1-0.5,2-0.7,2.7-0.7c1.5,0,2.2,1,2.2,3C49.6,47.1,47,49.5,41.9,51.4z
			 M82,54.4h11.2v-8.3H82v-2.8h11.2v-9.8H68.8v33.9H94v-9.8H82V54.4z M112.2,57.6v-3.2h11.2v-8.3h-11.2v-2.8h11.2v-9.8H99v33.9h25.2
			v-9.8C124.2,57.6,112.2,57.6,112.2,57.6z"/>
	</g>
</g>
</svg>
