<?xml version="1.0" encoding="utf-8"?>
<!-- Generator: Adobe Illustrator 18.0.0, SVG Export Plug-In . SVG Version: 6.00 Build 0)  -->
<!DOCTYPE svg PUBLIC "-//W3C//DTD SVG 1.1//EN" "http://www.w3.org/Graphics/SVG/1.1/DTD/svg11.dtd">
<svg version="1.1" id="Layer_1" xmlns="http://www.w3.org/2000/svg" xmlns:xlink="http://www.w3.org/1999/xlink" x="0px" y="0px"
	 viewBox="0 0 97.6 100" enable-background="new 0 0 97.6 100" xml:space="preserve">
<g>
	<path fill="#65AE4C" d="M54.8,34.7c-0.7,5.2,2.1,11,10.4,10.4c8.2-0.7,11.2-10.9,9.9-20.9S64.4,3.5,57.3,1S38,0.2,29.4,9.6
		s-8.9,21.3-4,29.2s14.8,14.8,22.1,14.8s12.2-2.5,16.2-3.3s6.8,3,6.3,6.4c-0.5,3.5-5.8,7.9-7.7,4c-2-4-2.6-7.3-5.1-5.1
		s-0.7,4.9,2.6,6.6c3.3,1.6,7.7,2.5,10.4-1.5s2.3-9.9-4-11.7c-6.3-1.8-11.2,5.1-21.8,1.8S27.3,40.1,27.1,30.4
		c-0.2-9.7,3.1-17.6,13.4-23.1s20.1-1.6,23.4,2.6s3.3,8.9-1,12.9S55.5,29.5,54.8,34.7z"/>
	<polygon fill="#65AE4C" points="0,77.5 8.4,77.5 8.4,78.7 5.1,78.7 9.5,93.4 15.6,78.1 21.9,93.8 26.6,79.2 23,79.2 23,77.3 
		30.5,77.3 30.5,79 28.2,79 21.3,99.8 15.3,83.3 9.1,99.4 2.7,78.6 0.1,78.6 	"/>
	<path fill="#65AE4C" d="M48.3,83.5c0-7.6-10-5.6-15.7-5.6v1.3l2.7,0.6v18.4l-3.1,0.2v1.3h8.6v-1.1l-2.4-0.3V90
		C38.3,90,48.3,91.1,48.3,83.5z M38.3,79.1c0,0,6.6-0.2,6.6,4.5s-6.6,4.6-6.6,4.6V79.1z"/>
	<polygon fill="#FFFFFF" points="50.4,77.1 58,77.1 64.2,93.7 70.4,77.5 77.3,77.5 77.3,79.4 74,79.4 74,98 77.6,98 77.6,99.6 
		67.8,99.6 67.8,98 71.5,98 71.5,80.3 64.3,98.5 62,98.5 55.7,81.2 55.7,98.3 58.7,98.3 58.7,99.9 50.2,99.9 50.2,98.5 53.6,98.5 
		53.6,80 50.6,80 	"/>
	<path fill="#FFFFFF" d="M88.9,77.3h-8.7v2.3h3v18h-3.4v2.3h17.8v-6.9H96c0,0-0.6,4.8-3.9,5s-5.6,0-5.6,0V79.6h2.5V77.3z"/>
</g>
</svg>
